AnnotationMono_Bold.ufo
<glyph name="exclam" format="2">
  <advance width="500"/>
  <unicode hex="0021"/>
  <outline>
    <contour>
      <point x="251" y="608" type="curve" smooth="yes"/>
      <point x="309" y="608"/>
      <point x="314" y="582"/>
      <point x="313" y="555" type="curve" smooth="yes"/>
      <point x="312" y="503"/>
      <point x="305" y="418"/>
      <point x="302" y="382" type="curve" smooth="yes"/>
      <point x="296" y="314"/>
      <point x="293" y="268"/>
      <point x="292" y="252" type="curve" smooth="yes"/>
      <point x="289" y="200"/>
      <point x="287" y="175"/>
      <point x="250" y="175" type="curve" smooth="yes"/>
      <point x="212" y="175"/>
      <point x="210" y="200"/>
      <point x="206" y="253" type="curve" smooth="yes"/>
      <point x="205" y="261"/>
      <point x="201" y="339"/>
      <point x="196" y="382" type="curve" smooth="yes"/>
      <point x="195" y="402"/>
      <point x="188" y="498"/>
      <point x="184" y="555" type="curve" smooth="yes"/>
      <point x="183" y="577"/>
      <point x="187" y="608"/>
    </contour>
    <component base="period"/>
  </outline>
</glyph>
<glyph name="numbersign" format="2">
  <advance width="500"/>
  <unicode hex="0023"/>
  <outline>
    <contour>
      <point x="244" y="605" type="curve" smooth="yes"/>
      <point x="287" y="605"/>
      <point x="294" y="579"/>
      <point x="287" y="557" type="curve" smooth="yes"/>
      <point x="283" y="540"/>
      <point x="242" y="385"/>
      <point x="213" y="276" type="curve" smooth="yes"/>
      <point x="199" y="222"/>
      <point x="168" y="110"/>
      <point x="158" y="76" type="curve" smooth="yes"/>
      <point x="141" y="22"/>
      <point x="132" y="-7"/>
      <point x="79" y="-7" type="curve" smooth="yes"/>
      <point x="52" y="-7"/>
      <point x="48" y="29"/>
      <point x="63" y="70" type="curve" smooth="yes"/>
      <point x="77" y="111"/>
      <point x="106" y="229"/>
      <point x="137" y="346" type="curve" smooth="yes"/>
      <point x="185" y="525"/>
      <point x="185" y="532"/>
      <point x="197" y="563" type="curve" smooth="yes"/>
      <point x="209" y="596"/>
      <point x="228" y="605"/>
    </contour>
    <contour>
      <point x="413" y="605" type="curve" smooth="yes"/>
      <point x="435" y="605"/>
      <point x="450" y="588"/>
      <point x="446" y="563" type="curve" smooth="yes"/>
      <point x="441" y="532"/>
      <point x="436" y="525"/>
      <point x="388" y="346" type="curve" smooth="yes"/>
      <point x="357" y="229"/>
      <point x="327" y="110"/>
      <point x="316" y="70" type="curve" smooth="yes"/>
      <point x="304" y="25"/>
      <point x="287" y="-7"/>
      <point x="249" y="-7" type="curve" smooth="yes"/>
      <point x="209" y="-7"/>
      <point x="208" y="28"/>
      <point x="223" y="74" type="curve" smooth="yes"/>
      <point x="249" y="157"/>
      <point x="262" y="222"/>
      <point x="276" y="276" type="curve" smooth="yes"/>
      <point x="304" y="386"/>
      <point x="347" y="538"/>
      <point x="350" y="555" type="curve" smooth="yes"/>
      <point x="355" y="577"/>
      <point x="374" y="605"/>
    </contour>
    <contour>
      <point x="52" y="401" type="curve" smooth="yes"/>
      <point x="52" y="417"/>
      <point x="65" y="444"/>
      <point x="94" y="444" type="curve" smooth="yes"/>
      <point x="146" y="444"/>
      <point x="244" y="442"/>
      <point x="256" y="442" type="curve" smooth="yes"/>
      <point x="289" y="442"/>
      <point x="409" y="445"/>
      <point x="441" y="443" type="curve" smooth="yes"/>
      <point x="464" y="442"/>
      <point x="478" y="419"/>
      <point x="478" y="400" type="curve" smooth="yes"/>
      <point x="478" y="379"/>
      <point x="461" y="367"/>
      <point x="426" y="366" type="curve" smooth="yes"/>
      <point x="379" y="365"/>
      <point x="346" y="362"/>
      <point x="268" y="365" type="curve" smooth="yes"/>
      <point x="237" y="366"/>
      <point x="108" y="364"/>
      <point x="90" y="367" type="curve" smooth="yes"/>
      <point x="62" y="371"/>
      <point x="52" y="385"/>
    </contour>
    <contour>
      <point x="32" y="201" type="curve" smooth="yes"/>
      <point x="32" y="217"/>
      <point x="45" y="234"/>
      <point x="74" y="234" type="curve" smooth="yes"/>
      <point x="126" y="234"/>
      <point x="224" y="232"/>
      <point x="236" y="232" type="curve" smooth="yes"/>
      <point x="269" y="232"/>
      <point x="379" y="235"/>
      <point x="411" y="233" type="curve" smooth="yes"/>
      <point x="434" y="232"/>
      <point x="448" y="219"/>
      <point x="448" y="200" type="curve" smooth="yes"/>
      <point x="448" y="179"/>
      <point x="431" y="157"/>
      <point x="396" y="156" type="curve" smooth="yes"/>
      <point x="349" y="155"/>
      <point x="265" y="156"/>
      <point x="228" y="155" type="curve" smooth="yes"/>
      <point x="197" y="155"/>
      <point x="88" y="154"/>
      <point x="70" y="157" type="curve" smooth="yes"/>
      <point x="42" y="161"/>
      <point x="32" y="185"/>
    </contour>
  </outline>
</glyph>
<glyph name="dollar" format="2">
  <advance width="500"/>
  <unicode hex="0024"/>
  <outline>
    <contour>
      <point x="255" y="615" type="curve" smooth="yes"/>
      <point x="331" y="615"/>
      <point x="369" y="604"/>
      <point x="405" y="584" type="curve" smooth="yes"/>
      <point x="433" y="568"/>
      <point x="457" y="545"/>
      <point x="436" y="513" type="curve" smooth="yes"/>
      <point x="413" y="479"/>
      <point x="388" y="495"/>
      <point x="371" y="504" type="curve" smooth="yes"/>
      <point x="353" y="515"/>
      <point x="335" y="526"/>
      <point x="254" y="526" type="curve" smooth="yes"/>
      <point x="192" y="526"/>
      <point x="157" y="506"/>
      <point x="157" y="437" type="curve" smooth="yes"/>
      <point x="157" y="345"/>
      <point x="177" y="348"/>
      <point x="258" y="348" type="curve" smooth="yes"/>
      <point x="335" y="348"/>
      <point x="384" y="328"/>
      <point x="423" y="300" type="curve" smooth="yes"/>
      <point x="453" y="278"/>
      <point x="463" y="241"/>
      <point x="463" y="189" type="curve" smooth="yes"/>
      <point x="463" y="129"/>
      <point x="448" y="84"/>
      <point x="418" y="51" type="curve" smooth="yes"/>
      <point x="384" y="13"/>
      <point x="315" y="-9"/>
      <point x="238" y="-9" type="curve" smooth="yes"/>
      <point x="171" y="-9"/>
      <point x="106" y="27"/>
      <point x="72" y="64" type="curve" smooth="yes"/>
      <point x="53" y="85"/>
      <point x="29" y="109"/>
      <point x="62" y="143" type="curve" smooth="yes"/>
      <point x="93" y="175"/>
      <point x="118" y="150"/>
      <point x="133" y="138" type="curve" smooth="yes"/>
      <point x="177" y="98"/>
      <point x="213" y="89"/>
      <point x="241" y="89" type="curve" smooth="yes"/>
      <point x="299" y="89"/>
      <point x="334" y="91"/>
      <point x="357" y="113" type="curve" smooth="yes"/>
      <point x="370" y="125"/>
      <point x="380" y="150"/>
      <point x="380" y="180" type="curve" smooth="yes"/>
      <point x="380" y="204"/>
      <point x="373" y="223"/>
      <point x="363" y="234" type="curve" smooth="yes"/>
      <point x="351" y="247"/>
      <point x="314" y="257"/>
      <point x="267" y="257" type="curve" smooth="yes"/>
      <point x="121" y="256"/>
      <point x="67" y="307"/>
      <point x="67" y="439" type="curve" smooth="yes"/>
      <point x="67" y="572"/>
      <point x="158" y="615"/>
    </contour>
    <contour>
      <point x="273" y="682" type="curve" smooth="yes"/>
      <point x="279" y="682"/>
      <point x="306" y="674"/>
      <point x="306" y="641" type="curve" smooth="yes"/>
      <point x="307" y="523"/>
      <point x="309" y="511"/>
      <point x="306" y="301" type="curve" smooth="yes"/>
      <point x="304" y="96"/>
      <point x="306" y="115"/>
      <point x="307" y="-45" type="curve" smooth="yes"/>
      <point x="307" y="-83"/>
      <point x="297" y="-108"/>
      <point x="268" y="-108" type="curve" smooth="yes"/>
      <point x="238" y="-108"/>
      <point x="224" y="-76"/>
      <point x="225" y="-44" type="curve" smooth="yes"/>
      <point x="225" y="-38"/>
      <point x="223" y="70"/>
      <point x="226" y="281" type="curve" smooth="yes"/>
      <point x="229" y="534"/>
      <point x="225" y="561"/>
      <point x="226" y="636" type="curve" smooth="yes"/>
      <point x="226" y="657"/>
      <point x="244" y="683"/>
    </contour>
  </outline>
</glyph>
<glyph name="percent" format="2">
  <advance width="500"/>
  <unicode hex="0025"/>
  <outline>
    <contour>
      <point x="440" y="613" type="curve" smooth="yes"/>
      <point x="470" y="608"/>
      <point x="455" y="525"/>
      <point x="443" y="495" type="curve" smooth="yes"/>
      <point x="411" y="417"/>
      <point x="400" y="386"/>
      <point x="312" y="308" type="curve" smooth="yes"/>
      <point x="186" y="195"/>
      <point x="146" y="139"/>
      <point x="134" y="36" type="curve" smooth="yes"/>
      <point x="129" y="-3"/>
      <point x="118" y="-18"/>
      <point x="77" y="-15" type="curve" smooth="yes"/>
      <point x="45" y="-13"/>
      <point x="46" y="27"/>
      <point x="50" y="62" type="curve" smooth="yes"/>
      <point x="56" y="114"/>
      <point x="80" y="195"/>
      <point x="198" y="307" type="curve" smooth="yes"/>
      <point x="326" y="429"/>
      <point x="354" y="461"/>
      <point x="375" y="563" type="curve" smooth="yes"/>
      <point x="384" y="605"/>
      <point x="388" y="621"/>
    </contour>
    <contour>
      <point x="234" y="487" type="curve" smooth="yes"/>
      <point x="235" y="441"/>
      <point x="227" y="403"/>
      <point x="208" y="380" type="curve" smooth="yes"/>
      <point x="190" y="356"/>
      <point x="165" y="344"/>
      <point x="136" y="344" type="curve" smooth="yes"/>
      <point x="108" y="345"/>
      <point x="87" y="352"/>
      <point x="73" y="365" type="curve" smooth="yes"/>
      <point x="54" y="384"/>
      <point x="42" y="423"/>
      <point x="42" y="486" type="curve" smooth="yes"/>
      <point x="42" y="522"/>
      <point x="49" y="547"/>
      <point x="68" y="576" type="curve" smooth="yes"/>
      <point x="83" y="599"/>
      <point x="106" y="615"/>
      <point x="139" y="614" type="curve" smooth="yes"/>
      <point x="167" y="613"/>
      <point x="191" y="604"/>
      <point x="205" y="586" type="curve" smooth="yes"/>
      <point x="222" y="558"/>
      <point x="234" y="532"/>
    </contour>
    <contour>
      <point x="172" y="480" type="curve" smooth="yes"/>
      <point x="172" y="501"/>
      <point x="168" y="508"/>
      <point x="160" y="521" type="curve" smooth="yes"/>
      <point x="156" y="526"/>
      <point x="151" y="533"/>
      <point x="138" y="533" type="curve" smooth="yes"/>
      <point x="130" y="533"/>
      <point x="123" y="526"/>
      <point x="115" y="517" type="curve" smooth="yes"/>
      <point x="111" y="510"/>
      <point x="107" y="502"/>
      <point x="107" y="480" type="curve" smooth="yes"/>
      <point x="107" y="456"/>
      <point x="110" y="448"/>
      <point x="113" y="443" type="curve" smooth="yes"/>
      <point x="118" y="435"/>
      <point x="125" y="430"/>
      <point x="137" y="430" type="curve" smooth="yes"/>
      <point x="151" y="430"/>
      <point x="159" y="437"/>
      <point x="164" y="445" type="curve" smooth="yes"/>
      <point x="169" y="453"/>
      <point x="172" y="458"/>
    </contour>
    <contour>
      <point x="455" y="116" type="curve" smooth="yes"/>
      <point x="456" y="70"/>
      <point x="448" y="42"/>
      <point x="429" y="19" type="curve" smooth="yes"/>
      <point x="411" y="-5"/>
      <point x="386" y="-17"/>
      <point x="357" y="-17" type="curve" smooth="yes"/>
      <point x="329" y="-16"/>
      <point x="308" y="-9"/>
      <point x="294" y="4" type="curve" smooth="yes"/>
      <point x="275" y="23"/>
      <point x="263" y="52"/>
      <point x="263" y="115" type="curve" smooth="yes"/>
      <point x="263" y="151"/>
      <point x="270" y="186"/>
      <point x="289" y="215" type="curve" smooth="yes"/>
      <point x="304" y="238"/>
      <point x="327" y="254"/>
      <point x="360" y="253" type="curve" smooth="yes"/>
      <point x="388" y="252"/>
      <point x="412" y="243"/>
      <point x="426" y="225" type="curve" smooth="yes"/>
      <point x="443" y="197"/>
      <point x="455" y="161"/>
    </contour>
    <contour>
      <point x="392" y="119" type="curve" smooth="yes"/>
      <point x="392" y="139"/>
      <point x="388" y="146"/>
      <point x="380" y="158" type="curve" smooth="yes"/>
      <point x="376" y="163"/>
      <point x="371" y="169"/>
      <point x="359" y="169" type="curve" smooth="yes"/>
      <point x="352" y="169"/>
      <point x="345" y="163"/>
      <point x="337" y="154" type="curve" smooth="yes"/>
      <point x="333" y="148"/>
      <point x="329" y="140"/>
      <point x="329" y="119" type="curve" smooth="yes"/>
      <point x="329" y="96"/>
      <point x="332" y="89"/>
      <point x="335" y="83" type="curve" smooth="yes"/>
      <point x="340" y="76"/>
      <point x="346" y="72"/>
      <point x="358" y="72" type="curve" smooth="yes"/>
      <point x="371" y="72"/>
      <point x="379" y="78"/>
      <point x="384" y="85" type="curve" smooth="yes"/>
      <point x="389" y="93"/>
      <point x="392" y="98"/>
    </contour>
  </outline>
</glyph>
<glyph name="ampersand" format="2">
  <advance width="500"/>
  <unicode hex="0026"/>
  <outline>
    <contour>
      <point x="72" y="535" type="curve" smooth="yes"/>
      <point x="83" y="593"/>
      <point x="124" y="612"/>
      <point x="178" y="612" type="curve" smooth="yes"/>
      <point x="281" y="612"/>
      <point x="361" y="566"/>
      <point x="361" y="496" type="curve" smooth="yes"/>
      <point x="361" y="426"/>
      <point x="276" y="331"/>
      <point x="220" y="286" type="curve" smooth="yes"/>
      <point x="146" y="227"/>
      <point x="124" y="121"/>
      <point x="143" y="96" type="curve" smooth="yes"/>
      <point x="163" y="69"/>
      <point x="222" y="89"/>
      <point x="247" y="115" type="curve" smooth="yes"/>
      <point x="282" y="152"/>
      <point x="322" y="181"/>
      <point x="339" y="234" type="curve" smooth="yes"/>
      <point x="356" y="288"/>
      <point x="356" y="288"/>
      <point x="373" y="299" type="curve" smooth="yes"/>
      <point x="388" y="309"/>
      <point x="406" y="311"/>
      <point x="416" y="304" type="curve" smooth="yes"/>
      <point x="426" y="297"/>
      <point x="430" y="273"/>
      <point x="427" y="235" type="curve" smooth="yes"/>
      <point x="424" y="177"/>
      <point x="389" y="119"/>
      <point x="326" y="64" type="curve" smooth="yes"/>
      <point x="275" y="20"/>
      <point x="202" y="-13"/>
      <point x="153" y="-14" type="curve" smooth="yes"/>
      <point x="81" y="-16"/>
      <point x="50" y="22"/>
      <point x="50" y="91" type="curve" smooth="yes"/>
      <point x="50" y="144"/>
      <point x="58" y="227"/>
      <point x="96" y="286" type="curve" smooth="yes"/>
      <point x="133" y="345"/>
      <point x="265" y="422"/>
      <point x="265" y="471" type="curve" smooth="yes"/>
      <point x="265" y="501"/>
      <point x="239" y="531"/>
      <point x="199" y="531" type="curve" smooth="yes"/>
      <point x="173" y="531"/>
      <point x="139" y="503"/>
      <point x="171" y="442" type="curve" smooth="yes"/>
      <point x="199" y="388"/>
      <point x="264" y="281"/>
      <point x="321" y="214" type="curve" smooth="yes"/>
      <point x="350" y="180"/>
      <point x="431" y="88"/>
      <point x="460" y="52" type="curve" smooth="yes"/>
      <point x="467" y="43"/>
      <point x="490" y="27"/>
      <point x="482" y="11" type="curve" smooth="yes"/>
      <point x="474" y="-5"/>
      <point x="419" y="-13"/>
      <point x="388" y="6" type="curve" smooth="yes"/>
      <point x="358" y="25"/>
      <point x="233" y="185"/>
      <point x="220" y="201" type="curve" smooth="yes"/>
      <point x="173" y="261"/>
      <point x="110" y="375"/>
      <point x="97" y="403" type="curve" smooth="yes"/>
      <point x="74" y="453"/>
      <point x="65" y="495"/>
    </contour>
  </outline>
</glyph>
<glyph name="quotesingle" format="2">
  <advance width="500"/>
  <unicode hex="0027"/>
  <outline>
    <contour>
      <point x="245" y="403" type="curve" smooth="yes"/>
      <point x="222" y="403"/>
      <point x="203" y="414"/>
      <point x="205" y="444" type="curve" smooth="yes"/>
      <point x="207" y="478"/>
      <point x="204" y="498"/>
      <point x="204" y="563" type="curve" smooth="yes"/>
      <point x="204" y="577"/>
      <point x="215" y="605"/>
      <point x="251" y="605" type="curve" smooth="yes"/>
      <point x="280" y="605"/>
      <point x="296" y="588"/>
      <point x="296" y="563" type="curve" smooth="yes"/>
      <point x="296" y="506"/>
      <point x="295" y="473"/>
      <point x="289" y="441" type="curve" smooth="yes"/>
      <point x="285" y="417"/>
      <point x="273" y="403"/>
    </contour>
  </outline>
</glyph>
<glyph name="parenleft" format="2">
  <advance width="500"/>
  <unicode hex="0028"/>
  <outline>
    <contour>
      <point x="96" y="291" type="curve" smooth="yes"/>
      <point x="96" y="627"/>
      <point x="311" y="673"/>
      <point x="375" y="674" type="curve" smooth="yes"/>
      <point x="412" y="675"/>
      <point x="435" y="666"/>
      <point x="433" y="621" type="curve" smooth="yes"/>
      <point x="432" y="593"/>
      <point x="411" y="590"/>
      <point x="379" y="589" type="curve" smooth="yes"/>
      <point x="352" y="588"/>
      <point x="191" y="567"/>
      <point x="191" y="294" type="curve" smooth="yes"/>
      <point x="191" y="20"/>
      <point x="324" y="-11"/>
      <point x="404" y="-11" type="curve" smooth="yes"/>
      <point x="426" y="-11"/>
      <point x="434" y="-29"/>
      <point x="432" y="-55" type="curve" smooth="yes"/>
      <point x="430" y="-89"/>
      <point x="408" y="-102"/>
      <point x="360" y="-95" type="curve" smooth="yes"/>
      <point x="286" y="-84"/>
      <point x="96" y="-46"/>
    </contour>
  </outline>
</glyph>
<glyph name="asterisk" format="2">
  <advance width="500"/>
  <unicode hex="002A"/>
  <outline>
    <contour>
      <point x="251" y="478" type="curve" smooth="yes"/>
      <point x="267" y="478"/>
      <point x="290" y="475"/>
      <point x="290" y="446" type="curve" smooth="yes"/>
      <point x="290" y="423"/>
      <point x="293" y="376"/>
      <point x="276" y="339" type="curve"/>
      <point x="299" y="377"/>
      <point x="354" y="406"/>
      <point x="365" y="411" type="curve" smooth="yes"/>
      <point x="392" y="422"/>
      <point x="406" y="407"/>
      <point x="414" y="393" type="curve" smooth="yes"/>
      <point x="422" y="379"/>
      <point x="425" y="353"/>
      <point x="401" y="337" type="curve" smooth="yes"/>
      <point x="381" y="324"/>
      <point x="333" y="307"/>
      <point x="293" y="300" type="curve"/>
      <point x="331" y="297"/>
      <point x="371" y="281"/>
      <point x="392" y="268" type="curve" smooth="yes"/>
      <point x="422" y="251"/>
      <point x="422" y="223"/>
      <point x="413" y="206" type="curve" smooth="yes"/>
      <point x="404" y="190"/>
      <point x="387" y="178"/>
      <point x="366" y="189" type="curve" smooth="yes"/>
      <point x="350" y="198"/>
      <point x="299" y="225"/>
      <point x="276" y="262" type="curve"/>
      <point x="291" y="222"/>
      <point x="291" y="172"/>
      <point x="289" y="154" type="curve" smooth="yes"/>
      <point x="286" y="130"/>
      <point x="269" y="122"/>
      <point x="250" y="122" type="curve" smooth="yes"/>
      <point x="233" y="122"/>
      <point x="214" y="132"/>
      <point x="212" y="157" type="curve" smooth="yes"/>
      <point x="210" y="177"/>
      <point x="209" y="223"/>
      <point x="224" y="262" type="curve"/>
      <point x="201" y="225"/>
      <point x="150" y="198"/>
      <point x="134" y="189" type="curve" smooth="yes"/>
      <point x="113" y="178"/>
      <point x="96" y="190"/>
      <point x="87" y="206" type="curve" smooth="yes"/>
      <point x="78" y="223"/>
      <point x="78" y="251"/>
      <point x="108" y="268" type="curve" smooth="yes"/>
      <point x="129" y="281"/>
      <point x="169" y="297"/>
      <point x="207" y="300" type="curve"/>
      <point x="167" y="307"/>
      <point x="119" y="324"/>
      <point x="99" y="337" type="curve" smooth="yes"/>
      <point x="75" y="353"/>
      <point x="78" y="379"/>
      <point x="86" y="393" type="curve" smooth="yes"/>
      <point x="94" y="407"/>
      <point x="108" y="422"/>
      <point x="135" y="411" type="curve" smooth="yes"/>
      <point x="146" y="406"/>
      <point x="199" y="377"/>
      <point x="224" y="339" type="curve"/>
      <point x="206" y="383"/>
      <point x="210" y="439"/>
      <point x="212" y="450" type="curve" smooth="yes"/>
      <point x="216" y="478"/>
      <point x="236" y="478"/>
    </contour>
  </outline>
</glyph>
<glyph name="plus" format="2">
  <advance width="500"/>
  <unicode hex="002B"/>
  <outline>
    <contour>
      <point x="52" y="301" type="curve" smooth="yes"/>
      <point x="52" y="317"/>
      <point x="65" y="349"/>
      <point x="94" y="349" type="curve" smooth="yes"/>
      <point x="146" y="349"/>
      <point x="219" y="347"/>
      <point x="231" y="347" type="curve" smooth="yes"/>
      <point x="264" y="347"/>
      <point x="379" y="350"/>
      <point x="411" y="348" type="curve" smooth="yes"/>
      <point x="434" y="347"/>
      <point x="448" y="319"/>
      <point x="448" y="300" type="curve" smooth="yes"/>
      <point x="448" y="280"/>
      <point x="431" y="253"/>
      <point x="396" y="252" type="curve" smooth="yes"/>
      <point x="349" y="251"/>
      <point x="260" y="252"/>
      <point x="223" y="251" type="curve" smooth="yes"/>
      <point x="192" y="251"/>
      <point x="108" y="250"/>
      <point x="90" y="253" type="curve" smooth="yes"/>
      <point x="62" y="257"/>
      <point x="52" y="286"/>
    </contour>
    <contour>
      <point x="251" y="498" type="curve" smooth="yes"/>
      <point x="267" y="498"/>
      <point x="297" y="485"/>
      <point x="298" y="456" type="curve" smooth="yes"/>
      <point x="301" y="411"/>
      <point x="297" y="316"/>
      <point x="298" y="304" type="curve" smooth="yes"/>
      <point x="299" y="290"/>
      <point x="299" y="171"/>
      <point x="297" y="139" type="curve" smooth="yes"/>
      <point x="296" y="116"/>
      <point x="269" y="102"/>
      <point x="250" y="102" type="curve" smooth="yes"/>
      <point x="230" y="102"/>
      <point x="203" y="119"/>
      <point x="202" y="154" type="curve" smooth="yes"/>
      <point x="201" y="201"/>
      <point x="202" y="275"/>
      <point x="201" y="312" type="curve" smooth="yes"/>
      <point x="201" y="343"/>
      <point x="200" y="442"/>
      <point x="203" y="460" type="curve" smooth="yes"/>
      <point x="207" y="488"/>
      <point x="236" y="498"/>
    </contour>
  </outline>
</glyph>
<glyph name="comma" format="2">
  <advance width="500"/>
  <unicode hex="002C"/>
  <anchor x="250" y="55" name="center"/>
  <outline>
    <contour>
      <point x="319" y="56" type="curve" smooth="yes"/>
      <point x="325" y="4"/>
      <point x="318" y="-38"/>
      <point x="299" y="-74" type="curve" smooth="yes"/>
      <point x="272" y="-126"/>
      <point x="225" y="-152"/>
      <point x="148" y="-157" type="curve" smooth="yes"/>
      <point x="125" y="-158"/>
      <point x="113" y="-146"/>
      <point x="111" y="-133" type="curve" smooth="yes"/>
      <point x="106" y="-109"/>
      <point x="113" y="-96"/>
      <point x="133" y="-90" type="curve" smooth="yes"/>
      <point x="171" y="-80"/>
      <point x="224" y="-80"/>
      <point x="224" y="-9" type="curve"/>
      <point x="193" y="-9"/>
      <point x="178" y="17"/>
      <point x="178" y="59" type="curve" smooth="yes"/>
      <point x="178" y="109"/>
      <point x="203" y="125"/>
      <point x="247" y="125" type="curve" smooth="yes"/>
      <point x="297" y="125"/>
      <point x="313" y="104"/>
    </contour>
  </outline>
</glyph>
<glyph name="hyphen" format="2">
  <advance width="500"/>
  <unicode hex="002D"/>
  <outline>
    <contour>
      <point x="52" y="300" type="curve" smooth="yes"/>
      <point x="52" y="326"/>
      <point x="65" y="348"/>
      <point x="94" y="348" type="curve" smooth="yes"/>
      <point x="146" y="348"/>
      <point x="234" y="346"/>
      <point x="246" y="346" type="curve" smooth="yes"/>
      <point x="279" y="346"/>
      <point x="379" y="349"/>
      <point x="411" y="347" type="curve" smooth="yes"/>
      <point x="434" y="346"/>
      <point x="448" y="328"/>
      <point x="448" y="299" type="curve" smooth="yes"/>
      <point x="448" y="268"/>
      <point x="431" y="251"/>
      <point x="396" y="250" type="curve" smooth="yes"/>
      <point x="349" y="249"/>
      <point x="275" y="250"/>
      <point x="238" y="249" type="curve" smooth="yes"/>
      <point x="207" y="249"/>
      <point x="108" y="248"/>
      <point x="90" y="251" type="curve" smooth="yes"/>
      <point x="62" y="255"/>
      <point x="52" y="274"/>
    </contour>
  </outline>
</glyph>
<glyph name="period" format="2">
  <advance width="500"/>
  <unicode hex="002E"/>
  <anchor x="250" y="55" name="center"/>
  <outline>
    <contour>
      <point x="320" y="55" type="curve" smooth="yes"/>
      <point x="320" y="-6"/>
      <point x="300" y="-15"/>
      <point x="250" y="-15" type="curve" smooth="yes"/>
      <point x="199" y="-15"/>
      <point x="180" y="-2"/>
      <point x="180" y="55" type="curve" smooth="yes"/>
      <point x="180" y="110"/>
      <point x="199" y="125"/>
      <point x="250" y="125" type="curve" smooth="yes"/>
      <point x="299" y="125"/>
      <point x="320" y="111"/>
    </contour>
  </outline>
</glyph>
<glyph name="slash" format="2">
  <advance width="500"/>
  <unicode hex="002F"/>
  <outline>
    <contour>
      <point x="440" y="648" type="curve" smooth="yes"/>
      <point x="462" y="636"/>
      <point x="468" y="621"/>
      <point x="458" y="600" type="curve" smooth="yes"/>
      <point x="405" y="494"/>
      <point x="399" y="484"/>
      <point x="299" y="299" type="curve" smooth="yes"/>
      <point x="201" y="119"/>
      <point x="212" y="135"/>
      <point x="138" y="-7" type="curve" smooth="yes"/>
      <point x="120" y="-41"/>
      <point x="107" y="-68"/>
      <point x="66" y="-48" type="curve" smooth="yes"/>
      <point x="29" y="-30"/>
      <point x="34" y="-3"/>
      <point x="50" y="25" type="curve" smooth="yes"/>
      <point x="53" y="30"/>
      <point x="102" y="126"/>
      <point x="203" y="312" type="curve" smooth="yes"/>
      <point x="324" y="534"/>
      <point x="335" y="558"/>
      <point x="369" y="626" type="curve" smooth="yes"/>
      <point x="388" y="664"/>
      <point x="409" y="664"/>
    </contour>
  </outline>
</glyph>
<glyph name="zero" format="2">
  <advance width="500"/>
  <unicode hex="0030"/>
  <anchor x="250" y="0" name="bottom"/>
  <anchor x="250" y="600" name="top"/>
  <outline>
    <contour>
      <point x="250" y="615" type="curve" smooth="yes"/>
      <point x="340" y="615"/>
      <point x="379" y="583"/>
      <point x="411" y="511" type="curve" smooth="yes"/>
      <point x="433" y="464"/>
      <point x="449" y="400"/>
      <point x="449" y="301" type="curve" smooth="yes"/>
      <point x="449" y="207"/>
      <point x="442" y="138"/>
      <point x="419" y="90" type="curve" smooth="yes"/>
      <point x="383" y="14"/>
      <point x="334" y="-16"/>
      <point x="251" y="-16" type="curve" smooth="yes"/>
      <point x="174" y="-16"/>
      <point x="144" y="9"/>
      <point x="104" y="58" type="curve" smooth="yes"/>
      <point x="64" y="107"/>
      <point x="51" y="190"/>
      <point x="51" y="301" type="curve" smooth="yes"/>
      <point x="51" y="418"/>
      <point x="71" y="495"/>
      <point x="112" y="544" type="curve" smooth="yes"/>
      <point x="149" y="589"/>
      <point x="177" y="615"/>
    </contour>
    <contour>
      <point x="250" y="521" type="curve" smooth="yes"/>
      <point x="217" y="521"/>
      <point x="193" y="493"/>
      <point x="171" y="456" type="curve" smooth="yes"/>
      <point x="152" y="424"/>
      <point x="142" y="375"/>
      <point x="142" y="302" type="curve" smooth="yes"/>
      <point x="142" y="233"/>
      <point x="150" y="179"/>
      <point x="168" y="148" type="curve" smooth="yes"/>
      <point x="185" y="122"/>
      <point x="207" y="86"/>
      <point x="251" y="86" type="curve" smooth="yes"/>
      <point x="299" y="86"/>
      <point x="320" y="116"/>
      <point x="340" y="162" type="curve" smooth="yes"/>
      <point x="355" y="200"/>
      <point x="358" y="239"/>
      <point x="358" y="302" type="curve" smooth="yes"/>
      <point x="358" y="373"/>
      <point x="347" y="420"/>
      <point x="333" y="452" type="curve" smooth="yes"/>
      <point x="314" y="495"/>
      <point x="292" y="521"/>
    </contour>
    <contour>
      <point x="136" y="159" type="line"/>
      <point x="331" y="508" type="line"/>
      <point x="370" y="432" type="line"/>
      <point x="175" y="84" type="line"/>
    </contour>
  </outline>
</glyph>
<glyph name="one" format="2">
  <advance width="500"/>
  <unicode hex="0031"/>
  <anchor x="271" y="0" name="bottom"/>
  <anchor x="271" y="600" name="top"/>
  <outline>
    <contour>
      <point x="215" y="454" type="curve"/>
      <point x="189" y="433"/>
      <point x="187" y="431"/>
      <point x="168" y="416" type="curve" smooth="yes"/>
      <point x="143" y="397"/>
      <point x="140" y="392"/>
      <point x="127" y="384" type="curve" smooth="yes"/>
      <point x="100" y="366"/>
      <point x="84" y="388"/>
      <point x="76" y="396" type="curve" smooth="yes"/>
      <point x="49" y="423"/>
      <point x="54" y="439"/>
      <point x="88" y="468" type="curve" smooth="yes"/>
      <point x="128" y="501"/>
      <point x="131" y="504"/>
      <point x="140" y="512" type="curve" smooth="yes"/>
      <point x="165" y="534"/>
      <point x="217" y="576"/>
      <point x="236" y="598" type="curve" smooth="yes"/>
      <point x="252" y="615"/>
      <point x="289" y="613"/>
      <point x="301" y="597" type="curve" smooth="yes"/>
      <point x="310" y="585"/>
      <point x="307" y="554.980350197213"/>
      <point x="307" y="538" type="curve" smooth="yes"/>
      <point x="306" y="469"/>
      <point x="307" y="496"/>
      <point x="307" y="325" type="curve" smooth="yes"/>
      <point x="307" y="245"/>
      <point x="308" y="190"/>
      <point x="308" y="85" type="curve"/>
      <point x="214" y="86" type="line"/>
      <point x="214" y="117"/>
      <point x="214" y="265"/>
      <point x="215" y="304" type="curve" smooth="yes"/>
      <point x="215" y="254"/>
      <point x="215" y="404"/>
    </contour>
    <contour>
      <point x="61" y="38" type="curve" smooth="yes"/>
      <point x="61" y="78"/>
      <point x="79" y="95"/>
      <point x="107" y="98" type="curve" smooth="yes"/>
      <point x="129" y="100"/>
      <point x="188" y="98"/>
      <point x="228" y="100" type="curve" smooth="yes"/>
      <point x="265" y="102"/>
      <point x="352" y="100"/>
      <point x="400" y="99" type="curve" smooth="yes"/>
      <point x="432" y="98"/>
      <point x="449" y="76"/>
      <point x="449" y="41" type="curve" smooth="yes"/>
      <point x="449" y="22"/>
      <point x="437" y="1"/>
      <point x="410" y="0" type="curve" smooth="yes"/>
      <point x="356" y="-2"/>
      <point x="294" y="1"/>
      <point x="240" y="0" type="curve" smooth="yes"/>
      <point x="217" y="0"/>
      <point x="153" y="-2"/>
      <point x="101" y="0" type="curve" smooth="yes"/>
      <point x="69" y="1"/>
      <point x="61" y="19"/>
    </contour>
  </outline>
</glyph>
<glyph name="two" format="2">
  <advance width="500"/>
  <unicode hex="0032"/>
  <anchor x="250" y="0" name="bottom"/>
  <anchor x="250" y="600" name="top"/>
  <outline>
    <contour>
      <point x="52" y="38" type="curve" smooth="yes"/>
      <point x="52" y="132"/>
      <point x="189" y="234"/>
      <point x="236" y="280" type="curve" smooth="yes"/>
      <point x="303" y="346"/>
      <point x="356" y="393"/>
      <point x="342" y="458" type="curve" smooth="yes"/>
      <point x="335" y="491"/>
      <point x="318" y="515"/>
      <point x="245" y="515" type="curve" smooth="yes"/>
      <point x="205" y="515"/>
      <point x="145" y="487"/>
      <point x="119" y="461" type="curve" smooth="yes"/>
      <point x="103" y="445"/>
      <point x="78" y="450"/>
      <point x="67" y="461" type="curve" smooth="yes"/>
      <point x="36" y="492"/>
      <point x="49" y="516"/>
      <point x="70" y="537" type="curve" smooth="yes"/>
      <point x="101" y="568"/>
      <point x="164" y="611"/>
      <point x="242" y="611" type="curve" smooth="yes"/>
      <point x="331" y="611"/>
      <point x="435" y="568"/>
      <point x="441" y="458" type="curve" smooth="yes"/>
      <point x="447" y="346"/>
      <point x="382" y="283"/>
      <point x="335" y="237" type="curve" smooth="yes"/>
      <point x="259" y="165"/>
      <point x="215" y="137"/>
      <point x="193" y="99" type="curve"/>
      <point x="206.65945221093958" y="99"/>
      <point x="220.37513244836632" y="98.86459437069719"/>
      <point x="234" y="100" type="curve" smooth="yes"/>
      <point x="271" y="102"/>
      <point x="353" y="100"/>
      <point x="401" y="99" type="curve" smooth="yes"/>
      <point x="433" y="98"/>
      <point x="450" y="76"/>
      <point x="450" y="41" type="curve" smooth="yes"/>
      <point x="450" y="12"/>
      <point x="438" y="1"/>
      <point x="411" y="0" type="curve" smooth="yes"/>
      <point x="357" y="-2"/>
      <point x="285" y="1"/>
      <point x="231" y="0" type="curve" smooth="yes"/>
      <point x="208" y="0"/>
      <point x="144" y="-2"/>
      <point x="92" y="0" type="curve" smooth="yes"/>
      <point x="67.36070142109737" y="0.7699780805907072"/>
      <point x="52" y="13"/>
    </contour>
  </outline>
</glyph>
<glyph name="three" format="2">
  <advance width="500"/>
  <unicode hex="0033"/>
  <anchor x="250" y="0" name="bottom"/>
  <anchor x="250" y="600" name="top"/>
  <outline>
    <contour>
      <point x="316" y="271" type="curve"/>
      <point x="382" y="314" type="line"/>
      <point x="409" y="298"/>
      <point x="456" y="232"/>
      <point x="445" y="149" type="curve" smooth="yes"/>
      <point x="426" y="7"/>
      <point x="322" y="-15"/>
      <point x="212" y="-8" type="curve" smooth="yes"/>
      <point x="139" y="-3"/>
      <point x="112" y="6"/>
      <point x="56" y="58" type="curve" smooth="yes"/>
      <point x="43" y="71"/>
      <point x="7" y="93"/>
      <point x="44" y="134" type="curve" smooth="yes"/>
      <point x="72" y="165"/>
      <point x="95" y="153"/>
      <point x="112" y="134" type="curve" smooth="yes"/>
      <point x="139" y="106"/>
      <point x="184" y="84"/>
      <point x="236" y="84" type="curve" smooth="yes"/>
      <point x="314" y="85"/>
      <point x="341" y="102"/>
      <point x="355" y="161" type="curve" smooth="yes"/>
      <point x="370" y="222"/>
      <point x="327" y="254"/>
    </contour>
    <contour>
      <point x="279" y="250" type="curve" smooth="yes"/>
      <point x="258" y="244"/>
      <point x="225" y="244"/>
      <point x="212" y="287" type="curve" smooth="yes"/>
      <point x="203" y="316"/>
      <point x="230" y="335"/>
      <point x="244" y="339" type="curve" smooth="yes"/>
      <point x="343" y="368"/>
      <point x="364" y="410"/>
      <point x="354" y="458" type="curve" smooth="yes"/>
      <point x="347" y="501"/>
      <point x="309" y="516"/>
      <point x="246" y="516" type="curve" smooth="yes"/>
      <point x="206" y="516"/>
      <point x="146" y="492"/>
      <point x="120" y="466" type="curve" smooth="yes"/>
      <point x="104" y="450"/>
      <point x="89" y="445"/>
      <point x="68" y="466" type="curve" smooth="yes"/>
      <point x="37" y="497"/>
      <point x="60" y="526"/>
      <point x="71" y="537" type="curve" smooth="yes"/>
      <point x="102" y="568"/>
      <point x="165" y="611"/>
      <point x="243" y="611" type="curve" smooth="yes"/>
      <point x="332" y="611"/>
      <point x="436" y="570"/>
      <point x="442" y="460" type="curve" smooth="yes"/>
      <point x="451" y="355"/>
      <point x="407" y="282"/>
    </contour>
  </outline>
</glyph>
<glyph name="four" format="2">
  <advance width="500"/>
  <unicode hex="0034"/>
  <anchor x="271" y="0" name="bottom"/>
  <anchor x="271" y="600" name="top"/>
  <outline>
    <contour>
      <point x="365" y="610" type="line"/>
      <point x="371" y="610"/>
      <point x="396" y="602"/>
      <point x="396" y="569" type="curve" smooth="yes"/>
      <point x="395" y="469"/>
      <point x="396" y="496"/>
      <point x="396" y="325" type="curve" smooth="yes"/>
      <point x="396" y="245"/>
      <point x="397" y="134"/>
      <point x="397" y="54" type="curve" smooth="yes"/>
      <point x="397" y="16"/>
      <point x="400" y="-9"/>
      <point x="356" y="-9" type="curve" smooth="yes"/>
      <point x="299" y="-9"/>
      <point x="305" y="23"/>
      <point x="306" y="55" type="curve" smooth="yes"/>
      <point x="306" y="61"/>
      <point x="306" y="255"/>
      <point x="307" y="294" type="curve" smooth="yes"/>
      <point x="307" y="271"/>
      <point x="307" y="530"/>
      <point x="307" y="564" type="curve"/>
    </contour>
    <contour>
      <point x="36" y="248" type="curve" smooth="yes"/>
      <point x="36" y="268"/>
      <point x="54" y="290"/>
      <point x="82" y="293" type="curve" smooth="yes"/>
      <point x="104" y="295"/>
      <point x="178" y="293"/>
      <point x="218" y="295" type="curve" smooth="yes"/>
      <point x="255" y="297"/>
      <point x="367" y="295"/>
      <point x="415" y="294" type="curve" smooth="yes"/>
      <point x="447" y="293"/>
      <point x="464" y="276"/>
      <point x="464" y="251" type="curve" smooth="yes"/>
      <point x="464" y="222"/>
      <point x="452" y="201"/>
      <point x="425" y="200" type="curve" smooth="yes"/>
      <point x="371" y="198"/>
      <point x="269" y="201"/>
      <point x="215" y="200" type="curve" smooth="yes"/>
      <point x="192" y="200"/>
      <point x="128" y="198"/>
      <point x="76" y="200" type="curve" smooth="yes"/>
      <point x="44" y="201"/>
      <point x="36" y="229"/>
    </contour>
    <contour>
      <point x="127" y="247" type="curve"/>
      <point x="36" y="248" type="line"/>
      <point x="36" y="304"/>
      <point x="87" y="342"/>
      <point x="181" y="454" type="curve" smooth="yes"/>
      <point x="247" y="533"/>
      <point x="317" y="610"/>
      <point x="365" y="610" type="curve"/>
      <point x="366" y="514" type="line"/>
      <point x="302" y="468"/>
      <point x="273" y="431"/>
      <point x="238" y="390" type="curve" smooth="yes"/>
      <point x="197" y="343"/>
      <point x="147" y="301"/>
    </contour>
  </outline>
</glyph>
<glyph name="five" format="2">
  <advance width="500"/>
  <unicode hex="0035"/>
  <anchor x="250" y="0" name="bottom"/>
  <anchor x="250" y="600" name="top"/>
  <outline>
    <contour>
      <point x="63" y="574" type="curve" smooth="yes"/>
      <point x="63" y="593"/>
      <point x="81" y="601"/>
      <point x="113" y="602" type="curve" smooth="yes"/>
      <point x="165" y="604"/>
      <point x="219" y="602"/>
      <point x="242" y="602" type="curve" smooth="yes"/>
      <point x="296" y="601"/>
      <point x="334" y="604"/>
      <point x="388" y="602" type="curve" smooth="yes"/>
      <point x="415" y="601"/>
      <point x="427" y="595"/>
      <point x="427" y="556" type="curve" smooth="yes"/>
      <point x="427" y="531"/>
      <point x="410" y="514"/>
      <point x="378" y="513" type="curve" smooth="yes"/>
      <point x="330" y="512"/>
      <point x="282" y="510"/>
      <point x="245" y="512" type="curve" smooth="yes"/>
      <point x="205" y="514"/>
      <point x="156" y="512"/>
      <point x="134" y="514" type="curve" smooth="yes"/>
      <point x="106" y="517"/>
      <point x="63" y="554"/>
    </contour>
    <contour>
      <point x="364" y="189" type="curve" smooth="yes"/>
      <point x="364" y="265.7328641358274"/>
      <point x="328.0812302175507" y="316"/>
      <point x="247" y="316" type="curve" smooth="yes"/>
      <point x="203" y="316"/>
      <point x="153" y="285"/>
      <point x="108" y="284" type="curve"/>
      <point x="109" y="366" type="line"/>
      <point x="147" y="382"/>
      <point x="207" y="405"/>
      <point x="246" y="405" type="curve" smooth="yes"/>
      <point x="388.4956994948949" y="405"/>
      <point x="457" y="320.2270660795607"/>
      <point x="457" y="184" type="curve" smooth="yes"/>
      <point x="457" y="38"/>
      <point x="332" y="-8"/>
      <point x="222" y="-8" type="curve" smooth="yes"/>
      <point x="150" y="-8"/>
      <point x="87" y="31"/>
      <point x="37" y="96" type="curve" smooth="yes"/>
      <point x="26" y="111"/>
      <point x="21" y="137"/>
      <point x="44" y="156" type="curve" smooth="yes"/>
      <point x="73" y="180"/>
      <point x="94" y="161"/>
      <point x="112" y="143" type="curve" smooth="yes"/>
      <point x="140" y="115"/>
      <point x="194" y="92"/>
      <point x="230" y="92" type="curve" smooth="yes"/>
      <point x="317" y="92"/>
      <point x="364" y="143"/>
    </contour>
    <contour>
      <point x="63" y="574" type="curve"/>
      <point x="149" y="526" type="line"/>
      <point x="152" y="511"/>
      <point x="150" y="506"/>
      <point x="153" y="475" type="curve" smooth="yes"/>
      <point x="155" y="438"/>
      <point x="150" y="413"/>
      <point x="153" y="366" type="curve" smooth="yes"/>
      <point x="154" y="333"/>
      <point x="124" y="285"/>
      <point x="108" y="284" type="curve" smooth="yes"/>
      <point x="89" y="283"/>
      <point x="62" y="297"/>
      <point x="64" y="321" type="curve" smooth="yes"/>
      <point x="67" y="350"/>
      <point x="64" y="456"/>
      <point x="64" y="490" type="curve" smooth="yes"/>
      <point x="64" y="502"/>
      <point x="65" y="522"/>
    </contour>
  </outline>
</glyph>
<glyph name="six" format="2">
  <advance width="500"/>
  <unicode hex="0036"/>
  <anchor x="250" y="0" name="bottom"/>
  <anchor x="270" y="600" name="top"/>
  <outline>
    <contour>
      <point x="147" y="254" type="curve" smooth="yes"/>
      <point x="132" y="397"/>
      <point x="149" y="449"/>
      <point x="214" y="488" type="curve" smooth="yes"/>
      <point x="256" y="513"/>
      <point x="312" y="519"/>
      <point x="360" y="477" type="curve" smooth="yes"/>
      <point x="382" y="457"/>
      <point x="406" y="445"/>
      <point x="437" y="478" type="curve" smooth="yes"/>
      <point x="460" y="502"/>
      <point x="448" y="534"/>
      <point x="415" y="563" type="curve" smooth="yes"/>
      <point x="358" y="609"/>
      <point x="287" y="620"/>
      <point x="218" y="596" type="curve" smooth="yes"/>
      <point x="111" y="555"/>
      <point x="22" y="447"/>
      <point x="45" y="259" type="curve" smooth="yes"/>
      <point x="57" y="157"/>
      <point x="68" y="95"/>
      <point x="123" y="37" type="curve" smooth="yes"/>
      <point x="171" y="-13"/>
      <point x="218" y="-13"/>
      <point x="251" y="-13" type="curve" smooth="yes"/>
      <point x="378" y="-13"/>
      <point x="457" y="105"/>
      <point x="457" y="204" type="curve" smooth="yes"/>
      <point x="457" y="277"/>
      <point x="441" y="401"/>
      <point x="301" y="401" type="curve" smooth="yes"/>
      <point x="238" y="401"/>
      <point x="156" y="375"/>
      <point x="111" y="278" type="curve"/>
      <point x="144" y="159" type="line"/>
      <point x="171" y="289"/>
      <point x="236" y="307"/>
      <point x="276" y="307" type="curve" smooth="yes"/>
      <point x="354" y="307"/>
      <point x="362" y="280"/>
      <point x="362" y="207" type="curve" smooth="yes"/>
      <point x="362" y="136"/>
      <point x="307" y="85"/>
      <point x="251" y="85" type="curve" smooth="yes"/>
      <point x="151" y="85"/>
      <point x="155" y="179"/>
    </contour>
  </outline>
</glyph>
<glyph name="seven" format="2">
  <advance width="500"/>
  <unicode hex="0037"/>
  <anchor x="243" y="0" name="bottom"/>
  <anchor x="243" y="600" name="top"/>
  <outline>
    <contour>
      <point x="346" y="539" type="curve"/>
      <point x="450" y="566" type="line"/>
      <point x="445" y="498"/>
      <point x="384" y="375"/>
      <point x="334" y="285" type="curve" smooth="yes"/>
      <point x="285" y="197"/>
      <point x="259" y="120"/>
      <point x="251" y="37" type="curve" smooth="yes"/>
      <point x="247" y="12"/>
      <point x="228" y="-10"/>
      <point x="193" y="-10" type="curve" smooth="yes"/>
      <point x="135" y="-10"/>
      <point x="141" y="18"/>
      <point x="143" y="34" type="curve" smooth="yes"/>
      <point x="158" y="179"/>
      <point x="223" y="270"/>
      <point x="269" y="356" type="curve" smooth="yes"/>
      <point x="308" y="429"/>
      <point x="325" y="465"/>
    </contour>
    <contour>
      <point x="450" y="566" type="curve" smooth="yes"/>
      <point x="448" y="546"/>
      <point x="409" y="506"/>
      <point x="381" y="505" type="curve" smooth="yes"/>
      <point x="359" y="504"/>
      <point x="288" y="502"/>
      <point x="248" y="499" type="curve" smooth="yes"/>
      <point x="211" y="496"/>
      <point x="180" y="498"/>
      <point x="131" y="505" type="curve" smooth="yes"/>
      <point x="99" y="510"/>
      <point x="52" y="553"/>
      <point x="52" y="568" type="curve" smooth="yes"/>
      <point x="52" y="587"/>
      <point x="64" y="602"/>
      <point x="91" y="599" type="curve" smooth="yes"/>
      <point x="143" y="594"/>
      <point x="217" y="591"/>
      <point x="271" y="594" type="curve" smooth="yes"/>
      <point x="321" y="597"/>
      <point x="360" y="602"/>
      <point x="412" y="597" type="curve" smooth="yes"/>
      <point x="447" y="594"/>
      <point x="451" y="585"/>
    </contour>
    <contour>
      <point x="97" y="409" type="curve" smooth="yes"/>
      <point x="64" y="409"/>
      <point x="48" y="420"/>
      <point x="50" y="450" type="curve" smooth="yes"/>
      <point x="52" y="484"/>
      <point x="57" y="513"/>
      <point x="52" y="568" type="curve"/>
      <point x="142" y="522" type="line"/>
      <point x="139" y="475"/>
      <point x="144" y="479"/>
      <point x="138" y="447" type="curve" smooth="yes"/>
      <point x="134" y="423"/>
      <point x="115" y="409"/>
    </contour>
  </outline>
</glyph>
<glyph name="eight" format="2">
  <advance width="500"/>
  <unicode hex="0038"/>
  <anchor x="250" y="0" name="bottom"/>
  <anchor x="250" y="600" name="top"/>
  <outline>
    <contour>
      <point x="254" y="612" type="curve" smooth="yes"/>
      <point x="287" y="612"/>
      <point x="342" y="607"/>
      <point x="384" y="576" type="curve" smooth="yes"/>
      <point x="411" y="556"/>
      <point x="429" y="525"/>
      <point x="429" y="466" type="curve" smooth="yes"/>
      <point x="429" y="417"/>
      <point x="412" y="341"/>
      <point x="308" y="304" type="curve"/>
      <point x="265" y="375" type="line"/>
      <point x="332" y="375"/>
      <point x="346" y="426"/>
      <point x="346" y="461" type="curve" smooth="yes"/>
      <point x="346" y="506"/>
      <point x="308" y="529"/>
      <point x="261" y="529" type="curve" smooth="yes"/>
      <point x="196" y="529"/>
      <point x="169" y="496"/>
      <point x="169" y="452" type="curve" smooth="yes"/>
      <point x="169" y="406"/>
      <point x="192" y="375"/>
      <point x="265" y="375" type="curve" smooth="yes"/>
      <point x="332" y="375"/>
      <point x="369" y="355"/>
      <point x="407" y="326" type="curve" smooth="yes"/>
      <point x="452" y="292"/>
      <point x="460" y="241"/>
      <point x="460" y="189" type="curve" smooth="yes"/>
      <point x="460" y="129"/>
      <point x="445" y="84"/>
      <point x="415" y="51" type="curve" smooth="yes"/>
      <point x="381" y="13"/>
      <point x="322" y="-9"/>
      <point x="245" y="-9" type="curve" smooth="yes"/>
      <point x="162" y="-9"/>
      <point x="45" y="47"/>
      <point x="45" y="174" type="curve" smooth="yes"/>
      <point x="45" y="240"/>
      <point x="95" y="355"/>
      <point x="193" y="361" type="curve"/>
      <point x="274" y="285" type="line"/>
      <point x="151" y="285"/>
      <point x="132" y="218"/>
      <point x="132" y="169" type="curve" smooth="yes"/>
      <point x="132" y="147"/>
      <point x="144" y="129"/>
      <point x="162" y="116" type="curve" smooth="yes"/>
      <point x="187" y="96"/>
      <point x="223" y="87"/>
      <point x="247" y="87" type="curve" smooth="yes"/>
      <point x="305" y="87"/>
      <point x="335" y="100"/>
      <point x="347" y="113" type="curve" smooth="yes"/>
      <point x="367" y="135"/>
      <point x="376" y="155"/>
      <point x="376" y="185" type="curve" smooth="yes"/>
      <point x="376" y="243"/>
      <point x="328" y="285"/>
      <point x="274" y="285" type="curve" smooth="yes"/>
      <point x="172" y="285"/>
      <point x="84" y="349"/>
      <point x="84" y="454" type="curve" smooth="yes"/>
      <point x="84" y="563"/>
      <point x="167" y="612"/>
    </contour>
  </outline>
</glyph>
<glyph name="nine" format="2">
  <advance width="500"/>
  <unicode hex="0039"/>
  <anchor x="250" y="0" name="bottom"/>
  <anchor x="262" y="600" name="top"/>
  <outline>
    <contour>
      <point x="351" y="324" type="curve" smooth="yes"/>
      <point x="352" y="254"/>
      <point x="340" y="210"/>
      <point x="202" y="64" type="curve" smooth="yes"/>
      <point x="181" y="42"/>
      <point x="187" y="13"/>
      <point x="214" y="-4" type="curve" smooth="yes"/>
      <point x="246" y="-23"/>
      <point x="266" y="-11"/>
      <point x="297" y="20" type="curve" smooth="yes"/>
      <point x="397" y="123"/>
      <point x="441" y="219"/>
      <point x="441" y="329" type="curve" smooth="yes"/>
      <point x="441" y="432"/>
      <point x="426" y="497"/>
      <point x="391" y="555" type="curve" smooth="yes"/>
      <point x="378" y="577"/>
      <point x="354" y="601"/>
      <point x="290" y="609" type="curve" smooth="yes"/>
      <point x="184" y="623"/>
      <point x="85" y="569"/>
      <point x="52" y="426" type="curve" smooth="yes"/>
      <point x="36" y="355"/>
      <point x="65" y="224"/>
      <point x="206" y="215" type="curve" smooth="yes"/>
      <point x="241" y="213"/>
      <point x="374" y="213"/>
      <point x="401" y="346" type="curve"/>
      <point x="351" y="408" type="line"/>
      <point x="353" y="298"/>
      <point x="257" y="304"/>
      <point x="218" y="304" type="curve" smooth="yes"/>
      <point x="138" y="303"/>
      <point x="128" y="369"/>
      <point x="140" y="411" type="curve" smooth="yes"/>
      <point x="160" y="482"/>
      <point x="198" y="531"/>
      <point x="273" y="526" type="curve" smooth="yes"/>
      <point x="353" y="521"/>
      <point x="349" y="401"/>
    </contour>
  </outline>
</glyph>
<glyph name="less" format="2">
  <advance width="500"/>
  <unicode hex="003C"/>
  <outline>
    <contour>
      <point x="136" y="300" type="curve"/>
      <point x="165" y="294"/>
      <point x="183" y="280"/>
      <point x="198" y="268" type="curve" smooth="yes"/>
      <point x="236" y="242"/>
      <point x="277" y="212"/>
      <point x="290" y="202" type="curve" smooth="yes"/>
      <point x="317" y="180"/>
      <point x="420" y="107"/>
      <point x="458" y="78" type="curve" smooth="yes"/>
      <point x="484" y="57"/>
      <point x="462" y="37"/>
      <point x="448" y="19" type="curve" smooth="yes"/>
      <point x="438" y="6"/>
      <point x="417" y="-7"/>
      <point x="399" y="6" type="curve" smooth="yes"/>
      <point x="373" y="23"/>
      <point x="252" y="114"/>
      <point x="226" y="135" type="curve" smooth="yes"/>
      <point x="218" y="141"/>
      <point x="102" y="221"/>
      <point x="61" y="251" type="curve" smooth="yes"/>
      <point x="44" y="264"/>
      <point x="39" y="288"/>
      <point x="39" y="300" type="curve" smooth="yes"/>
      <point x="39" y="312"/>
      <point x="44" y="336"/>
      <point x="61" y="349" type="curve" smooth="yes"/>
      <point x="102" y="379"/>
      <point x="218" y="459"/>
      <point x="226" y="465" type="curve" smooth="yes"/>
      <point x="252" y="486"/>
      <point x="373" y="577"/>
      <point x="399" y="594" type="curve" smooth="yes"/>
      <point x="417" y="607"/>
      <point x="438" y="594"/>
      <point x="448" y="581" type="curve" smooth="yes"/>
      <point x="462" y="563"/>
      <point x="484" y="543"/>
      <point x="458" y="522" type="curve" smooth="yes"/>
      <point x="420" y="493"/>
      <point x="317" y="421"/>
      <point x="290" y="399" type="curve" smooth="yes"/>
      <point x="277" y="389"/>
      <point x="236" y="360"/>
      <point x="199" y="333" type="curve" smooth="yes"/>
      <point x="183" y="322"/>
      <point x="165" y="306"/>
    </contour>
  </outline>
</glyph>
<glyph name="equal" format="2">
  <advance width="500"/>
  <unicode hex="003D"/>
  <outline>
    <contour>
      <point x="32" y="400" type="curve" smooth="yes"/>
      <point x="32" y="436"/>
      <point x="45" y="449"/>
      <point x="74" y="449" type="curve" smooth="yes"/>
      <point x="126" y="449"/>
      <point x="234" y="447"/>
      <point x="246" y="447" type="curve" smooth="yes"/>
      <point x="279" y="447"/>
      <point x="399" y="450"/>
      <point x="431" y="448" type="curve" smooth="yes"/>
      <point x="454" y="447"/>
      <point x="468" y="439"/>
      <point x="468" y="400" type="curve" smooth="yes"/>
      <point x="468" y="359"/>
      <point x="451" y="352"/>
      <point x="416" y="351" type="curve" smooth="yes"/>
      <point x="369" y="350"/>
      <point x="275" y="351"/>
      <point x="238" y="350" type="curve" smooth="yes"/>
      <point x="207" y="350"/>
      <point x="88" y="349"/>
      <point x="70" y="352" type="curve" smooth="yes"/>
      <point x="42" y="356"/>
      <point x="32" y="364"/>
    </contour>
    <contour>
      <point x="32" y="200" type="curve" smooth="yes"/>
      <point x="32" y="236"/>
      <point x="45" y="250"/>
      <point x="74" y="250" type="curve" smooth="yes"/>
      <point x="126" y="250"/>
      <point x="234" y="248"/>
      <point x="246" y="248" type="curve" smooth="yes"/>
      <point x="279" y="248"/>
      <point x="399" y="251"/>
      <point x="431" y="249" type="curve" smooth="yes"/>
      <point x="454" y="248"/>
      <point x="468" y="239"/>
      <point x="468" y="200" type="curve" smooth="yes"/>
      <point x="468" y="159"/>
      <point x="451" y="153"/>
      <point x="416" y="152" type="curve" smooth="yes"/>
      <point x="369" y="151"/>
      <point x="275" y="152"/>
      <point x="238" y="151" type="curve" smooth="yes"/>
      <point x="207" y="151"/>
      <point x="88" y="150"/>
      <point x="70" y="153" type="curve" smooth="yes"/>
      <point x="42" y="157"/>
      <point x="32" y="164"/>
    </contour>
  </outline>
</glyph>
<glyph name="question" format="2">
  <advance width="500"/>
  <unicode hex="003F"/>
  <outline>
    <contour>
      <point x="196" y="341" type="curve" smooth="yes"/>
      <point x="214" y="353"/>
      <point x="258" y="353"/>
      <point x="274" y="356" type="curve" smooth="yes"/>
      <point x="315" y="363"/>
      <point x="353" y="381"/>
      <point x="357" y="443" type="curve" smooth="yes"/>
      <point x="362" y="513"/>
      <point x="322" y="522"/>
      <point x="262" y="525" type="curve" smooth="yes"/>
      <point x="192" y="529"/>
      <point x="165" y="513"/>
      <point x="151" y="505" type="curve" smooth="yes"/>
      <point x="137" y="497"/>
      <point x="129" y="483"/>
      <point x="110" y="478" type="curve" smooth="yes"/>
      <point x="98" y="475"/>
      <point x="79" y="483"/>
      <point x="68" y="500" type="curve" smooth="yes"/>
      <point x="49" y="529"/>
      <point x="72" y="553"/>
      <point x="105" y="577" type="curve" smooth="yes"/>
      <point x="128" y="595"/>
      <point x="182" y="616"/>
      <point x="267" y="612" type="curve" smooth="yes"/>
      <point x="402" y="605"/>
      <point x="454" y="532"/>
      <point x="450" y="438" type="curve" smooth="yes"/>
      <point x="447" y="360"/>
      <point x="397" y="307"/>
      <point x="363" y="290" type="curve" smooth="yes"/>
      <point x="331" y="274"/>
      <point x="310" y="271"/>
      <point x="286" y="268" type="curve"/>
      <point x="288" y="248"/>
      <point x="288" y="246"/>
      <point x="288" y="231" type="curve" smooth="yes"/>
      <point x="286" y="183"/>
      <point x="280" y="174"/>
      <point x="243" y="173" type="curve" smooth="yes"/>
      <point x="200" y="172"/>
      <point x="200" y="205"/>
      <point x="196" y="229" type="curve" smooth="yes"/>
      <point x="193" y="246"/>
      <point x="186" y="291"/>
      <point x="186" y="291" type="curve" smooth="yes"/>
      <point x="183" y="325"/>
      <point x="187" y="334"/>
    </contour>
    <component base="period"/>
  </outline>
</glyph>
<glyph name="at" format="2">
  <advance width="500"/>
  <unicode hex="0040"/>
  <outline>
    <contour>
      <point x="328" y="143" type="curve" smooth="yes"/>
      <point x="296" y="169"/>
      <point x="286" y="306"/>
      <point x="286" y="380" type="curve"/>
      <point x="213" y="381"/>
      <point x="215" y="314"/>
      <point x="216" y="269" type="curve" smooth="yes"/>
      <point x="216" y="232"/>
      <point x="230" y="208"/>
      <point x="257" y="208" type="curve" smooth="yes"/>
      <point x="283" y="208"/>
      <point x="291" y="242"/>
      <point x="291" y="296" type="curve"/>
      <point x="347" y="215" type="line"/>
      <point x="333" y="134"/>
      <point x="269" y="117"/>
      <point x="236" y="120" type="curve" smooth="yes"/>
      <point x="202" y="123"/>
      <point x="146" y="151"/>
      <point x="146" y="288" type="curve" smooth="yes"/>
      <point x="146" y="369"/>
      <point x="168" y="416"/>
      <point x="226" y="440" type="curve" smooth="yes"/>
      <point x="267" y="457"/>
      <point x="302" y="451"/>
      <point x="317" y="449" type="curve" smooth="yes"/>
      <point x="337" y="447"/>
      <point x="356" y="437"/>
      <point x="357" y="420" type="curve" smooth="yes"/>
      <point x="359" y="380"/>
      <point x="361" y="350"/>
      <point x="361" y="308" type="curve" smooth="yes"/>
      <point x="361" y="237"/>
      <point x="356" y="212"/>
      <point x="369" y="212" type="curve" smooth="yes"/>
      <point x="382" y="212"/>
      <point x="377" y="222"/>
      <point x="378" y="278" type="curve" smooth="yes"/>
      <point x="379" y="393"/>
      <point x="393" y="529"/>
      <point x="273" y="530" type="curve" smooth="yes"/>
      <point x="163" y="531"/>
      <point x="119" y="429"/>
      <point x="114" y="297" type="curve" smooth="yes"/>
      <point x="111" y="211"/>
      <point x="118" y="159"/>
      <point x="142" y="121" type="curve" smooth="yes"/>
      <point x="190" y="45"/>
      <point x="304" y="89"/>
      <point x="308" y="89" type="curve" smooth="yes"/>
      <point x="325" y="92"/>
      <point x="345" y="69"/>
      <point x="345" y="31" type="curve" smooth="yes"/>
      <point x="345" y="-7"/>
      <point x="327" y="-9"/>
      <point x="316" y="-11" type="curve" smooth="yes"/>
      <point x="259" y="-19"/>
      <point x="135" y="-23"/>
      <point x="77" y="64" type="curve" smooth="yes"/>
      <point x="42" y="117"/>
      <point x="40" y="180"/>
      <point x="40" y="291" type="curve" smooth="yes"/>
      <point x="39" y="453"/>
      <point x="76" y="518"/>
      <point x="120" y="564" type="curve" smooth="yes"/>
      <point x="160" y="606"/>
      <point x="206" y="619"/>
      <point x="279" y="616" type="curve" smooth="yes"/>
      <point x="369" y="612"/>
      <point x="406" y="569"/>
      <point x="434" y="496" type="curve" smooth="yes"/>
      <point x="452" y="447"/>
      <point x="458" y="369"/>
      <point x="453" y="271" type="curve" smooth="yes"/>
      <point x="449" y="203"/>
      <point x="449" y="135"/>
      <point x="403" y="125" type="curve" smooth="yes"/>
      <point x="383" y="121"/>
      <point x="353" y="121"/>
    </contour>
  </outline>
</glyph>
<glyph name="A" format="2">
  <advance width="500"/>
  <unicode hex="0041"/>
  <anchor x="269" y="600" name="top"/>
  <anchor x="97" y="-8" name="cedilla"/>
  <anchor x="402" y="-8" name="ogonek"/>
  <anchor x="250" y="0" name="bottom"/>
  <outline>
    <contour>
      <point x="97" y="-8" type="curve" smooth="yes"/>
      <point x="74" y="-8"/>
      <point x="47" y="6"/>
      <point x="47" y="49" type="curve" smooth="yes"/>
      <point x="49" y="302"/>
      <point x="93" y="436"/>
      <point x="141" y="515" type="curve" smooth="yes"/>
      <point x="180" y="582"/>
      <point x="221" y="609"/>
      <point x="267" y="609" type="curve" smooth="yes"/>
      <point x="319" y="608"/>
      <point x="355" y="588"/>
      <point x="380" y="542" type="curve" smooth="yes"/>
      <point x="414" y="480"/>
      <point x="431" y="386"/>
      <point x="447" y="204" type="curve" smooth="yes"/>
      <point x="455" y="132"/>
      <point x="457" y="70"/>
      <point x="457" y="42" type="curve" smooth="yes"/>
      <point x="457" y="15"/>
      <point x="429" y="-8"/>
      <point x="402" y="-8" type="curve" smooth="yes"/>
      <point x="385" y="-8"/>
      <point x="352" y="18"/>
      <point x="353" y="43" type="curve" smooth="yes"/>
      <point x="354" y="96"/>
      <point x="356" y="198"/>
      <point x="342" y="331" type="curve" smooth="yes"/>
      <point x="334" y="413"/>
      <point x="328" y="508"/>
      <point x="266" y="508" type="curve" smooth="yes"/>
      <point x="207" y="508"/>
      <point x="182" y="413"/>
      <point x="168" y="331" type="curve" smooth="yes"/>
      <point x="155" y="250"/>
      <point x="147" y="166"/>
      <point x="150" y="33" type="curve" smooth="yes"/>
      <point x="150" y="13"/>
      <point x="111" y="-8"/>
    </contour>
    <contour>
      <point x="391" y="321" type="curve"/>
      <point x="392" y="231" type="line"/>
      <point x="299" y="231"/>
      <point x="169" y="222"/>
      <point x="108" y="231" type="curve"/>
      <point x="117" y="322" type="line"/>
      <point x="203" y="314"/>
      <point x="309" y="321"/>
    </contour>
  </outline>
</glyph>
<glyph name="B" format="2">
  <advance width="500"/>
  <unicode hex="0042"/>
  <anchor x="221" y="600" name="top"/>
  <anchor x="201" y="-12" name="cedilla"/>
  <anchor x="201" y="-12" name="ogonek"/>
  <anchor x="221" y="0" name="bottom"/>
  <outline>
    <contour>
      <point x="81" y="54" type="curve" smooth="yes"/>
      <point x="43" y="137"/>
      <point x="70" y="432"/>
      <point x="74" y="497" type="curve" smooth="yes"/>
      <point x="81" y="598"/>
      <point x="137.32003081463768" y="608"/>
      <point x="222" y="608" type="curve" smooth="yes"/>
      <point x="371" y="608"/>
      <point x="439" y="532"/>
      <point x="439" y="468" type="curve" smooth="yes"/>
      <point x="439" y="399"/>
      <point x="385" y="358"/>
      <point x="335" y="332" type="curve" smooth="yes"/>
      <point x="307" y="319"/>
      <point x="252" y="269"/>
      <point x="199" y="269" type="curve" smooth="yes"/>
      <point x="183" y="269"/>
      <point x="147" y="269"/>
      <point x="144" y="269" type="curve"/>
      <point x="144" y="359" type="line"/>
      <point x="274" y="352"/>
      <point x="343" y="425"/>
      <point x="343" y="462" type="curve" smooth="yes"/>
      <point x="343" y="501"/>
      <point x="289" y="517"/>
      <point x="227" y="517" type="curve" smooth="yes"/>
      <point x="190" y="517"/>
      <point x="168" y="506"/>
      <point x="163" y="486" type="curve" smooth="yes"/>
      <point x="155" y="450"/>
      <point x="146" y="168"/>
      <point x="159" y="126" type="curve" smooth="yes"/>
      <point x="169" y="94"/>
      <point x="185.4123057895958" y="93"/>
      <point x="220" y="93" type="curve" smooth="yes"/>
      <point x="295" y="93"/>
      <point x="361" y="117"/>
      <point x="361" y="185" type="curve" smooth="yes"/>
      <point x="361" y="243"/>
      <point x="319" y="269"/>
      <point x="199" y="269" type="curve"/>
      <point x="332" y="346" type="line"/>
      <point x="427" y="328"/>
      <point x="464" y="248"/>
      <point x="464" y="181" type="curve" smooth="yes"/>
      <point x="464" y="22"/>
      <point x="308" y="-15"/>
      <point x="201" y="-12" type="curve" smooth="yes"/>
      <point x="139" y="-10"/>
      <point x="105.98530084050894" y="0.18550588198073825"/>
    </contour>
  </outline>
</glyph>
<glyph name="C" format="2">
  <advance width="500"/>
  <unicode hex="0043"/>
  <anchor x="266" y="600" name="top"/>
  <anchor x="266" y="-11" name="cedilla"/>
  <anchor x="266" y="-11" name="ogonek"/>
  <anchor x="250" y="0" name="bottom"/>
  <outline>
    <contour>
      <point x="417" y="394" type="curve" smooth="yes"/>
      <point x="384" y="394"/>
      <point x="367" y="407"/>
      <point x="365" y="426" type="curve" smooth="yes"/>
      <point x="361" y="471"/>
      <point x="322" y="518"/>
      <point x="266" y="518" type="curve" smooth="yes"/>
      <point x="203" y="518"/>
      <point x="147" y="458"/>
      <point x="147" y="290" type="curve" smooth="yes"/>
      <point x="147" y="129"/>
      <point x="226" y="96"/>
      <point x="258" y="96" type="curve" smooth="yes"/>
      <point x="322" y="96"/>
      <point x="355" y="136"/>
      <point x="360" y="169" type="curve" smooth="yes"/>
      <point x="364" y="192"/>
      <point x="380" y="202"/>
      <point x="423" y="202" type="curve" smooth="yes"/>
      <point x="466" y="202"/>
      <point x="462" y="158"/>
      <point x="459" y="125" type="curve" smooth="yes"/>
      <point x="456" y="75"/>
      <point x="385" y="-11"/>
      <point x="266" y="-11" type="curve" smooth="yes"/>
      <point x="129" y="-11"/>
      <point x="47" y="78"/>
      <point x="47" y="282" type="curve" smooth="yes"/>
      <point x="47" y="436"/>
      <point x="82" y="611"/>
      <point x="265" y="611" type="curve" smooth="yes"/>
      <point x="448" y="611"/>
      <point x="464" y="478"/>
      <point x="464" y="459" type="curve" smooth="yes"/>
      <point x="464" y="437"/>
      <point x="461" y="394"/>
    </contour>
  </outline>
</glyph>
<glyph name="D" format="2">
  <advance width="500"/>
  <unicode hex="0044"/>
  <anchor x="184" y="600" name="top"/>
  <anchor x="164" y="-8" name="cedilla"/>
  <anchor x="164" y="-8" name="ogonek"/>
  <anchor x="180" y="0" name="bottom"/>
  <outline>
    <contour>
      <point x="81" y="2" type="curve" smooth="yes"/>
      <point x="58" y="10"/>
      <point x="51" y="31"/>
      <point x="52" y="71" type="curve" smooth="yes"/>
      <point x="53" y="111"/>
      <point x="56" y="226"/>
      <point x="53" y="342" type="curve" smooth="yes"/>
      <point x="53" y="394"/>
      <point x="51" y="484"/>
      <point x="49" y="530" type="curve" smooth="yes"/>
      <point x="45" y="575"/>
      <point x="57" y="588"/>
      <point x="70" y="594" type="curve" smooth="yes"/>
      <point x="85" y="601"/>
      <point x="119" y="609"/>
      <point x="179" y="609" type="curve" smooth="yes"/>
      <point x="372" y="609"/>
      <point x="458" y="447"/>
      <point x="458" y="313" type="curve" smooth="yes"/>
      <point x="459" y="133"/>
      <point x="345" y="-9"/>
      <point x="164" y="-8" type="curve" smooth="yes"/>
      <point x="136" y="-8"/>
      <point x="107" y="-7"/>
    </contour>
    <contour>
      <point x="156" y="108" type="curve" smooth="yes"/>
      <point x="158" y="101"/>
      <point x="180" y="99"/>
      <point x="188" y="99" type="curve" smooth="yes"/>
      <point x="298" y="97"/>
      <point x="358" y="215"/>
      <point x="358" y="313" type="curve" smooth="yes"/>
      <point x="358" y="409"/>
      <point x="280" y="508"/>
      <point x="198" y="508" type="curve" smooth="yes"/>
      <point x="182.53137338524954" y="508"/>
      <point x="171" y="506"/>
      <point x="156" y="503" type="curve" smooth="yes"/>
      <point x="149" y="502"/>
      <point x="148" y="495"/>
      <point x="149" y="480" type="curve" smooth="yes"/>
      <point x="151" y="434"/>
      <point x="155" y="401"/>
      <point x="155" y="279" type="curve" smooth="yes"/>
      <point x="155" y="259.89815780880474"/>
      <point x="152" y="119"/>
    </contour>
  </outline>
</glyph>
<glyph name="E" format="2">
  <advance width="500"/>
  <unicode hex="0045"/>
  <anchor x="250" y="600" name="top"/>
  <anchor x="250" y="3" name="cedilla"/>
  <anchor x="398" y="2" name="ogonek"/>
  <anchor x="250" y="0" name="bottom"/>
  <outline>
    <contour>
      <point x="77" y="600" type="curve" smooth="yes"/>
      <point x="101" y="606"/>
      <point x="199" y="599"/>
      <point x="281" y="598" type="curve" smooth="yes"/>
      <point x="407" y="597"/>
      <point x="413" y="600"/>
      <point x="435" y="597" type="curve" smooth="yes"/>
      <point x="459" y="593"/>
      <point x="463" y="559"/>
      <point x="465" y="552" type="curve" smooth="yes"/>
      <point x="470" y="532"/>
      <point x="452" y="497"/>
      <point x="424" y="496" type="curve" smooth="yes"/>
      <point x="315" y="489"/>
      <point x="255" y="499"/>
      <point x="148" y="499" type="curve"/>
      <point x="148" y="364"/>
      <point x="148" y="239.6666666666667"/>
      <point x="148" y="105" type="curve"/>
      <point x="244.44226983872198" y="105"/>
      <point x="340.56859151509025" y="113.08125999454386"/>
      <point x="437" y="107" type="curve" smooth="yes"/>
      <point x="465" y="106"/>
      <point x="483" y="73"/>
      <point x="478" y="48" type="curve" smooth="yes"/>
      <point x="476" y="41"/>
      <point x="472" y="6"/>
      <point x="448" y="3" type="curve" smooth="yes"/>
      <point x="427" y="-1"/>
      <point x="414" y="3"/>
      <point x="288" y="3" type="curve" smooth="yes"/>
      <point x="220" y="3"/>
      <point x="151" y="-2"/>
      <point x="83" y="-2" type="curve" smooth="yes"/>
      <point x="57" y="-2"/>
      <point x="50" y="33"/>
      <point x="50" y="71" type="curve" smooth="yes"/>
      <point x="50" y="113"/>
      <point x="51" y="228"/>
      <point x="51" y="345" type="curve" smooth="yes"/>
      <point x="51" y="524"/>
      <point x="49" y="527"/>
      <point x="52" y="558" type="curve" smooth="yes"/>
      <point x="54.16167973003596" y="574.2125979752697"/>
      <point x="59" y="595"/>
    </contour>
    <contour>
      <point x="334" y="339" type="curve" smooth="yes"/>
      <point x="336" y="315"/>
      <point x="322" y="281"/>
      <point x="297" y="280" type="curve" smooth="yes"/>
      <point x="231" y="273"/>
      <point x="186" y="282"/>
      <point x="116" y="281" type="curve"/>
      <point x="116" y="379" type="line"/>
      <point x="121" y="385"/>
      <point x="144" y="378"/>
      <point x="192" y="378" type="curve" smooth="yes"/>
      <point x="270" y="378"/>
      <point x="292" y="377"/>
      <point x="304" y="376" type="curve" smooth="yes"/>
      <point x="328" y="372"/>
      <point x="333" y="345"/>
    </contour>
  </outline>
</glyph>
<glyph name="F" format="2">
  <advance width="500"/>
  <unicode hex="0046"/>
  <anchor x="250" y="600" name="top"/>
  <anchor x="104" y="-8" name="cedilla"/>
  <anchor x="104" y="-8" name="ogonek"/>
  <anchor x="250" y="0" name="bottom"/>
  <outline>
    <contour>
      <point x="79" y="599" type="curve" smooth="yes"/>
      <point x="117" y="604"/>
      <point x="201" y="598"/>
      <point x="284" y="599" type="curve" smooth="yes"/>
      <point x="410" y="601"/>
      <point x="412" y="601"/>
      <point x="434" y="597" type="curve" smooth="yes"/>
      <point x="458" y="594"/>
      <point x="462" y="559"/>
      <point x="464" y="552" type="curve" smooth="yes"/>
      <point x="469" y="532"/>
      <point x="451" y="497"/>
      <point x="423" y="496" type="curve" smooth="yes"/>
      <point x="314" y="489"/>
      <point x="259" y="493"/>
      <point x="151" y="493" type="curve"/>
      <point x="150" y="343"/>
      <point x="143.02688162427535" y="215.7174450552741"/>
      <point x="151" y="66" type="curve" smooth="yes"/>
      <point x="153" y="27"/>
      <point x="146" y="-8"/>
      <point x="104" y="-8" type="curve" smooth="yes"/>
      <point x="58" y="-8"/>
      <point x="51" y="27"/>
      <point x="51" y="65" type="curve" smooth="yes"/>
      <point x="51" y="107"/>
      <point x="52" y="228"/>
      <point x="52" y="346" type="curve" smooth="yes"/>
      <point x="52" y="524"/>
      <point x="50" y="526"/>
      <point x="53" y="557" type="curve" smooth="yes"/>
      <point x="54.95281451721526" y="573.5989233963297"/>
      <point x="60" y="596"/>
    </contour>
    <contour>
      <point x="388" y="303" type="curve" smooth="yes"/>
      <point x="388" y="288"/>
      <point x="371" y="251"/>
      <point x="342" y="250" type="curve" smooth="yes"/>
      <point x="277" y="244"/>
      <point x="199" y="247"/>
      <point x="129" y="246" type="curve"/>
      <point x="129" y="351" type="line"/>
      <point x="134" y="356"/>
      <point x="153" y="348"/>
      <point x="201" y="350" type="curve" smooth="yes"/>
      <point x="299" y="355"/>
      <point x="341" y="352"/>
      <point x="353" y="351" type="curve" smooth="yes"/>
      <point x="380" y="347"/>
      <point x="388" y="310"/>
    </contour>
  </outline>
</glyph>
<glyph name="G" format="2">
  <advance width="500"/>
  <unicode hex="0047"/>
  <anchor x="284" y="600" name="top"/>
  <anchor x="273" y="-6" name="cedilla"/>
  <anchor x="273" y="-6" name="ogonek"/>
  <anchor x="273" y="0" name="bottom"/>
  <outline>
    <contour>
      <point x="435" y="440" type="curve" smooth="yes"/>
      <point x="412" y="433"/>
      <point x="392" y="432"/>
      <point x="380" y="457" type="curve" smooth="yes"/>
      <point x="353" y="496"/>
      <point x="348" y="506"/>
      <point x="286" y="506" type="curve" smooth="yes"/>
      <point x="198" y="506"/>
      <point x="145" y="431"/>
      <point x="145" y="325" type="curve" smooth="yes"/>
      <point x="145" y="124"/>
      <point x="187" y="95"/>
      <point x="255" y="95" type="curve" smooth="yes"/>
      <point x="332" y="95"/>
      <point x="357" y="117"/>
      <point x="357" y="236" type="curve"/>
      <point x="320" y="239"/>
      <point x="287" y="237"/>
      <point x="277" y="237" type="curve" smooth="yes"/>
      <point x="251" y="238"/>
      <point x="243" y="268"/>
      <point x="243" y="285" type="curve" smooth="yes"/>
      <point x="243" y="322"/>
      <point x="257" y="336"/>
      <point x="282" y="338" type="curve" smooth="yes"/>
      <point x="308" y="340"/>
      <point x="362" y="335"/>
      <point x="424" y="336" type="curve" smooth="yes"/>
      <point x="452" y="336"/>
      <point x="457" y="316"/>
      <point x="457" y="274" type="curve" smooth="yes"/>
      <point x="457" y="100"/>
      <point x="424" y="-6"/>
      <point x="273" y="-6" type="curve" smooth="yes"/>
      <point x="119" y="-6"/>
      <point x="43" y="73"/>
      <point x="43" y="316" type="curve" smooth="yes"/>
      <point x="43" y="504"/>
      <point x="173" y="608"/>
      <point x="286" y="608" type="curve" smooth="yes"/>
      <point x="416" y="608"/>
      <point x="445" y="524"/>
      <point x="452" y="508" type="curve" smooth="yes"/>
      <point x="461" y="482"/>
      <point x="461" y="447"/>
    </contour>
  </outline>
</glyph>
<glyph name="H" format="2">
  <advance width="500"/>
  <unicode hex="0048"/>
  <anchor x="250" y="600" name="top"/>
  <anchor x="95" y="-7" name="cedilla"/>
  <anchor x="405" y="-7" name="ogonek"/>
  <anchor x="250" y="0" name="bottom"/>
  <outline>
    <contour>
      <point x="124" y="249" type="curve"/>
      <point x="123" y="342" type="line"/>
      <point x="218" y="341"/>
      <point x="296" y="352"/>
      <point x="382" y="342" type="curve"/>
      <point x="376" y="251" type="line"/>
      <point x="293" y="262"/>
      <point x="220" y="249"/>
    </contour>
    <contour>
      <point x="95" y="605" type="curve" smooth="yes"/>
      <point x="135" y="606"/>
      <point x="151" y="580"/>
      <point x="150" y="558" type="curve" smooth="yes"/>
      <point x="150" y="541"/>
      <point x="152" y="408"/>
      <point x="151" y="276" type="curve" smooth="yes"/>
      <point x="151" y="222"/>
      <point x="149" y="130"/>
      <point x="149" y="76" type="curve" smooth="yes"/>
      <point x="149" y="29"/>
      <point x="148" y="-7"/>
      <point x="95" y="-7" type="curve" smooth="yes"/>
      <point x="61" y="-7"/>
      <point x="44" y="29"/>
      <point x="48" y="70" type="curve" smooth="yes"/>
      <point x="51" y="111"/>
      <point x="47" y="229"/>
      <point x="49" y="346" type="curve" smooth="yes"/>
      <point x="53" y="514"/>
      <point x="47" y="532"/>
      <point x="50" y="563" type="curve" smooth="yes"/>
      <point x="54" y="596"/>
      <point x="72" y="604"/>
    </contour>
    <contour>
      <point x="405" y="605" type="curve" smooth="yes"/>
      <point x="430" y="605"/>
      <point x="446" y="596"/>
      <point x="450" y="563" type="curve" smooth="yes"/>
      <point x="453" y="532"/>
      <point x="454" y="525"/>
      <point x="451" y="346" type="curve" smooth="yes"/>
      <point x="449" y="221"/>
      <point x="449" y="111"/>
      <point x="452" y="70" type="curve" smooth="yes"/>
      <point x="456" y="29"/>
      <point x="444" y="-7"/>
      <point x="405" y="-7" type="curve" smooth="yes"/>
      <point x="348" y="-7"/>
      <point x="350" y="29"/>
      <point x="351" y="76" type="curve" smooth="yes"/>
      <point x="351" y="82"/>
      <point x="348" y="222"/>
      <point x="349" y="276" type="curve" smooth="yes"/>
      <point x="352" y="395"/>
      <point x="350" y="541"/>
      <point x="350" y="558" type="curve" smooth="yes"/>
      <point x="349" y="580"/>
      <point x="369" y="605"/>
    </contour>
  </outline>
</glyph>
<glyph name="I" format="2">
  <advance width="500"/>
  <unicode hex="0049"/>
  <anchor x="250" y="600" name="top"/>
  <anchor x="250" y="0" name="cedilla"/>
  <anchor x="250" y="0" name="ogonek"/>
  <anchor x="250" y="0" name="bottom"/>
  <outline>
    <contour>
      <point x="299" y="526" type="line"/>
      <point x="297" y="456"/>
      <point x="299" y="483"/>
      <point x="299" y="312" type="curve" smooth="yes"/>
      <point x="299" y="232"/>
      <point x="300" y="152"/>
      <point x="300" y="82" type="curve"/>
      <point x="198" y="83" type="line"/>
      <point x="198" y="79"/>
      <point x="198" y="252"/>
      <point x="199" y="291" type="curve" smooth="yes"/>
      <point x="199" y="268"/>
      <point x="199" y="517"/>
      <point x="199" y="521" type="curve"/>
    </contour>
    <contour>
      <point x="76" y="555" type="curve" smooth="yes"/>
      <point x="76" y="576"/>
      <point x="86" y="598"/>
      <point x="116" y="600" type="curve" smooth="yes"/>
      <point x="168" y="601"/>
      <point x="212" y="600"/>
      <point x="235" y="600" type="curve" smooth="yes"/>
      <point x="289" y="598"/>
      <point x="331" y="603"/>
      <point x="385" y="600" type="curve" smooth="yes"/>
      <point x="409" y="598"/>
      <point x="424" y="581"/>
      <point x="424" y="552" type="curve" smooth="yes"/>
      <point x="424" y="528"/>
      <point x="407" y="502"/>
      <point x="375" y="502" type="curve" smooth="yes"/>
      <point x="327" y="502"/>
      <point x="275" y="505"/>
      <point x="238" y="502" type="curve" smooth="yes"/>
      <point x="198" y="499"/>
      <point x="134" y="500"/>
      <point x="116" y="505" type="curve" smooth="yes"/>
      <point x="83" y="508"/>
      <point x="76" y="528"/>
    </contour>
    <contour>
      <point x="76" y="44" type="curve" smooth="yes"/>
      <point x="76" y="75"/>
      <point x="94" y="93"/>
      <point x="122" y="98" type="curve" smooth="yes"/>
      <point x="144" y="101"/>
      <point x="198" y="98"/>
      <point x="238" y="101" type="curve" smooth="yes"/>
      <point x="275" y="105"/>
      <point x="327" y="101"/>
      <point x="375" y="100" type="curve" smooth="yes"/>
      <point x="407" y="98"/>
      <point x="424" y="71"/>
      <point x="424" y="49" type="curve" smooth="yes"/>
      <point x="424" y="19"/>
      <point x="412" y="2"/>
      <point x="385" y="1" type="curve" smooth="yes"/>
      <point x="331" y="-3"/>
      <point x="289" y="2"/>
      <point x="235" y="1" type="curve" smooth="yes"/>
      <point x="212" y="1"/>
      <point x="168" y="-3"/>
      <point x="116" y="1" type="curve" smooth="yes"/>
      <point x="84" y="2"/>
      <point x="76" y="15"/>
    </contour>
  </outline>
</glyph>
<glyph name="J" format="2">
  <advance width="500"/>
  <unicode hex="004A"/>
  <anchor x="317" y="600" name="top"/>
  <anchor x="243" y="-11" name="cedilla"/>
  <anchor x="243" y="-11" name="ogonek"/>
  <anchor x="245" y="0" name="bottom"/>
  <outline>
    <contour>
      <point x="195" y="557" type="curve" smooth="yes"/>
      <point x="196" y="578"/>
      <point x="206" y="599"/>
      <point x="236" y="599" type="curve" smooth="yes"/>
      <point x="245" y="599"/>
      <point x="289" y="599"/>
      <point x="301" y="598" type="curve" smooth="yes"/>
      <point x="333" y="595"/>
      <point x="356" y="602"/>
      <point x="385" y="599" type="curve" smooth="yes"/>
      <point x="433" y="595"/>
      <point x="451" y="581"/>
      <point x="449" y="549" type="curve" smooth="yes"/>
      <point x="444" y="450"/>
      <point x="442" y="388"/>
      <point x="447" y="254" type="curve" smooth="yes"/>
      <point x="451" y="146"/>
      <point x="384" y="-11"/>
      <point x="243" y="-11" type="curve" smooth="yes"/>
      <point x="153" y="-11"/>
      <point x="89" y="19"/>
      <point x="57" y="93" type="curve" smooth="yes"/>
      <point x="32" y="149"/>
      <point x="30" y="187"/>
      <point x="68" y="201" type="curve" smooth="yes"/>
      <point x="103" y="214"/>
      <point x="115" y="200"/>
      <point x="148" y="129" type="curve" smooth="yes"/>
      <point x="162" y="99"/>
      <point x="188" y="91"/>
      <point x="243" y="91" type="curve" smooth="yes"/>
      <point x="298" y="91"/>
      <point x="329" y="132"/>
      <point x="343" y="191" type="curve" smooth="yes"/>
      <point x="355" y="241"/>
      <point x="352" y="314"/>
      <point x="350" y="350" type="curve" smooth="yes"/>
      <point x="349" y="376"/>
      <point x="347" y="431"/>
      <point x="352" y="499" type="curve"/>
      <point x="330" y="498"/>
      <point x="287" y="498"/>
      <point x="235" y="502" type="curve" smooth="yes"/>
      <point x="202" y="505"/>
      <point x="195" y="527"/>
    </contour>
  </outline>
</glyph>
<glyph name="K" format="2">
  <advance width="500"/>
  <unicode hex="004B"/>
  <anchor x="250" y="600" name="top"/>
  <anchor x="100" y="-7" name="cedilla"/>
  <anchor x="431" y="-2" name="ogonek"/>
  <anchor x="233" y="0" name="bottom"/>
  <outline>
    <contour>
      <point x="113" y="607" type="curve" smooth="yes"/>
      <point x="151" y="612"/>
      <point x="164" y="584"/>
      <point x="163" y="564" type="curve" smooth="yes"/>
      <point x="151" y="401"/>
      <point x="155" y="243"/>
      <point x="151" y="67" type="curve" smooth="yes"/>
      <point x="150" y="26"/>
      <point x="150" y="-9"/>
      <point x="100" y="-7" type="curve" smooth="yes"/>
      <point x="58" y="-5"/>
      <point x="50" y="30"/>
      <point x="54" y="68" type="curve" smooth="yes"/>
      <point x="59" y="131"/>
      <point x="59" y="238"/>
      <point x="59" y="345" type="curve" smooth="yes"/>
      <point x="59" y="430"/>
      <point x="59" y="516"/>
      <point x="69" y="566" type="curve" smooth="yes"/>
      <point x="75" y="596"/>
      <point x="92" y="604"/>
    </contour>
    <contour>
      <point x="438" y="593" type="curve" smooth="yes"/>
      <point x="466" y="569"/>
      <point x="468" y="541"/>
      <point x="449" y="522" type="curve" smooth="yes"/>
      <point x="343" y="410"/>
      <point x="323" y="395"/>
      <point x="278" y="354" type="curve" smooth="yes"/>
      <point x="255" y="334"/>
      <point x="232" y="316"/>
      <point x="123" y="220" type="curve"/>
      <point x="115" y="337" type="line"/>
      <point x="138" y="355"/>
      <point x="158" y="370"/>
      <point x="243" y="451" type="curve" smooth="yes"/>
      <point x="322" y="526"/>
      <point x="347" y="553"/>
      <point x="377" y="581" type="curve" smooth="yes"/>
      <point x="395" y="597"/>
      <point x="417" y="611"/>
    </contour>
    <contour>
      <point x="474" y="33" type="curve" smooth="yes"/>
      <point x="472" y="24"/>
      <point x="463" y="-2"/>
      <point x="431" y="-2" type="curve" smooth="yes"/>
      <point x="384" y="-2"/>
      <point x="371" y="7"/>
      <point x="344" y="35" type="curve" smooth="yes"/>
      <point x="328" y="50"/>
      <point x="303" y="87"/>
      <point x="264" y="149" type="curve" smooth="yes"/>
      <point x="249" y="173"/>
      <point x="238" y="193"/>
      <point x="167" y="303" type="curve"/>
      <point x="250" y="361" type="line"/>
      <point x="295" y="290"/>
      <point x="349" y="203"/>
      <point x="401" y="121" type="curve" smooth="yes"/>
      <point x="422" y="90"/>
      <point x="426" y="90"/>
      <point x="451" y="84" type="curve" smooth="yes"/>
      <point x="470" y="79"/>
      <point x="478" y="52"/>
    </contour>
  </outline>
</glyph>
<glyph name="L" format="2">
  <advance width="500"/>
  <unicode hex="004C"/>
  <anchor x="200" y="600" name="top"/>
  <anchor x="249" y="4" name="cedilla"/>
  <anchor x="314" y="4" name="ogonek"/>
  <anchor x="250" y="0" name="bottom"/>
  <outline>
    <contour>
      <point x="97" y="599" type="curve" smooth="yes"/>
      <point x="135" y="603"/>
      <point x="151" y="578"/>
      <point x="153" y="558" type="curve" smooth="yes"/>
      <point x="159" y="507"/>
      <point x="158" y="443"/>
      <point x="156" y="375" type="curve" smooth="yes"/>
      <point x="156" y="264"/>
      <point x="142" y="159"/>
      <point x="153" y="99" type="curve"/>
      <point x="203" y="105"/>
      <point x="218" y="104"/>
      <point x="248" y="104" type="curve" smooth="yes"/>
      <point x="303" y="104"/>
      <point x="347" y="104"/>
      <point x="420" y="98" type="curve" smooth="yes"/>
      <point x="448" y="96"/>
      <point x="466" y="75"/>
      <point x="461" y="39" type="curve" smooth="yes"/>
      <point x="459" y="28"/>
      <point x="455" y="6"/>
      <point x="431" y="1" type="curve" smooth="yes"/>
      <point x="420" y="-1"/>
      <point x="412" y="-2"/>
      <point x="390" y="-1" type="curve" smooth="yes"/>
      <point x="378" y="-1"/>
      <point x="372" y="4"/>
      <point x="249" y="4" type="curve" smooth="yes"/>
      <point x="167" y="4"/>
      <point x="148" y="-4"/>
      <point x="99" y="-4" type="curve" smooth="yes"/>
      <point x="58" y="-4"/>
      <point x="47" y="49"/>
      <point x="47" y="107" type="curve" smooth="yes"/>
      <point x="47" y="171"/>
      <point x="55" y="220"/>
      <point x="55" y="337" type="curve" smooth="yes"/>
      <point x="55" y="405"/>
      <point x="56" y="472"/>
      <point x="52" y="557" type="curve" smooth="yes"/>
      <point x="50" y="587"/>
      <point x="70" y="596"/>
    </contour>
  </outline>
</glyph>
<glyph name="M" format="2">
  <advance width="500"/>
  <unicode hex="004D"/>
  <anchor x="250" y="600" name="top"/>
  <anchor x="92" y="-6" name="cedilla"/>
  <anchor x="409" y="-6" name="ogonek"/>
  <anchor x="250" y="0" name="bottom"/>
  <outline>
    <contour>
      <point x="413" y="606" type="curve" smooth="yes"/>
      <point x="442" y="605"/>
      <point x="449" y="592"/>
      <point x="450" y="563" type="curve" smooth="yes"/>
      <point x="451" y="544"/>
      <point x="452" y="532"/>
      <point x="451" y="486" type="curve" smooth="yes"/>
      <point x="451" y="457"/>
      <point x="451" y="414"/>
      <point x="451" y="346" type="curve" smooth="yes"/>
      <point x="451" y="311"/>
      <point x="451" y="275"/>
      <point x="451" y="242" type="curve" smooth="yes"/>
      <point x="450" y="171"/>
      <point x="450" y="101"/>
      <point x="452" y="60" type="curve" smooth="yes"/>
      <point x="455" y="19"/>
      <point x="431" y="-3"/>
      <point x="409" y="-6" type="curve" smooth="yes"/>
      <point x="373" y="-11"/>
      <point x="353" y="21"/>
      <point x="355" y="68" type="curve" smooth="yes"/>
      <point x="355" y="78"/>
      <point x="355" y="176"/>
      <point x="354" y="250" type="curve" smooth="yes"/>
      <point x="353" y="303"/>
      <point x="351" y="324"/>
      <point x="358" y="376" type="curve"/>
      <point x="350" y="355"/>
      <point x="346" y="352"/>
      <point x="336" y="337" type="curve" smooth="yes"/>
      <point x="320" y="314"/>
      <point x="322" y="312"/>
      <point x="308" y="295" type="curve" smooth="yes"/>
      <point x="284" y="266"/>
      <point x="275" y="252"/>
      <point x="250" y="252" type="curve" smooth="yes"/>
      <point x="225" y="252"/>
      <point x="213" y="266"/>
      <point x="192" y="293" type="curve" smooth="yes"/>
      <point x="178" y="313"/>
      <point x="180" y="311"/>
      <point x="167" y="334" type="curve" smooth="yes"/>
      <point x="160" y="346"/>
      <point x="155" y="347"/>
      <point x="142" y="376" type="curve"/>
      <point x="149" y="315"/>
      <point x="148" y="332"/>
      <point x="147" y="276" type="curve" smooth="yes"/>
      <point x="146" y="222"/>
      <point x="144" y="122"/>
      <point x="146" y="67" type="curve" smooth="yes"/>
      <point x="147" y="20"/>
      <point x="127" y="-12"/>
      <point x="92" y="-6" type="curve" smooth="yes"/>
      <point x="68" y="-3"/>
      <point x="45" y="19"/>
      <point x="48" y="60" type="curve" smooth="yes"/>
      <point x="50" y="88"/>
      <point x="50" y="164"/>
      <point x="49" y="242" type="curve" smooth="yes"/>
      <point x="49" y="275"/>
      <point x="49" y="311"/>
      <point x="49" y="346" type="curve" smooth="yes"/>
      <point x="49" y="414"/>
      <point x="49" y="457"/>
      <point x="49" y="486" type="curve" smooth="yes"/>
      <point x="48" y="534"/>
      <point x="48" y="544"/>
      <point x="50" y="563" type="curve" smooth="yes"/>
      <point x="52" y="587"/>
      <point x="62" y="607"/>
      <point x="87" y="607" type="curve" smooth="yes"/>
      <point x="111" y="607"/>
      <point x="121" y="604"/>
      <point x="137" y="576" type="curve" smooth="yes"/>
      <point x="148" y="556"/>
      <point x="150" y="548"/>
      <point x="182" y="486" type="curve" smooth="yes"/>
      <point x="201" y="449"/>
      <point x="228" y="408"/>
      <point x="250" y="372" type="curve"/>
      <point x="263" y="396"/>
      <point x="296" y="437"/>
      <point x="320" y="486" type="curve" smooth="yes"/>
      <point x="350" y="548"/>
      <point x="355" y="564"/>
      <point x="368" y="583" type="curve" smooth="yes"/>
      <point x="379" y="599"/>
      <point x="391" y="606"/>
    </contour>
  </outline>
</glyph>
<glyph name="N" format="2">
  <advance width="500"/>
  <unicode hex="004E"/>
  <anchor x="250" y="600" name="top"/>
  <anchor x="91" y="-8" name="cedilla"/>
  <anchor x="397" y="-2" name="ogonek"/>
  <anchor x="250" y="0" name="bottom"/>
  <outline>
    <contour>
      <point x="406" y="607" type="curve" smooth="yes"/>
      <point x="417" y="607"/>
      <point x="450" y="600"/>
      <point x="450" y="559" type="curve" smooth="yes"/>
      <point x="447" y="408"/>
      <point x="450" y="502"/>
      <point x="450" y="297" type="curve" smooth="yes"/>
      <point x="450" y="256"/>
      <point x="447" y="168"/>
      <point x="452" y="39" type="curve" smooth="yes"/>
      <point x="453" y="11"/>
      <point x="434" y="-2"/>
      <point x="397" y="-2" type="curve" smooth="yes"/>
      <point x="350" y="-2"/>
      <point x="340" y="18"/>
      <point x="326" y="42" type="curve" smooth="yes"/>
      <point x="289" y="105"/>
      <point x="276" y="136"/>
      <point x="233" y="251" type="curve" smooth="yes"/>
      <point x="211" y="310"/>
      <point x="170" y="413"/>
      <point x="137" y="479" type="curve"/>
      <point x="154" y="432"/>
      <point x="155" y="205"/>
      <point x="147" y="71" type="curve" smooth="yes"/>
      <point x="145" y="28"/>
      <point x="142" y="-8"/>
      <point x="91" y="-8" type="curve" smooth="yes"/>
      <point x="57" y="-8"/>
      <point x="46" y="28"/>
      <point x="49" y="65" type="curve" smooth="yes"/>
      <point x="60" y="208"/>
      <point x="52" y="349"/>
      <point x="51" y="483" type="curve" smooth="yes"/>
      <point x="49" y="516"/>
      <point x="37" y="603"/>
      <point x="116" y="603" type="curve" smooth="yes"/>
      <point x="156" y="603"/>
      <point x="167" y="595"/>
      <point x="177" y="583" type="curve" smooth="yes"/>
      <point x="229" y="523"/>
      <point x="337" y="221"/>
      <point x="364" y="161" type="curve"/>
      <point x="355" y="187"/>
      <point x="349" y="313"/>
      <point x="349" y="336" type="curve" smooth="yes"/>
      <point x="348" y="401"/>
      <point x="352" y="449"/>
      <point x="352" y="554" type="curve" smooth="yes"/>
      <point x="352" y="584"/>
      <point x="361" y="607"/>
    </contour>
  </outline>
</glyph>
<glyph name="O" format="2">
  <advance width="500"/>
  <unicode hex="004F"/>
  <anchor x="250" y="600" name="top"/>
  <anchor x="250" y="-13" name="cedilla"/>
  <anchor x="250" y="-13" name="ogonek"/>
  <anchor x="250" y="0" name="bottom"/>
  <anchor x="370" y="535" name="horn"/>
  <outline>
    <contour>
      <point x="250" y="613" type="curve" smooth="yes"/>
      <point x="340" y="613"/>
      <point x="384" y="581"/>
      <point x="416" y="513" type="curve" smooth="yes"/>
      <point x="438" y="466"/>
      <point x="454" y="400"/>
      <point x="454" y="301" type="curve" smooth="yes"/>
      <point x="454" y="207"/>
      <point x="447" y="138"/>
      <point x="424" y="90" type="curve" smooth="yes"/>
      <point x="388" y="14"/>
      <point x="342" y="-13"/>
      <point x="250" y="-13" type="curve" smooth="yes"/>
      <point x="173" y="-13"/>
      <point x="139" y="9"/>
      <point x="99" y="58" type="curve" smooth="yes"/>
      <point x="59" y="107"/>
      <point x="46" y="190"/>
      <point x="46" y="301" type="curve" smooth="yes"/>
      <point x="46" y="418"/>
      <point x="73" y="492"/>
      <point x="107" y="546" type="curve" smooth="yes"/>
      <point x="135" y="591"/>
      <point x="177" y="613"/>
    </contour>
    <contour>
      <point x="250" y="518" type="curve" smooth="yes"/>
      <point x="210" y="518"/>
      <point x="190" y="501"/>
      <point x="177" y="465" type="curve" smooth="yes"/>
      <point x="165" y="430"/>
      <point x="152" y="380"/>
      <point x="152" y="302" type="curve" smooth="yes"/>
      <point x="152" y="228"/>
      <point x="159" y="173"/>
      <point x="175" y="139" type="curve" smooth="yes"/>
      <point x="190" y="112"/>
      <point x="205" y="90"/>
      <point x="250" y="90" type="curve" smooth="yes"/>
      <point x="299" y="90"/>
      <point x="315" y="107"/>
      <point x="333" y="156" type="curve" smooth="yes"/>
      <point x="346" y="194"/>
      <point x="348" y="236"/>
      <point x="348" y="302" type="curve" smooth="yes"/>
      <point x="348" y="377"/>
      <point x="338" y="426"/>
      <point x="326" y="460" type="curve" smooth="yes"/>
      <point x="312" y="500"/>
      <point x="294" y="518"/>
    </contour>
  </outline>
</glyph>
<glyph name="P" format="2">
  <advance width="500"/>
  <unicode hex="0050"/>
  <anchor x="220" y="600" name="top"/>
  <anchor x="91" y="-8" name="cedilla"/>
  <anchor x="91" y="-8" name="ogonek"/>
  <anchor x="210" y="0" name="bottom"/>
  <outline>
    <contour>
      <point x="50" y="561" type="curve" smooth="yes"/>
      <point x="52" y="579"/>
      <point x="72" y="608"/>
      <point x="197" y="614" type="curve" smooth="yes"/>
      <point x="239" y="616"/>
      <point x="274" y="611"/>
      <point x="313" y="601" type="curve" smooth="yes"/>
      <point x="415" y="576"/>
      <point x="454" y="514"/>
      <point x="455" y="429" type="curve" smooth="yes"/>
      <point x="456" y="339"/>
      <point x="417" y="278"/>
      <point x="352" y="252" type="curve" smooth="yes"/>
      <point x="319" y="236"/>
      <point x="273" y="221"/>
      <point x="175" y="231" type="curve" smooth="yes"/>
      <point x="148" y="233"/>
      <point x="127" y="238"/>
      <point x="139" y="236" type="curve"/>
      <point x="145" y="337" type="line"/>
      <point x="150" y="336"/>
      <point x="153" y="335"/>
      <point x="158" y="335" type="curve" smooth="yes"/>
      <point x="256" y="324"/>
      <point x="303" y="337"/>
      <point x="326" y="356" type="curve" smooth="yes"/>
      <point x="352" y="377"/>
      <point x="355" y="405"/>
      <point x="355" y="426" type="curve" smooth="yes"/>
      <point x="354" y="476"/>
      <point x="326" y="497"/>
      <point x="282" y="509" type="curve" smooth="yes"/>
      <point x="260" y="514"/>
      <point x="235" y="517"/>
      <point x="209" y="516" type="curve" smooth="yes"/>
      <point x="192" y="515"/>
      <point x="169" y="512"/>
      <point x="148" y="502" type="curve"/>
      <point x="150" y="448"/>
      <point x="164" y="182"/>
      <point x="140" y="43" type="curve" smooth="yes"/>
      <point x="135" y="16"/>
      <point x="126" y="-8"/>
      <point x="91" y="-8" type="curve" smooth="yes"/>
      <point x="54" y="-9"/>
      <point x="42" y="21"/>
      <point x="51" y="56" type="curve" smooth="yes"/>
      <point x="58" y="111"/>
      <point x="57" y="316"/>
      <point x="54" y="440" type="curve" smooth="yes"/>
      <point x="53.28879016838957" y="479.1165407385739"/>
      <point x="45" y="522"/>
    </contour>
  </outline>
</glyph>
<glyph name="Q" format="2">
  <advance width="500"/>
  <unicode hex="0051"/>
  <anchor x="250" y="600" name="top"/>
  <anchor x="227" y="-1" name="cedilla"/>
  <anchor x="385" y="-34" name="ogonek"/>
  <anchor x="270" y="0" name="bottom"/>
  <outline>
    <contour>
      <point x="239" y="107" type="curve" smooth="yes"/>
      <point x="323" y="107"/>
      <point x="356" y="223"/>
      <point x="356" y="303" type="curve" smooth="yes"/>
      <point x="356" y="375"/>
      <point x="350" y="520"/>
      <point x="248" y="520" type="curve" smooth="yes"/>
      <point x="165" y="520"/>
      <point x="143" y="390"/>
      <point x="143" y="308" type="curve" smooth="yes"/>
      <point x="143" y="232"/>
      <point x="171" y="107"/>
    </contour>
    <contour>
      <point x="408" y="119" type="curve" smooth="yes"/>
      <point x="378" y="59"/>
      <point x="338" y="-1"/>
      <point x="227" y="-1" type="curve" smooth="yes"/>
      <point x="107" y="-1"/>
      <point x="51" y="143"/>
      <point x="52" y="308" type="curve" smooth="yes"/>
      <point x="52" y="443"/>
      <point x="83" y="612"/>
      <point x="248" y="612" type="curve" smooth="yes"/>
      <point x="326" y="612"/>
      <point x="359" y="584"/>
      <point x="390" y="547" type="curve" smooth="yes"/>
      <point x="429" y="499"/>
      <point x="445" y="420"/>
      <point x="445" y="301" type="curve" smooth="yes"/>
      <point x="445" y="234"/>
      <point x="429" y="166"/>
    </contour>
    <contour>
      <point x="227" y="298" type="curve" smooth="yes"/>
      <point x="260" y="321"/>
      <point x="280" y="309"/>
      <point x="301" y="281" type="curve" smooth="yes"/>
      <point x="314" y="263"/>
      <point x="353" y="194"/>
      <point x="376" y="160" type="curve" smooth="yes"/>
      <point x="397" y="130"/>
      <point x="438" y="65"/>
      <point x="462" y="25" type="curve" smooth="yes"/>
      <point x="477" y="-4"/>
      <point x="475" y="-25"/>
      <point x="450" y="-43" type="curve" smooth="yes"/>
      <point x="426" y="-60"/>
      <point x="399" y="-54"/>
      <point x="385" y="-34" type="curve" smooth="yes"/>
      <point x="355" y="12"/>
      <point x="319" y="69"/>
      <point x="291" y="115" type="curve" smooth="yes"/>
      <point x="279" y="133"/>
      <point x="245" y="182"/>
      <point x="216" y="227" type="curve" smooth="yes"/>
      <point x="201" y="250"/>
      <point x="206" y="283"/>
    </contour>
  </outline>
</glyph>
<glyph name="R" format="2">
  <advance width="500"/>
  <unicode hex="0052"/>
  <anchor x="220" y="600" name="top"/>
  <anchor x="96" y="-9" name="cedilla"/>
  <anchor x="387" y="-8" name="ogonek"/>
  <anchor x="240" y="0" name="bottom"/>
  <outline>
    <contour>
      <point x="61" y="565" type="curve" smooth="yes"/>
      <point x="68" y="602"/>
      <point x="102" y="607"/>
      <point x="211" y="607" type="curve" smooth="yes"/>
      <point x="392" y="607"/>
      <point x="433" y="523"/>
      <point x="433" y="431" type="curve" smooth="yes"/>
      <point x="433" y="351"/>
      <point x="395" y="292"/>
      <point x="335" y="270" type="curve" smooth="yes"/>
      <point x="295" y="255"/>
      <point x="234" y="235"/>
      <point x="194" y="235" type="curve" smooth="yes"/>
      <point x="176" y="235"/>
      <point x="147" y="235"/>
      <point x="143" y="235" type="curve"/>
      <point x="152" y="336" type="line"/>
      <point x="156" y="336"/>
      <point x="157" y="335"/>
      <point x="160" y="335" type="curve" smooth="yes"/>
      <point x="304" y="335"/>
      <point x="333" y="385"/>
      <point x="333" y="428" type="curve" smooth="yes"/>
      <point x="333" y="478"/>
      <point x="300" y="507"/>
      <point x="214" y="507" type="curve" smooth="yes"/>
      <point x="180" y="507"/>
      <point x="167" y="504"/>
      <point x="154" y="502" type="curve"/>
      <point x="165" y="423"/>
      <point x="150.2445065366661" y="110.54417723153314"/>
      <point x="143" y="42" type="curve" smooth="yes"/>
      <point x="140" y="15"/>
      <point x="132" y="-9"/>
      <point x="96" y="-9" type="curve" smooth="yes"/>
      <point x="57" y="-9"/>
      <point x="43" y="21"/>
      <point x="49" y="56" type="curve" smooth="yes"/>
      <point x="56" y="111"/>
      <point x="62" y="316"/>
      <point x="62" y="440" type="curve" smooth="yes"/>
      <point x="62" y="478.99295472856807"/>
      <point x="53.06052425104398" y="526.8905164050111"/>
    </contour>
    <contour>
      <point x="296" y="275" type="line"/>
      <point x="356" y="265"/>
      <point x="367" y="224"/>
      <point x="378" y="198" type="curve" smooth="yes"/>
      <point x="398" y="146"/>
      <point x="406" y="97"/>
      <point x="446" y="45" type="curve" smooth="yes"/>
      <point x="465" y="20"/>
      <point x="447" y="-3"/>
      <point x="428" y="-8" type="curve" smooth="yes"/>
      <point x="384" y="-19"/>
      <point x="348" y="7"/>
      <point x="339" y="24" type="curve" smooth="yes"/>
      <point x="317" y="69"/>
      <point x="301" y="161"/>
      <point x="266" y="201" type="curve" smooth="yes"/>
      <point x="242" y="229"/>
      <point x="193" y="229"/>
      <point x="143" y="235" type="curve"/>
    </contour>
  </outline>
</glyph>
<glyph name="S" format="2">
  <advance width="500"/>
  <unicode hex="0053"/>
  <anchor x="257" y="600" name="top"/>
  <anchor x="235" y="-9" name="cedilla"/>
  <anchor x="235" y="-9" name="ogonek"/>
  <anchor x="250" y="0" name="bottom"/>
  <outline>
    <contour>
      <point x="244" y="612" type="curve" smooth="yes"/>
      <point x="322" y="612"/>
      <point x="366" y="595"/>
      <point x="408" y="554" type="curve" smooth="yes"/>
      <point x="431" y="531"/>
      <point x="432" y="499"/>
      <point x="406" y="478" type="curve" smooth="yes"/>
      <point x="379" y="456"/>
      <point x="344" y="481"/>
      <point x="334" y="490" type="curve" smooth="yes"/>
      <point x="319" y="503"/>
      <point x="302" y="519"/>
      <point x="253" y="519" type="curve" smooth="yes"/>
      <point x="209" y="519"/>
      <point x="174" y="498"/>
      <point x="174" y="439" type="curve" smooth="yes"/>
      <point x="174" y="394"/>
      <point x="185" y="370"/>
      <point x="254" y="365" type="curve" smooth="yes"/>
      <point x="350" y="358"/>
      <point x="375" y="349"/>
      <point x="409" y="318" type="curve" smooth="yes"/>
      <point x="437" y="293"/>
      <point x="450" y="241"/>
      <point x="450" y="189" type="curve" smooth="yes"/>
      <point x="450" y="129"/>
      <point x="435" y="84"/>
      <point x="405" y="51" type="curve" smooth="yes"/>
      <point x="371" y="13"/>
      <point x="312" y="-9"/>
      <point x="235" y="-9" type="curve" smooth="yes"/>
      <point x="168" y="-9"/>
      <point x="109" y="13"/>
      <point x="71" y="46" type="curve" smooth="yes"/>
      <point x="49" y="65"/>
      <point x="38" y="100"/>
      <point x="69" y="126" type="curve" smooth="yes"/>
      <point x="102" y="153"/>
      <point x="146" y="125"/>
      <point x="158" y="117" type="curve" smooth="yes"/>
      <point x="193" y="92"/>
      <point x="221" y="92"/>
      <point x="242" y="92" type="curve" smooth="yes"/>
      <point x="284" y="92"/>
      <point x="314" y="100"/>
      <point x="330" y="117" type="curve" smooth="yes"/>
      <point x="345" y="133"/>
      <point x="350" y="154"/>
      <point x="350" y="176" type="curve" smooth="yes"/>
      <point x="350" y="193"/>
      <point x="346" y="231"/>
      <point x="333" y="243" type="curve" smooth="yes"/>
      <point x="319" y="256"/>
      <point x="274" y="263"/>
      <point x="239" y="266" type="curve" smooth="yes"/>
      <point x="126" y="275"/>
      <point x="73" y="324"/>
      <point x="74" y="439" type="curve" smooth="yes"/>
      <point x="75" y="567"/>
      <point x="157" y="612"/>
    </contour>
  </outline>
</glyph>
<glyph name="T" format="2">
  <advance width="500"/>
  <unicode hex="0054"/>
  <anchor x="250" y="600" name="top"/>
  <anchor x="250" y="-8" name="cedilla"/>
  <anchor x="250" y="-8" name="ogonek"/>
  <anchor x="250" y="0" name="bottom"/>
  <outline>
    <contour>
      <point x="299" y="516" type="line"/>
      <point x="299" y="489"/>
      <point x="299" y="521"/>
      <point x="299" y="343" type="curve" smooth="yes"/>
      <point x="299" y="213"/>
      <point x="300" y="88"/>
      <point x="300" y="72" type="curve" smooth="yes"/>
      <point x="300" y="17"/>
      <point x="300" y="-8"/>
      <point x="250" y="-8" type="curve" smooth="yes"/>
      <point x="202" y="-8"/>
      <point x="196" y="27"/>
      <point x="198" y="73" type="curve" smooth="yes"/>
      <point x="198" y="79"/>
      <point x="198" y="262"/>
      <point x="199" y="301" type="curve" smooth="yes"/>
      <point x="199" y="278"/>
      <point x="199" y="477"/>
      <point x="199" y="511" type="curve"/>
    </contour>
    <contour>
      <point x="22" y="555" type="curve" smooth="yes"/>
      <point x="22" y="575"/>
      <point x="35" y="600"/>
      <point x="62" y="600" type="curve" smooth="yes"/>
      <point x="136" y="600"/>
      <point x="143" y="595"/>
      <point x="176" y="598" type="curve" smooth="yes"/>
      <point x="228" y="600"/>
      <point x="308" y="603"/>
      <point x="346" y="600" type="curve" smooth="yes"/>
      <point x="392" y="595"/>
      <point x="419" y="600"/>
      <point x="435" y="600" type="curve" smooth="yes"/>
      <point x="465" y="600"/>
      <point x="478" y="584"/>
      <point x="478" y="554" type="curve" smooth="yes"/>
      <point x="478" y="525"/>
      <point x="463" y="502"/>
      <point x="436" y="501" type="curve" smooth="yes"/>
      <point x="444" y="502"/>
      <point x="391" y="495"/>
      <point x="309" y="502" type="curve" smooth="yes"/>
      <point x="307" y="502"/>
      <point x="269" y="505"/>
      <point x="233" y="502" type="curve" smooth="yes"/>
      <point x="146" y="496"/>
      <point x="87" y="501"/>
      <point x="62" y="505" type="curve" smooth="yes"/>
      <point x="32" y="508"/>
      <point x="23" y="528"/>
    </contour>
  </outline>
</glyph>
<glyph name="U" format="2">
  <advance width="500"/>
  <unicode hex="0055"/>
  <anchor x="250" y="600" name="top"/>
  <anchor x="250" y="-16" name="cedilla"/>
  <anchor x="250" y="-16" name="ogonek"/>
  <anchor x="250" y="0" name="bottom"/>
  <anchor x="397" y="533" name="horn"/>
  <outline>
    <contour>
      <point x="152" y="538" type="curve" smooth="yes"/>
      <point x="150" y="493"/>
      <point x="152" y="368"/>
      <point x="153" y="301" type="curve" smooth="yes"/>
      <point x="154" y="212"/>
      <point x="159" y="161"/>
      <point x="175" y="133" type="curve" smooth="yes"/>
      <point x="189" y="107"/>
      <point x="205" y="86"/>
      <point x="250" y="86" type="curve" smooth="yes"/>
      <point x="299" y="86"/>
      <point x="316" y="107"/>
      <point x="334" y="146" type="curve" smooth="yes"/>
      <point x="350" y="178"/>
      <point x="352" y="221"/>
      <point x="349" y="302" type="curve" smooth="yes"/>
      <point x="347" y="372"/>
      <point x="350" y="506"/>
      <point x="348" y="547" type="curve" smooth="yes"/>
      <point x="348" y="565"/>
      <point x="354" y="605"/>
      <point x="394" y="607" type="curve" smooth="yes"/>
      <point x="427" y="608"/>
      <point x="444" y="585"/>
      <point x="447" y="560" type="curve" smooth="yes"/>
      <point x="452" y="511"/>
      <point x="446" y="400"/>
      <point x="450" y="301" type="curve" smooth="yes"/>
      <point x="454" y="201"/>
      <point x="447" y="144"/>
      <point x="424" y="96" type="curve" smooth="yes"/>
      <point x="387" y="21"/>
      <point x="342" y="-16"/>
      <point x="250" y="-16" type="curve" smooth="yes"/>
      <point x="173" y="-16"/>
      <point x="139" y="14"/>
      <point x="99" y="63" type="curve" smooth="yes"/>
      <point x="59" y="112"/>
      <point x="48" y="190"/>
      <point x="50" y="301" type="curve" smooth="yes"/>
      <point x="52" y="421"/>
      <point x="48" y="523"/>
      <point x="50" y="567" type="curve" smooth="yes"/>
      <point x="51" y="588"/>
      <point x="65" y="609"/>
      <point x="104" y="608" type="curve" smooth="yes"/>
      <point x="146" y="606"/>
      <point x="153" y="564"/>
    </contour>
  </outline>
</glyph>
<glyph name="V" format="2">
  <advance width="500"/>
  <unicode hex="0056"/>
  <anchor x="250" y="600" name="top"/>
  <anchor x="250" y="0" name="cedilla"/>
  <anchor x="250" y="0" name="ogonek"/>
  <anchor x="250" y="0" name="bottom"/>
  <outline>
    <contour>
      <point x="80" y="611" type="curve" smooth="yes"/>
      <point x="110" y="615"/>
      <point x="120" y="607"/>
      <point x="130" y="576" type="curve" smooth="yes"/>
      <point x="161" y="482"/>
      <point x="172" y="450"/>
      <point x="203" y="334" type="curve" smooth="yes"/>
      <point x="219" y="272"/>
      <point x="217" y="277"/>
      <point x="227" y="235" type="curve" smooth="yes"/>
      <point x="235" y="202"/>
      <point x="246" y="170"/>
      <point x="248" y="133" type="curve"/>
      <point x="255" y="203"/>
      <point x="270" y="261"/>
      <point x="286" y="331" type="curve" smooth="yes"/>
      <point x="304" y="411"/>
      <point x="320" y="479"/>
      <point x="364" y="576" type="curve" smooth="yes"/>
      <point x="378" y="607"/>
      <point x="405" y="614"/>
      <point x="427" y="607" type="curve" smooth="yes"/>
      <point x="461" y="596"/>
      <point x="470" y="573"/>
      <point x="459" y="547" type="curve" smooth="yes"/>
      <point x="444" y="511"/>
      <point x="437" y="496"/>
      <point x="429" y="473" type="curve" smooth="yes"/>
      <point x="409" y="416"/>
      <point x="378" y="314"/>
      <point x="376" y="306" type="curve" smooth="yes"/>
      <point x="347" y="207"/>
      <point x="327" y="115"/>
      <point x="307" y="43" type="curve" smooth="yes"/>
      <point x="299" y="14"/>
      <point x="270" y="-9"/>
      <point x="250" y="-9" type="curve" smooth="yes"/>
      <point x="231" y="-9"/>
      <point x="206" y="11"/>
      <point x="194" y="43" type="curve" smooth="yes"/>
      <point x="192" y="49"/>
      <point x="127" y="247"/>
      <point x="112" y="300" type="curve" smooth="yes"/>
      <point x="95" y="362"/>
      <point x="85" y="393"/>
      <point x="61" y="475" type="curve" smooth="yes"/>
      <point x="50" y="512"/>
      <point x="41" y="543"/>
      <point x="38" y="553" type="curve" smooth="yes"/>
      <point x="31" y="573"/>
      <point x="41" y="605"/>
    </contour>
  </outline>
</glyph>
<glyph name="W" format="2">
  <advance width="500"/>
  <unicode hex="0057"/>
  <anchor x="250" y="600" name="top"/>
  <anchor x="156" y="-9" name="cedilla"/>
  <anchor x="345" y="-9" name="ogonek"/>
  <anchor x="250" y="0" name="bottom"/>
  <outline>
    <contour>
      <point x="93" y="608" type="curve" smooth="yes"/>
      <point x="120" y="608"/>
      <point x="134" y="573"/>
      <point x="134" y="553" type="curve" smooth="yes"/>
      <point x="136" y="488"/>
      <point x="135" y="435"/>
      <point x="137" y="320" type="curve" smooth="yes"/>
      <point x="137" y="286"/>
      <point x="139" y="206"/>
      <point x="168" y="145" type="curve"/>
      <point x="161" y="196"/>
      <point x="189" y="273"/>
      <point x="207" y="328" type="curve" smooth="yes"/>
      <point x="214" y="348"/>
      <point x="213" y="367"/>
      <point x="250" y="367" type="curve" smooth="yes"/>
      <point x="291" y="367"/>
      <point x="291" y="346"/>
      <point x="297" y="328" type="curve" smooth="yes"/>
      <point x="316" y="272"/>
      <point x="342" y="195"/>
      <point x="332" y="145" type="curve"/>
      <point x="362" y="205"/>
      <point x="365" y="284"/>
      <point x="365" y="322" type="curve" smooth="yes"/>
      <point x="365" y="403"/>
      <point x="362" y="499"/>
      <point x="364" y="558" type="curve" smooth="yes"/>
      <point x="367" y="578"/>
      <point x="376" y="611"/>
      <point x="409" y="609" type="curve" smooth="yes"/>
      <point x="438" y="608"/>
      <point x="457" y="592"/>
      <point x="453" y="550" type="curve" smooth="yes"/>
      <point x="452" y="520"/>
      <point x="449" y="349"/>
      <point x="450" y="297" type="curve" smooth="yes"/>
      <point x="452" y="171"/>
      <point x="408" y="77"/>
      <point x="394" y="40" type="curve" smooth="yes"/>
      <point x="382" y="10"/>
      <point x="364" y="-8"/>
      <point x="345" y="-9" type="curve" smooth="yes"/>
      <point x="302" y="-11"/>
      <point x="302" y="18"/>
      <point x="291" y="53" type="curve" smooth="yes"/>
      <point x="273" y="109"/>
      <point x="262" y="156"/>
      <point x="250" y="204" type="curve"/>
      <point x="238" y="156"/>
      <point x="227" y="109"/>
      <point x="209" y="53" type="curve" smooth="yes"/>
      <point x="198" y="19"/>
      <point x="197" y="-11"/>
      <point x="156" y="-9" type="curve" smooth="yes"/>
      <point x="137" y="-8"/>
      <point x="117" y="11"/>
      <point x="107" y="42" type="curve" smooth="yes"/>
      <point x="69" y="156"/>
      <point x="53" y="222"/>
      <point x="51" y="293" type="curve" smooth="yes"/>
      <point x="50" y="316"/>
      <point x="44" y="520"/>
      <point x="44" y="553" type="curve" smooth="yes"/>
      <point x="44" y="593"/>
      <point x="63" y="609"/>
    </contour>
  </outline>
</glyph>
<glyph name="X" format="2">
  <advance width="500"/>
  <unicode hex="0058"/>
  <anchor x="250" y="600" name="top"/>
  <anchor x="81" y="-9" name="cedilla"/>
  <anchor x="426" y="-6" name="ogonek"/>
  <anchor x="250" y="0" name="bottom"/>
  <outline>
    <contour>
      <point x="447" y="605" type="curve" smooth="yes"/>
      <point x="470" y="594"/>
      <point x="478" y="562"/>
      <point x="464" y="545" type="curve" smooth="yes"/>
      <point x="445" y="519"/>
      <point x="291" y="270"/>
      <point x="302" y="289" type="curve" smooth="yes"/>
      <point x="282" y="257"/>
      <point x="197" y="115"/>
      <point x="149" y="43" type="curve" smooth="yes"/>
      <point x="125" y="8"/>
      <point x="89" y="-24"/>
      <point x="60" y="-2" type="curve" smooth="yes"/>
      <point x="38" y="15"/>
      <point x="32" y="40"/>
      <point x="58" y="79" type="curve" smooth="yes"/>
      <point x="71" y="97"/>
      <point x="174" y="272"/>
      <point x="231" y="358" type="curve" smooth="yes"/>
      <point x="326" y="503"/>
      <point x="358" y="563"/>
      <point x="380" y="586" type="curve" smooth="yes"/>
      <point x="402" y="610"/>
      <point x="424" y="616"/>
    </contour>
    <contour>
      <point x="55" y="599" type="curve" smooth="yes"/>
      <point x="81" y="612"/>
      <point x="100" y="605"/>
      <point x="124" y="584" type="curve" smooth="yes"/>
      <point x="148" y="562"/>
      <point x="177" y="502"/>
      <point x="274" y="358" type="curve" smooth="yes"/>
      <point x="332" y="273"/>
      <point x="441" y="99"/>
      <point x="453" y="80" type="curve" smooth="yes"/>
      <point x="478" y="41"/>
      <point x="475" y="10"/>
      <point x="449" y="-1" type="curve" smooth="yes"/>
      <point x="410" y="-18"/>
      <point x="384" y="10"/>
      <point x="361" y="46" type="curve" smooth="yes"/>
      <point x="315" y="119"/>
      <point x="234" y="257"/>
      <point x="214" y="289" type="curve" smooth="yes"/>
      <point x="225" y="270"/>
      <point x="65" y="514"/>
      <point x="43" y="539" type="curve" smooth="yes"/>
      <point x="28" y="555"/>
      <point x="33" y="588"/>
    </contour>
  </outline>
</glyph>
<glyph name="Y" format="2">
  <advance width="500"/>
  <unicode hex="0059"/>
  <anchor x="250" y="600" name="top"/>
  <anchor x="250" y="-8" name="cedilla"/>
  <anchor x="250" y="-8" name="ogonek"/>
  <anchor x="250" y="0" name="bottom"/>
  <outline>
    <contour>
      <point x="199" y="311" type="curve"/>
      <point x="198" y="313"/>
      <point x="146" y="383"/>
      <point x="124" y="415" type="curve" smooth="yes"/>
      <point x="135" y="400"/>
      <point x="49" y="524"/>
      <point x="32" y="546" type="curve" smooth="yes"/>
      <point x="19" y="562"/>
      <point x="26" y="589"/>
      <point x="45" y="601" type="curve" smooth="yes"/>
      <point x="73" y="619"/>
      <point x="95" y="605"/>
      <point x="118" y="579" type="curve" smooth="yes"/>
      <point x="135" y="559"/>
      <point x="147" y="538"/>
      <point x="184" y="487" type="curve" smooth="yes"/>
      <point x="216" y="443"/>
      <point x="242" y="409"/>
      <point x="250" y="398" type="curve"/>
      <point x="271.3477150139059" y="427.110520473508"/>
      <point x="290.9977003003419" y="457.3303367549909"/>
      <point x="313" y="486" type="curve" smooth="yes"/>
      <point x="339" y="521"/>
      <point x="375" y="572"/>
      <point x="382" y="581" type="curve" smooth="yes"/>
      <point x="391" y="592"/>
      <point x="421" y="617"/>
      <point x="448" y="605" type="curve" smooth="yes"/>
      <point x="471" y="595"/>
      <point x="480" y="563"/>
      <point x="467" y="547" type="curve" smooth="yes"/>
      <point x="482" y="565"/>
      <point x="425" y="487"/>
      <point x="374" y="418" type="curve" smooth="yes"/>
      <point x="355" y="391"/>
      <point x="298" y="313"/>
      <point x="297" y="311" type="curve"/>
      <point x="297" y="223" type="line" smooth="yes"/>
      <point x="297" y="93"/>
      <point x="298" y="88"/>
      <point x="298" y="72" type="curve" smooth="yes"/>
      <point x="298" y="17"/>
      <point x="290" y="-7"/>
      <point x="251" y="-8" type="curve" smooth="yes"/>
      <point x="204" y="-9"/>
      <point x="198" y="27"/>
      <point x="200" y="73" type="curve" smooth="yes"/>
      <point x="200" y="76"/>
      <point x="200" y="142"/>
      <point x="201" y="181" type="curve" smooth="yes"/>
      <point x="201" y="137.66153876494664"/>
      <point x="199" y="267.66153876494667"/>
    </contour>
  </outline>
</glyph>
<glyph name="Z" format="2">
  <advance width="500"/>
  <unicode hex="005A"/>
  <anchor x="250" y="600" name="top"/>
  <anchor x="250" y="3" name="cedilla"/>
  <anchor x="349" y="3" name="ogonek"/>
  <anchor x="258" y="0" name="bottom"/>
  <outline>
    <contour>
      <point x="434" y="602" type="curve" smooth="yes"/>
      <point x="473" y="604"/>
      <point x="482" y="564"/>
      <point x="469" y="535" type="curve" smooth="yes"/>
      <point x="460" y="515"/>
      <point x="425" y="457"/>
      <point x="382" y="392" type="curve" smooth="yes"/>
      <point x="350" y="344"/>
      <point x="311" y="286"/>
      <point x="305" y="277" type="curve" smooth="yes"/>
      <point x="217" y="147"/>
      <point x="183" y="104"/>
      <point x="157" y="88" type="curve"/>
      <point x="168" y="96"/>
      <point x="235" y="97"/>
      <point x="264" y="97" type="curve" smooth="yes"/>
      <point x="358" y="98"/>
      <point x="406" y="96"/>
      <point x="430" y="93" type="curve" smooth="yes"/>
      <point x="460" y="90"/>
      <point x="478" y="52"/>
      <point x="478" y="38" type="curve" smooth="yes"/>
      <point x="478" y="12"/>
      <point x="469" y="-1"/>
      <point x="441" y="1" type="curve" smooth="yes"/>
      <point x="406" y="3"/>
      <point x="370" y="2"/>
      <point x="349" y="3" type="curve" smooth="yes"/>
      <point x="286" y="5"/>
      <point x="252" y="2"/>
      <point x="158" y="0" type="curve" smooth="yes"/>
      <point x="110" y="-1"/>
      <point x="85" y="-2"/>
      <point x="69" y="-2" type="curve" smooth="yes"/>
      <point x="52" y="-2"/>
      <point x="32" y="7"/>
      <point x="33" y="25" type="curve" smooth="yes"/>
      <point x="34" y="42"/>
      <point x="29" y="53"/>
      <point x="58" y="92" type="curve" smooth="yes"/>
      <point x="71" y="110"/>
      <point x="182" y="269"/>
      <point x="240" y="355" type="curve" smooth="yes"/>
      <point x="293" y="434"/>
      <point x="330" y="477"/>
      <point x="363" y="514" type="curve"/>
      <point x="346" y="503"/>
      <point x="316" y="506"/>
      <point x="293" y="506" type="curve" smooth="yes"/>
      <point x="237" y="506" type="line" smooth="yes"/>
      <point x="221" y="506"/>
      <point x="206" y="506"/>
      <point x="192" y="506" type="curve" smooth="yes"/>
      <point x="141" y="506"/>
      <point x="104" y="506"/>
      <point x="86" y="508" type="curve" smooth="yes"/>
      <point x="56" y="510"/>
      <point x="45" y="531"/>
      <point x="47" y="551" type="curve" smooth="yes"/>
      <point x="49" y="574"/>
      <point x="59" y="600"/>
      <point x="86" y="600" type="curve" smooth="yes"/>
      <point x="160" y="600"/>
      <point x="154" y="599"/>
      <point x="180" y="599" type="curve" smooth="yes"/>
      <point x="201" y="599"/>
      <point x="226" y="599"/>
      <point x="251" y="600" type="curve" smooth="yes"/>
      <point x="289" y="600"/>
      <point x="327" y="601"/>
      <point x="357" y="600" type="curve" smooth="yes"/>
      <point x="392" y="599"/>
      <point x="418" y="601"/>
    </contour>
  </outline>
</glyph>
<glyph name="bracketleft" format="2">
  <advance width="500"/>
  <unicode hex="005B"/>
  <outline>
    <contour>
      <point x="112" y="634" type="curve"/>
      <point x="207" y="641" type="line"/>
      <point x="208" y="523"/>
      <point x="210" y="521"/>
      <point x="207" y="311" type="curve" smooth="yes"/>
      <point x="205" y="106"/>
      <point x="207" y="145"/>
      <point x="208" y="-15" type="curve"/>
      <point x="112" y="-59" type="line"/>
      <point x="112" y="-54"/>
      <point x="112" y="-49"/>
      <point x="112" y="-44" type="curve" smooth="yes"/>
      <point x="112" y="-38"/>
      <point x="110" y="80"/>
      <point x="113" y="291" type="curve" smooth="yes"/>
      <point x="116" y="530"/>
      <point x="111" y="564"/>
    </contour>
    <contour>
      <point x="112" y="-59" type="curve" smooth="yes"/>
      <point x="111" y="-45"/>
      <point x="120" y="-9"/>
      <point x="152" y="-7" type="curve" smooth="yes"/>
      <point x="204" y="-4"/>
      <point x="228" y="-5"/>
      <point x="251" y="-5" type="curve" smooth="yes"/>
      <point x="305" y="-5"/>
      <point x="297" y="-1"/>
      <point x="351" y="-2" type="curve" smooth="yes"/>
      <point x="378" y="-2"/>
      <point x="390" y="-13"/>
      <point x="390" y="-52" type="curve" smooth="yes"/>
      <point x="390" y="-87"/>
      <point x="374" y="-94"/>
      <point x="342" y="-96" type="curve" smooth="yes"/>
      <point x="293" y="-98"/>
      <point x="255" y="-100"/>
      <point x="255" y="-100" type="curve" smooth="yes"/>
      <point x="215" y="-98"/>
      <point x="181" y="-102"/>
      <point x="159" y="-100" type="curve" smooth="yes"/>
      <point x="131" y="-98"/>
      <point x="113" y="-85"/>
    </contour>
    <contour>
      <point x="112" y="634" type="curve" smooth="yes"/>
      <point x="113" y="660"/>
      <point x="131" y="673"/>
      <point x="159" y="675" type="curve" smooth="yes"/>
      <point x="181" y="677"/>
      <point x="215" y="672"/>
      <point x="255" y="674" type="curve" smooth="yes"/>
      <point x="255" y="674"/>
      <point x="294" y="674"/>
      <point x="342" y="671" type="curve" smooth="yes"/>
      <point x="374" y="669"/>
      <point x="391" y="662"/>
      <point x="390" y="627" type="curve" smooth="yes"/>
      <point x="389" y="588"/>
      <point x="378" y="577"/>
      <point x="351" y="577" type="curve" smooth="yes"/>
      <point x="297" y="576"/>
      <point x="305" y="580"/>
      <point x="251" y="580" type="curve" smooth="yes"/>
      <point x="228" y="580"/>
      <point x="204" y="579"/>
      <point x="152" y="582" type="curve" smooth="yes"/>
      <point x="120" y="584"/>
      <point x="111" y="620"/>
    </contour>
  </outline>
</glyph>
<glyph name="underscore" format="2">
  <advance width="500"/>
  <unicode hex="005F"/>
  <outline>
    <contour>
      <point x="56" y="-49" type="curve" smooth="yes"/>
      <point x="56" y="-10"/>
      <point x="64" y="-2"/>
      <point x="96" y="-1" type="curve" smooth="yes"/>
      <point x="148" y="1"/>
      <point x="212" y="-1"/>
      <point x="235" y="-1" type="curve" smooth="yes"/>
      <point x="289" y="-2"/>
      <point x="351" y="1"/>
      <point x="405" y="-1" type="curve" smooth="yes"/>
      <point x="432" y="-2"/>
      <point x="444" y="-13"/>
      <point x="444" y="-52" type="curve" smooth="yes"/>
      <point x="444" y="-87"/>
      <point x="427" y="-99"/>
      <point x="395" y="-100" type="curve" smooth="yes"/>
      <point x="347" y="-101"/>
      <point x="275" y="-103"/>
      <point x="238" y="-101" type="curve" smooth="yes"/>
      <point x="198" y="-99"/>
      <point x="124" y="-101"/>
      <point x="102" y="-99" type="curve" smooth="yes"/>
      <point x="74" y="-96"/>
      <point x="56" y="-89"/>
    </contour>
  </outline>
</glyph>
<glyph name="grave" format="2">
  <advance width="500"/>
  <unicode hex="0060"/>
  <anchor x="250" y="600" name="top"/>
  <outline>
    <contour>
      <point x="349" y="433" type="curve" smooth="yes"/>
      <point x="329" y="411"/>
      <point x="309" y="420"/>
      <point x="285" y="438" type="curve" smooth="yes"/>
      <point x="256" y="459"/>
      <point x="214" y="489"/>
      <point x="167" y="536" type="curve" smooth="yes"/>
      <point x="158" y="546"/>
      <point x="152" y="566"/>
      <point x="175" y="591" type="curve" smooth="yes"/>
      <point x="202" y="620"/>
      <point x="224" y="610"/>
      <point x="242" y="592" type="curve" smooth="yes"/>
      <point x="282" y="552"/>
      <point x="331" y="506"/>
      <point x="351" y="481" type="curve" smooth="yes"/>
      <point x="367" y="462"/>
      <point x="371" y="457"/>
    </contour>
  </outline>
</glyph>
<glyph name="a" format="2">
  <advance width="500"/>
  <unicode hex="0061"/>
  <anchor x="233" y="400" name="top"/>
  <anchor x="189" y="-8" name="cedilla"/>
  <anchor x="400" y="-6" name="ogonek"/>
  <anchor x="251" y="0" name="bottom"/>
  <outline>
    <contour>
      <point x="278" y="244" type="curve" smooth="yes"/>
      <point x="318" y="237"/>
      <point x="339" y="226"/>
      <point x="342" y="227" type="curve"/>
      <point x="342" y="154" type="line"/>
      <point x="340" y="153"/>
      <point x="320" y="156"/>
      <point x="294" y="160" type="curve" smooth="yes"/>
      <point x="172" y="178"/>
      <point x="139" y="149"/>
      <point x="139" y="116" type="curve" smooth="yes"/>
      <point x="139" y="52"/>
      <point x="203" y="70"/>
      <point x="223" y="76" type="curve" smooth="yes"/>
      <point x="281" y="93"/>
      <point x="314" y="114"/>
      <point x="337" y="149" type="curve"/>
      <point x="357" y="59" type="line"/>
      <point x="318" y="28"/>
      <point x="290" y="13"/>
      <point x="256" y="2" type="curve" smooth="yes"/>
      <point x="203" y="-16"/>
      <point x="51" y="-24"/>
      <point x="51" y="101" type="curve" smooth="yes"/>
      <point x="51" y="229"/>
      <point x="192" y="260"/>
    </contour>
    <contour>
      <point x="415" y="238" type="curve" smooth="yes"/>
      <point x="415" y="190"/>
      <point x="412" y="119"/>
      <point x="441" y="65" type="curve" smooth="yes"/>
      <point x="457" y="35"/>
      <point x="466" y="12"/>
      <point x="437" y="-4" type="curve" smooth="yes"/>
      <point x="418" y="-14"/>
      <point x="385" y="-7"/>
      <point x="367" y="14" type="curve" smooth="yes"/>
      <point x="317" y="73"/>
      <point x="326" y="166"/>
      <point x="326" y="226" type="curve" smooth="yes"/>
      <point x="326" y="323"/>
      <point x="237" y="317"/>
      <point x="215" y="317" type="curve" smooth="yes"/>
      <point x="170" y="317"/>
      <point x="147" y="300"/>
      <point x="115" y="281" type="curve" smooth="yes"/>
      <point x="105" y="276"/>
      <point x="80" y="274"/>
      <point x="65" y="292" type="curve" smooth="yes"/>
      <point x="50" y="310"/>
      <point x="58" y="353"/>
      <point x="95" y="377" type="curve" smooth="yes"/>
      <point x="125" y="396"/>
      <point x="167" y="410"/>
      <point x="216" y="410" type="curve" smooth="yes"/>
      <point x="249" y="410"/>
      <point x="415" y="414"/>
    </contour>
  </outline>
</glyph>
<glyph name="b" format="2">
  <advance width="500"/>
  <unicode hex="0062"/>
  <anchor x="260" y="600" name="top"/>
  <anchor x="183" y="-12" name="cedilla"/>
  <anchor x="183" y="-12" name="ogonek"/>
  <anchor x="250" y="0" name="bottom"/>
  <outline>
    <contour>
      <point x="95" y="11" type="curve" smooth="yes"/>
      <point x="92" y="14"/>
      <point x="69" y="38"/>
      <point x="65" y="73" type="curve" smooth="yes"/>
      <point x="63" y="91"/>
      <point x="54" y="169"/>
      <point x="65" y="301" type="curve" smooth="yes"/>
      <point x="76" y="433"/>
      <point x="66" y="527"/>
      <point x="66" y="561" type="curve" smooth="yes"/>
      <point x="65" y="582"/>
      <point x="61" y="610"/>
      <point x="113" y="610" type="curve" smooth="yes"/>
      <point x="148" y="610"/>
      <point x="158" y="599"/>
      <point x="161" y="566" type="curve" smooth="yes"/>
      <point x="164" y="534"/>
      <point x="169" y="445"/>
      <point x="162" y="343" type="curve" smooth="yes"/>
      <point x="152" y="208"/>
      <point x="143" y="164"/>
      <point x="153" y="116" type="curve" smooth="yes"/>
      <point x="160" y="85"/>
      <point x="196.5988560509106" y="86"/>
      <point x="210" y="86" type="curve" smooth="yes"/>
      <point x="280" y="86"/>
      <point x="368" y="126"/>
      <point x="368" y="224" type="curve" smooth="yes"/>
      <point x="368" y="318"/>
      <point x="300" y="318"/>
      <point x="250" y="312" type="curve" smooth="yes"/>
      <point x="217" y="308"/>
      <point x="162" y="282"/>
      <point x="149" y="223" type="curve"/>
      <point x="143" y="360" type="line"/>
      <point x="178" y="396"/>
      <point x="244" y="413"/>
      <point x="272" y="413" type="curve" smooth="yes"/>
      <point x="342" y="414"/>
      <point x="464" y="397"/>
      <point x="464" y="232" type="curve" smooth="yes"/>
      <point x="464" y="60"/>
      <point x="349" y="-12"/>
      <point x="183" y="-12" type="curve" smooth="yes"/>
      <point x="157" y="-12"/>
      <point x="114" y="-8"/>
    </contour>
  </outline>
</glyph>
<glyph name="c" format="2">
  <advance width="500"/>
  <unicode hex="0063"/>
  <anchor x="250" y="400" name="top"/>
  <anchor x="261" y="-10" name="cedilla"/>
  <anchor x="261" y="-10" name="ogonek"/>
  <anchor x="250" y="0" name="bottom"/>
  <outline>
    <contour>
      <point x="373" y="150" type="curve" smooth="yes"/>
      <point x="383" y="163"/>
      <point x="406" y="160"/>
      <point x="420" y="150" type="curve" smooth="yes"/>
      <point x="435" y="139"/>
      <point x="446" y="119"/>
      <point x="432" y="95" type="curve" smooth="yes"/>
      <point x="392" y="25"/>
      <point x="321" y="-10"/>
      <point x="261" y="-10" type="curve" smooth="yes"/>
      <point x="151" y="-10"/>
      <point x="61" y="53"/>
      <point x="61" y="200" type="curve" smooth="yes"/>
      <point x="61" y="363"/>
      <point x="151" y="410"/>
      <point x="261" y="410" type="curve" smooth="yes"/>
      <point x="333" y="410"/>
      <point x="376" y="389"/>
      <point x="426" y="324" type="curve" smooth="yes"/>
      <point x="437" y="309"/>
      <point x="431" y="286"/>
      <point x="418" y="276" type="curve" smooth="yes"/>
      <point x="398" y="260"/>
      <point x="370" y="266"/>
      <point x="352" y="284" type="curve" smooth="yes"/>
      <point x="324" y="312"/>
      <point x="298" y="317"/>
      <point x="262" y="317" type="curve" smooth="yes"/>
      <point x="191" y="317"/>
      <point x="156" y="287"/>
      <point x="156" y="200" type="curve" smooth="yes"/>
      <point x="156" y="126"/>
      <point x="186" y="84"/>
      <point x="262" y="84" type="curve" smooth="yes"/>
      <point x="293" y="84"/>
      <point x="337" y="108"/>
    </contour>
  </outline>
</glyph>
<glyph name="d" format="2">
  <advance width="500"/>
  <unicode hex="0064"/>
  <anchor x="240" y="600" name="top"/>
  <anchor x="228" y="-10" name="cedilla"/>
  <anchor x="381" y="-3" name="ogonek"/>
  <anchor x="233" y="0" name="bottom"/>
  <outline>
    <contour>
      <point x="356" y="606" type="curve" smooth="yes"/>
      <point x="377" y="606"/>
      <point x="402" y="598"/>
      <point x="405" y="566" type="curve" smooth="yes"/>
      <point x="408" y="534"/>
      <point x="406" y="470"/>
      <point x="406" y="343" type="curve" smooth="yes"/>
      <point x="406" y="229"/>
      <point x="409" y="185"/>
      <point x="408" y="136" type="curve" smooth="yes"/>
      <point x="407" y="102"/>
      <point x="410" y="86"/>
      <point x="425" y="85" type="curve" smooth="yes"/>
      <point x="451" y="83"/>
      <point x="457" y="67"/>
      <point x="456" y="45" type="curve" smooth="yes"/>
      <point x="454" y="-13"/>
      <point x="397" y="-3"/>
      <point x="381" y="-3" type="curve" smooth="yes"/>
      <point x="331" y="-2"/>
      <point x="313" y="38"/>
      <point x="315" y="94" type="curve" smooth="yes"/>
      <point x="317" y="149"/>
      <point x="312" y="220"/>
      <point x="310" y="281" type="curve" smooth="yes"/>
      <point x="306" y="412"/>
      <point x="310" y="527"/>
      <point x="310" y="561" type="curve" smooth="yes"/>
      <point x="309" y="582"/>
      <point x="324" y="606"/>
    </contour>
    <contour>
      <point x="320" y="149" type="curve"/>
      <point x="333" y="57" type="line"/>
      <point x="321" y="39"/>
      <point x="298" y="-10"/>
      <point x="228" y="-10" type="curve" smooth="yes"/>
      <point x="129" y="-10"/>
      <point x="48" y="53"/>
      <point x="48" y="200" type="curve" smooth="yes"/>
      <point x="48" y="363"/>
      <point x="138" y="410"/>
      <point x="248" y="410" type="curve" smooth="yes"/>
      <point x="290" y="410"/>
      <point x="313" y="398"/>
      <point x="319" y="373" type="curve"/>
      <point x="320" y="243" type="line"/>
      <point x="305" y="275"/>
      <point x="312" y="314"/>
      <point x="231" y="314" type="curve" smooth="yes"/>
      <point x="170" y="314"/>
      <point x="145" y="272"/>
      <point x="145" y="200" type="curve" smooth="yes"/>
      <point x="145" y="135"/>
      <point x="185" y="89"/>
      <point x="229" y="89" type="curve" smooth="yes"/>
      <point x="265" y="89"/>
      <point x="284" y="108"/>
    </contour>
  </outline>
</glyph>
<glyph name="e" format="2">
  <advance width="500"/>
  <unicode hex="0065"/>
  <anchor x="260" y="400" name="top"/>
  <anchor x="221" y="-9" name="cedilla"/>
  <anchor x="355" y="0" name="ogonek"/>
  <anchor x="250" y="0" name="bottom"/>
  <outline>
    <contour>
      <point x="387" y="156" type="curve" smooth="yes"/>
      <point x="339" y="151"/>
      <point x="268" y="146"/>
      <point x="231" y="146" type="curve" smooth="yes"/>
      <point x="189" y="146"/>
      <point x="144" y="148"/>
      <point x="133" y="151" type="curve"/>
      <point x="133" y="240" type="line"/>
      <point x="181" y="238"/>
      <point x="228" y="237"/>
      <point x="250" y="237" type="curve" smooth="yes"/>
      <point x="284" y="237"/>
      <point x="316" y="235"/>
      <point x="351" y="240" type="curve"/>
      <point x="351" y="259"/>
      <point x="335" y="326"/>
      <point x="266" y="326" type="curve" smooth="yes"/>
      <point x="211" y="326"/>
      <point x="151" y="296"/>
      <point x="151" y="196" type="curve" smooth="yes"/>
      <point x="151" y="121"/>
      <point x="169" y="92"/>
      <point x="219" y="89" type="curve" smooth="yes"/>
      <point x="312" y="84"/>
      <point x="355" y="94"/>
      <point x="368" y="98" type="curve" smooth="yes"/>
      <point x="388" y="104"/>
      <point x="424" y="114"/>
      <point x="436" y="80" type="curve" smooth="yes"/>
      <point x="445" y="54"/>
      <point x="432" y="29"/>
      <point x="418" y="18" type="curve" smooth="yes"/>
      <point x="383" y="-6"/>
      <point x="339" y="-9"/>
      <point x="221" y="-9" type="curve" smooth="yes"/>
      <point x="133" y="-9"/>
      <point x="61" y="33"/>
      <point x="61" y="196" type="curve" smooth="yes"/>
      <point x="61" y="353"/>
      <point x="174" y="410"/>
      <point x="261" y="410" type="curve" smooth="yes"/>
      <point x="358" y="410"/>
      <point x="440" y="345"/>
      <point x="437" y="221" type="curve" smooth="yes"/>
      <point x="437" y="194"/>
      <point x="437" y="161"/>
    </contour>
  </outline>
</glyph>
<glyph name="f" format="2">
  <advance width="500"/>
  <unicode hex="0066"/>
  <anchor x="280" y="600" name="top"/>
  <anchor x="198" y="-10" name="cedilla"/>
  <anchor x="198" y="-10" name="ogonek"/>
  <anchor x="250" y="0" name="bottom"/>
  <outline>
    <contour>
      <point x="448" y="475" type="curve" smooth="yes"/>
      <point x="429" y="457"/>
      <point x="406" y="449"/>
      <point x="386" y="469" type="curve" smooth="yes"/>
      <point x="336" y="521"/>
      <point x="323" y="517"/>
      <point x="296" y="515" type="curve" smooth="yes"/>
      <point x="251" y="512"/>
      <point x="257" y="474"/>
      <point x="252" y="357" type="curve" smooth="yes"/>
      <point x="245" y="208"/>
      <point x="247" y="145"/>
      <point x="253" y="56" type="curve" smooth="yes"/>
      <point x="256" y="9"/>
      <point x="240" y="-10"/>
      <point x="198" y="-10" type="curve" smooth="yes"/>
      <point x="149" y="-10"/>
      <point x="149" y="17"/>
      <point x="149" y="57" type="curve" smooth="yes"/>
      <point x="149" y="201"/>
      <point x="151" y="365"/>
      <point x="153" y="407" type="curve" smooth="yes"/>
      <point x="155" y="445"/>
      <point x="151" y="611"/>
      <point x="288" y="608" type="curve" smooth="yes"/>
      <point x="333" y="607"/>
      <point x="378" y="607"/>
      <point x="436" y="541" type="curve" smooth="yes"/>
      <point x="448" y="528"/>
      <point x="468" y="494"/>
    </contour>
    <contour>
      <point x="414" y="304" type="curve" smooth="yes"/>
      <point x="413" y="291"/>
      <point x="403" y="265"/>
      <point x="373" y="265" type="curve" smooth="yes"/>
      <point x="321" y="267"/>
      <point x="286" y="268"/>
      <point x="274" y="268" type="curve" smooth="yes"/>
      <point x="240" y="268"/>
      <point x="133" y="262"/>
      <point x="105" y="257" type="curve" smooth="yes"/>
      <point x="82" y="253"/>
      <point x="66" y="281"/>
      <point x="65" y="300" type="curve" smooth="yes"/>
      <point x="65" y="316"/>
      <point x="82" y="347"/>
      <point x="114" y="348" type="curve" smooth="yes"/>
      <point x="162" y="348"/>
      <point x="256" y="358"/>
      <point x="293" y="358" type="curve" smooth="yes"/>
      <point x="325" y="358"/>
      <point x="361" y="356"/>
      <point x="376" y="353" type="curve" smooth="yes"/>
      <point x="409" y="349"/>
      <point x="415" y="322"/>
    </contour>
  </outline>
</glyph>
<glyph name="g" format="2">
  <advance width="500"/>
  <unicode hex="0067"/>
  <anchor x="250" y="400" name="top"/>
  <anchor x="244" y="-107" name="cedilla"/>
  <anchor x="244" y="-107" name="ogonek"/>
  <anchor x="250" y="0" name="bottom"/>
  <outline>
    <contour>
      <point x="58" y="0" type="curve" smooth="yes"/>
      <point x="82" y="27"/>
      <point x="100" y="22"/>
      <point x="122" y="4" type="curve" smooth="yes"/>
      <point x="149" y="-19"/>
      <point x="210" y="-22"/>
      <point x="256" y="-16" type="curve" smooth="yes"/>
      <point x="306" y="-10"/>
      <point x="332" y="-6"/>
      <point x="355" y="46" type="curve" smooth="yes"/>
      <point x="374" y="88"/>
      <point x="351" y="131"/>
      <point x="348" y="195" type="curve" smooth="yes"/>
      <point x="344" y="281"/>
      <point x="348" y="339"/>
      <point x="361" y="367" type="curve" smooth="yes"/>
      <point x="379" y="406"/>
      <point x="404" y="424"/>
      <point x="437" y="402" type="curve" smooth="yes"/>
      <point x="464" y="385"/>
      <point x="450" y="360"/>
      <point x="440" y="314" type="curve" smooth="yes"/>
      <point x="431" y="270"/>
      <point x="436" y="230"/>
      <point x="438" y="203" type="curve" smooth="yes"/>
      <point x="440" y="155"/>
      <point x="451" y="107"/>
      <point x="451" y="84" type="curve" smooth="yes"/>
      <point x="450" y="22"/>
      <point x="435" y="-95"/>
      <point x="244" y="-107" type="curve" smooth="yes"/>
      <point x="178" y="-110"/>
      <point x="115" y="-106"/>
      <point x="82" y="-80" type="curve" smooth="yes"/>
      <point x="34" y="-42"/>
      <point x="41" y="-20"/>
    </contour>
    <contour>
      <point x="378" y="357" type="curve"/>
      <point x="354" y="284" type="line"/>
      <point x="316" y="318"/>
      <point x="288" y="333"/>
      <point x="241" y="335" type="curve" smooth="yes"/>
      <point x="170" y="338"/>
      <point x="139" y="286"/>
      <point x="139" y="224" type="curve" smooth="yes"/>
      <point x="139" y="159"/>
      <point x="191" y="139"/>
      <point x="224" y="141" type="curve" smooth="yes"/>
      <point x="267" y="143"/>
      <point x="294" y="152"/>
      <point x="361" y="265" type="curve"/>
      <point x="368" y="149" type="line"/>
      <point x="321" y="65"/>
      <point x="264" y="59"/>
      <point x="231" y="59" type="curve" smooth="yes"/>
      <point x="197" y="59"/>
      <point x="49" y="58"/>
      <point x="49" y="217" type="curve" smooth="yes"/>
      <point x="49" y="320"/>
      <point x="105" y="416"/>
      <point x="245" y="417" type="curve" smooth="yes"/>
      <point x="328" y="417"/>
      <point x="348" y="386"/>
    </contour>
  </outline>
</glyph>
<glyph name="h" format="2">
  <advance width="500"/>
  <unicode hex="0068"/>
  <anchor x="270" y="600" name="top"/>
  <anchor x="110" y="-8" name="cedilla"/>
  <anchor x="404" y="-9" name="ogonek"/>
  <anchor x="250" y="0" name="bottom"/>
  <outline>
    <contour>
      <point x="127" y="608" type="curve" smooth="yes"/>
      <point x="174" y="611"/>
      <point x="179" y="578"/>
      <point x="176" y="557" type="curve" smooth="yes"/>
      <point x="167" y="486"/>
      <point x="172" y="386"/>
      <point x="172" y="275" type="curve" smooth="yes"/>
      <point x="172" y="221"/>
      <point x="166" y="81"/>
      <point x="166" y="75" type="curve" smooth="yes"/>
      <point x="169" y="11"/>
      <point x="163" y="-12"/>
      <point x="110" y="-8" type="curve" smooth="yes"/>
      <point x="80" y="-6"/>
      <point x="66" y="9"/>
      <point x="72" y="70" type="curve" smooth="yes"/>
      <point x="76" y="111"/>
      <point x="81" y="229"/>
      <point x="78" y="346" type="curve" smooth="yes"/>
      <point x="74" y="513"/>
      <point x="80" y="532"/>
      <point x="83" y="563" type="curve" smooth="yes"/>
      <point x="88" y="596"/>
      <point x="93" y="606"/>
    </contour>
    <contour>
      <point x="450" y="61" type="curve" smooth="yes"/>
      <point x="456" y="3"/>
      <point x="440" y="-6"/>
      <point x="404" y="-9" type="curve" smooth="yes"/>
      <point x="373" y="-12"/>
      <point x="356" y="8"/>
      <point x="354" y="48" type="curve" smooth="yes"/>
      <point x="351" y="112"/>
      <point x="345" y="149"/>
      <point x="351" y="225" type="curve" smooth="yes"/>
      <point x="356" y="298"/>
      <point x="301" y="309"/>
      <point x="267" y="308" type="curve" smooth="yes"/>
      <point x="232" y="307"/>
      <point x="189" y="244"/>
      <point x="169" y="178" type="curve"/>
      <point x="161" y="320" type="line"/>
      <point x="199" y="394"/>
      <point x="242" y="410"/>
      <point x="270" y="410" type="curve" smooth="yes"/>
      <point x="318" y="410"/>
      <point x="454" y="393"/>
      <point x="446" y="234" type="curve" smooth="yes"/>
      <point x="440" y="127"/>
      <point x="442" y="140"/>
    </contour>
  </outline>
</glyph>
<glyph name="i" format="2">
  <advance width="500"/>
  <unicode hex="0069"/>
  <anchor x="250" y="600" name="top"/>
  <anchor x="250" y="0" name="cedilla"/>
  <anchor x="250" y="0" name="ogonek"/>
  <anchor x="250" y="0" name="bottom"/>
  <outline>
    <contour>
      <point x="324" y="526" type="curve" smooth="yes"/>
      <point x="326" y="477"/>
      <point x="297" y="458"/>
      <point x="253" y="457" type="curve" smooth="yes"/>
      <point x="208" y="456"/>
      <point x="183" y="478"/>
      <point x="183" y="526" type="curve" smooth="yes"/>
      <point x="183" y="577"/>
      <point x="209" y="596"/>
      <point x="253" y="596" type="curve" smooth="yes"/>
      <point x="298" y="596"/>
      <point x="322" y="576"/>
    </contour>
    <component base="idotless"/>
  </outline>
</glyph>
<glyph name="j" format="2">
  <advance width="500"/>
  <unicode hex="006A"/>
  <anchor x="280" y="600" name="top"/>
  <anchor x="238" y="-97" name="cedilla"/>
  <anchor x="238" y="-97" name="ogonek"/>
  <anchor x="238" y="-97" name="bottom"/>
  <outline>
    <contour>
      <point x="416" y="526" type="curve" smooth="yes"/>
      <point x="418" y="477"/>
      <point x="389" y="458"/>
      <point x="345" y="457" type="curve" smooth="yes"/>
      <point x="300" y="456"/>
      <point x="275" y="478"/>
      <point x="275" y="526" type="curve" smooth="yes"/>
      <point x="275" y="577"/>
      <point x="301" y="596"/>
      <point x="345" y="596" type="curve" smooth="yes"/>
      <point x="390" y="596"/>
      <point x="414" y="576"/>
    </contour>
    <component base="jdotless"/>
  </outline>
</glyph>
<glyph name="k" format="2">
  <advance width="500"/>
  <unicode hex="006B"/>
  <anchor x="237" y="600" name="top"/>
  <anchor x="105" y="-8" name="cedilla"/>
  <anchor x="409" y="-3" name="ogonek"/>
  <anchor x="249" y="0" name="bottom"/>
  <outline>
    <contour>
      <point x="107" y="604" type="curve" smooth="yes"/>
      <point x="148" y="606"/>
      <point x="157" y="579"/>
      <point x="156" y="558" type="curve" smooth="yes"/>
      <point x="153" y="412"/>
      <point x="152" y="316"/>
      <point x="152" y="253" type="curve" smooth="yes"/>
      <point x="153" y="198"/>
      <point x="155" y="76"/>
      <point x="154" y="75" type="curve" smooth="yes"/>
      <point x="155" y="28"/>
      <point x="149" y="-13"/>
      <point x="105" y="-8" type="curve" smooth="yes"/>
      <point x="68" y="-4"/>
      <point x="53" y="28"/>
      <point x="57" y="69" type="curve" smooth="yes"/>
      <point x="60" y="110"/>
      <point x="55" y="229"/>
      <point x="59" y="345" type="curve" smooth="yes"/>
      <point x="63" y="513"/>
      <point x="58" y="531"/>
      <point x="60" y="563" type="curve" smooth="yes"/>
      <point x="65" y="596"/>
      <point x="81" y="603"/>
    </contour>
    <contour>
      <point x="409" y="399" type="curve" smooth="yes"/>
      <point x="428" y="375"/>
      <point x="422" y="345"/>
      <point x="398" y="321" type="curve" smooth="yes"/>
      <point x="375" y="298"/>
      <point x="324" y="261"/>
      <point x="292" y="230" type="curve" smooth="yes"/>
      <point x="227" y="170"/>
      <point x="159" y="103"/>
      <point x="137" y="87" type="curve"/>
      <point x="132" y="205" type="line"/>
      <point x="171" y="237"/>
      <point x="210" y="279"/>
      <point x="252" y="315" type="curve" smooth="yes"/>
      <point x="286" y="345"/>
      <point x="320" y="369"/>
      <point x="344" y="390" type="curve" smooth="yes"/>
      <point x="372" y="416"/>
      <point x="395" y="417"/>
    </contour>
    <contour>
      <point x="287" y="251" type="line"/>
      <point x="314" y="207"/>
      <point x="331" y="172"/>
      <point x="337" y="162" type="curve" smooth="yes"/>
      <point x="355" y="130"/>
      <point x="363" y="116"/>
      <point x="390" y="100" type="curve" smooth="yes"/>
      <point x="408" y="89"/>
      <point x="412" y="87"/>
      <point x="426" y="86" type="curve" smooth="yes"/>
      <point x="454" y="83"/>
      <point x="463" y="68"/>
      <point x="460" y="41" type="curve" smooth="yes"/>
      <point x="455" y="2"/>
      <point x="432" y="-3"/>
      <point x="409" y="-3" type="curve" smooth="yes"/>
      <point x="349" y="-3"/>
      <point x="339" y="18"/>
      <point x="317" y="38" type="curve" smooth="yes"/>
      <point x="291" y="63"/>
      <point x="271" y="95"/>
      <point x="256" y="121" type="curve" smooth="yes"/>
      <point x="242" y="147"/>
      <point x="256" y="116"/>
      <point x="218" y="194" type="curve"/>
    </contour>
  </outline>
</glyph>
<glyph name="l" format="2">
  <advance width="500"/>
  <unicode hex="006C"/>
  <anchor x="230" y="600" name="top"/>
  <anchor x="315" y="-12" name="cedilla"/>
  <anchor x="315" y="-12" name="ogonek"/>
  <anchor x="299" y="0" name="bottom"/>
  <outline>
    <contour>
      <point x="40" y="561" type="curve" smooth="yes"/>
      <point x="41" y="580"/>
      <point x="51" y="603"/>
      <point x="83" y="602" type="curve" smooth="yes"/>
      <point x="86" y="602"/>
      <point x="118" y="599"/>
      <point x="143" y="599" type="curve" smooth="yes"/>
      <point x="173" y="599"/>
      <point x="243" y="601"/>
      <point x="257" y="602" type="curve" smooth="yes"/>
      <point x="270" y="602"/>
      <point x="287" y="588"/>
      <point x="287" y="563" type="curve" smooth="yes"/>
      <point x="287" y="397"/>
      <point x="280" y="319"/>
      <point x="274" y="157" type="curve" smooth="yes"/>
      <point x="273" y="126"/>
      <point x="265" y="85"/>
      <point x="316" y="86" type="curve" smooth="yes"/>
      <point x="364" y="87"/>
      <point x="361" y="95"/>
      <point x="374" y="100" type="curve" smooth="yes"/>
      <point x="403" y="115"/>
      <point x="430" y="124"/>
      <point x="445" y="93" type="curve" smooth="yes"/>
      <point x="470" y="42"/>
      <point x="435" y="25"/>
      <point x="405" y="10" type="curve" smooth="yes"/>
      <point x="377" y="-5"/>
      <point x="352" y="-12"/>
      <point x="315" y="-12" type="curve" smooth="yes"/>
      <point x="284" y="-12"/>
      <point x="246" y="-10"/>
      <point x="221" y="13" type="curve" smooth="yes"/>
      <point x="195" y="37"/>
      <point x="173" y="70"/>
      <point x="176" y="132" type="curve" smooth="yes"/>
      <point x="184" y="276"/>
      <point x="190" y="378"/>
      <point x="190" y="515" type="curve"/>
      <point x="172" y="510"/>
      <point x="87" y="511"/>
      <point x="81" y="512" type="curve" smooth="yes"/>
      <point x="60" y="514"/>
      <point x="39" y="540"/>
    </contour>
  </outline>
</glyph>
<glyph name="m" format="2">
  <advance width="500"/>
  <unicode hex="006D"/>
  <anchor x="250" y="400" name="top"/>
  <anchor x="258" y="-8" name="cedilla"/>
  <anchor x="414" y="-8" name="ogonek"/>
  <anchor x="253" y="0" name="bottom"/>
  <outline>
    <contour>
      <point x="98" y="409" type="curve" smooth="yes"/>
      <point x="142" y="409"/>
      <point x="145" y="386"/>
      <point x="145" y="366" type="curve" smooth="yes"/>
      <point x="145" y="239"/>
      <point x="146" y="194"/>
      <point x="137" y="75" type="curve" smooth="yes"/>
      <point x="134" y="28"/>
      <point x="121" y="-14"/>
      <point x="85" y="-8" type="curve" smooth="yes"/>
      <point x="53" y="-3"/>
      <point x="45" y="29"/>
      <point x="49" y="70" type="curve" smooth="yes"/>
      <point x="62" y="205"/>
      <point x="57" y="229"/>
      <point x="54" y="363" type="curve" smooth="yes"/>
      <point x="55" y="397"/>
      <point x="70" y="409"/>
    </contour>
    <contour>
      <point x="298" y="61" type="curve" smooth="yes"/>
      <point x="301" y="18"/>
      <point x="283" y="-6"/>
      <point x="258" y="-8" type="curve" smooth="yes"/>
      <point x="227" y="-10"/>
      <point x="205" y="23"/>
      <point x="206" y="52" type="curve" smooth="yes"/>
      <point x="207" y="116"/>
      <point x="206" y="149"/>
      <point x="212" y="225" type="curve" smooth="yes"/>
      <point x="217" y="287"/>
      <point x="217" y="320"/>
      <point x="196" y="319" type="curve" smooth="yes"/>
      <point x="174" y="318"/>
      <point x="164" y="276"/>
      <point x="144" y="233" type="curve"/>
      <point x="144" y="344" type="line"/>
      <point x="164" y="379"/>
      <point x="176" y="410"/>
      <point x="202" y="410" type="curve" smooth="yes"/>
      <point x="250" y="410"/>
      <point x="308" y="393"/>
      <point x="303" y="234" type="curve" smooth="yes"/>
      <point x="299" y="127"/>
      <point x="293" y="141"/>
    </contour>
    <contour>
      <point x="453" y="62" type="curve" smooth="yes"/>
      <point x="456" y="19"/>
      <point x="446" y="-7"/>
      <point x="414" y="-8" type="curve" smooth="yes"/>
      <point x="365" y="-10"/>
      <point x="366" y="23"/>
      <point x="367" y="52" type="curve" smooth="yes"/>
      <point x="367" y="116"/>
      <point x="364" y="149"/>
      <point x="370" y="225" type="curve" smooth="yes"/>
      <point x="375" y="298"/>
      <point x="370" y="323"/>
      <point x="351" y="323" type="curve" smooth="yes"/>
      <point x="328" y="323"/>
      <point x="313" y="308"/>
      <point x="303" y="266" type="curve"/>
      <point x="274" y="343" type="line"/>
      <point x="313" y="401"/>
      <point x="337" y="411"/>
      <point x="363" y="411" type="curve" smooth="yes"/>
      <point x="416" y="411"/>
      <point x="461" y="380"/>
      <point x="455" y="235" type="curve" smooth="yes"/>
      <point x="451" y="128"/>
      <point x="446" y="142"/>
    </contour>
  </outline>
</glyph>
<glyph name="n" format="2">
  <advance width="500"/>
  <unicode hex="006E"/>
  <anchor x="250" y="400" name="top"/>
  <anchor x="100" y="-8" name="cedilla"/>
  <anchor x="409" y="-8" name="ogonek"/>
  <anchor x="257" y="0" name="bottom"/>
  <outline>
    <contour>
      <point x="107" y="408" type="curve" smooth="yes"/>
      <point x="148" y="414"/>
      <point x="163" y="384"/>
      <point x="161" y="363" type="curve" smooth="yes"/>
      <point x="151" y="239"/>
      <point x="157" y="196"/>
      <point x="153" y="75" type="curve" smooth="yes"/>
      <point x="151" y="28"/>
      <point x="145" y="-15"/>
      <point x="100" y="-8" type="curve" smooth="yes"/>
      <point x="63" y="-2"/>
      <point x="58" y="29"/>
      <point x="61" y="70" type="curve" smooth="yes"/>
      <point x="70" y="205"/>
      <point x="63" y="232"/>
      <point x="70" y="366" type="curve" smooth="yes"/>
      <point x="73" y="399"/>
      <point x="83" y="405"/>
    </contour>
    <contour>
      <point x="444" y="61" type="curve" smooth="yes"/>
      <point x="447" y="18"/>
      <point x="434" y="-7"/>
      <point x="409" y="-8" type="curve" smooth="yes"/>
      <point x="366" y="-10"/>
      <point x="352" y="22"/>
      <point x="352" y="51" type="curve" smooth="yes"/>
      <point x="353" y="115"/>
      <point x="346" y="148"/>
      <point x="350" y="225" type="curve" smooth="yes"/>
      <point x="353" y="285"/>
      <point x="315" y="328"/>
      <point x="281" y="328" type="curve" smooth="yes"/>
      <point x="257" y="328"/>
      <point x="177" y="288"/>
      <point x="152" y="186" type="curve"/>
      <point x="148" y="320" type="line"/>
      <point x="186" y="394"/>
      <point x="256" y="414"/>
      <point x="284" y="414" type="curve" smooth="yes"/>
      <point x="332" y="414"/>
      <point x="448" y="393"/>
      <point x="440" y="234" type="curve" smooth="yes"/>
      <point x="434" y="127"/>
      <point x="439" y="140"/>
    </contour>
  </outline>
</glyph>
<glyph name="o" format="2">
  <advance width="500"/>
  <unicode hex="006F"/>
  <anchor x="250" y="400" name="top"/>
  <anchor x="250" y="-10" name="cedilla"/>
  <anchor x="250" y="-10" name="ogonek"/>
  <anchor x="250" y="0" name="bottom"/>
  <anchor x="386" y="347" name="horn"/>
  <outline>
    <contour>
      <point x="250" y="415" type="curve" smooth="yes"/>
      <point x="362" y="415"/>
      <point x="458" y="354"/>
      <point x="458" y="204" type="curve" smooth="yes"/>
      <point x="458" y="62"/>
      <point x="364" y="-10"/>
      <point x="250" y="-10" type="curve" smooth="yes"/>
      <point x="140" y="-10"/>
      <point x="42" y="63"/>
      <point x="42" y="200" type="curve" smooth="yes"/>
      <point x="42" y="353"/>
      <point x="140" y="415"/>
    </contour>
    <contour>
      <point x="250" y="79" type="curve" smooth="yes"/>
      <point x="303" y="79"/>
      <point x="369" y="115"/>
      <point x="369" y="206" type="curve" smooth="yes"/>
      <point x="369" y="289"/>
      <point x="304" y="330"/>
      <point x="250" y="330" type="curve" smooth="yes"/>
      <point x="199" y="330"/>
      <point x="131" y="292"/>
      <point x="131" y="200" type="curve" smooth="yes"/>
      <point x="131" y="115"/>
      <point x="194" y="79"/>
    </contour>
  </outline>
</glyph>
<glyph name="p" format="2">
  <advance width="500"/>
  <unicode hex="0070"/>
  <anchor x="270" y="400" name="top"/>
  <anchor x="97" y="-106" name="cedilla"/>
  <anchor x="97" y="-106" name="ogonek"/>
  <anchor x="233" y="-100" name="bottom"/>
  <outline>
    <contour>
      <point x="152" y="257" type="curve"/>
      <point x="138" y="346" type="line"/>
      <point x="150" y="374"/>
      <point x="206" y="415"/>
      <point x="258" y="415" type="curve" smooth="yes"/>
      <point x="357" y="415"/>
      <point x="482" y="374"/>
      <point x="460" y="236" type="curve" smooth="yes"/>
      <point x="434" y="76"/>
      <point x="293" y="-10"/>
      <point x="204" y="35" type="curve" smooth="yes"/>
      <point x="156" y="59"/>
      <point x="151" y="70"/>
      <point x="131" y="91" type="curve"/>
      <point x="146" y="209" type="line"/>
      <point x="185" y="143"/>
      <point x="213" y="127"/>
      <point x="241" y="121" type="curve" smooth="yes"/>
      <point x="268" y="115"/>
      <point x="335" y="112"/>
      <point x="362" y="234" type="curve" smooth="yes"/>
      <point x="377" y="304"/>
      <point x="321" y="320"/>
      <point x="257" y="320" type="curve" smooth="yes"/>
      <point x="221" y="320"/>
      <point x="188" y="298"/>
    </contour>
    <contour>
      <point x="78" y="413" type="curve" smooth="yes"/>
      <point x="128" y="430"/>
      <point x="141" y="401"/>
      <point x="150" y="383" type="curve" smooth="yes"/>
      <point x="160" y="365"/>
      <point x="158" y="344"/>
      <point x="158" y="334" type="curve" smooth="yes"/>
      <point x="148" y="216"/>
      <point x="163" y="77"/>
      <point x="151" y="-32" type="curve" smooth="yes"/>
      <point x="146" y="-79"/>
      <point x="142" y="-106"/>
      <point x="97" y="-106" type="curve" smooth="yes"/>
      <point x="65" y="-106"/>
      <point x="56" y="-79"/>
      <point x="60" y="-38" type="curve" smooth="yes"/>
      <point x="71" y="84"/>
      <point x="60" y="209"/>
      <point x="66" y="331" type="curve" smooth="yes"/>
      <point x="68" y="344"/>
      <point x="62" y="358"/>
      <point x="59" y="371" type="curve" smooth="yes"/>
      <point x="51" y="396"/>
      <point x="69" y="410"/>
    </contour>
  </outline>
</glyph>
<glyph name="q" format="2">
  <advance width="500"/>
  <unicode hex="0071"/>
  <anchor x="240" y="400" name="top"/>
  <anchor x="367" y="-111" name="cedilla"/>
  <anchor x="367" y="-111" name="ogonek"/>
  <anchor x="238" y="-100" name="bottom"/>
  <outline>
    <contour>
      <point x="347" y="355" type="curve"/>
      <point x="324" y="252" type="line"/>
      <point x="314" y="295"/>
      <point x="284" y="328"/>
      <point x="235" y="327" type="curve" smooth="yes"/>
      <point x="159" y="325"/>
      <point x="141" y="262"/>
      <point x="142" y="207" type="curve" smooth="yes"/>
      <point x="144" y="112"/>
      <point x="177" y="101"/>
      <point x="207" y="101" type="curve" smooth="yes"/>
      <point x="233" y="101"/>
      <point x="260" y="122"/>
      <point x="334" y="236" type="curve"/>
      <point x="353" y="127" type="line"/>
      <point x="297" y="28"/>
      <point x="245" y="9"/>
      <point x="212" y="9" type="curve" smooth="yes"/>
      <point x="126" y="9"/>
      <point x="55" y="39"/>
      <point x="51" y="198" type="curve" smooth="yes"/>
      <point x="49" y="301"/>
      <point x="104" y="410"/>
      <point x="242" y="412" type="curve" smooth="yes"/>
      <point x="300" y="413"/>
      <point x="316" y="384"/>
    </contour>
    <contour>
      <point x="395" y="402" type="curve" smooth="yes"/>
      <point x="401" y="400"/>
      <point x="423" y="393"/>
      <point x="418" y="366" type="curve" smooth="yes"/>
      <point x="408" y="306"/>
      <point x="412" y="188"/>
      <point x="410" y="150" type="curve" smooth="yes"/>
      <point x="407" y="102"/>
      <point x="408" y="47"/>
      <point x="405" y="-12" type="curve"/>
      <point x="420" y="39"/>
      <point x="438" y="51"/>
      <point x="464" y="39" type="curve" smooth="yes"/>
      <point x="484" y="30"/>
      <point x="488" y="23"/>
      <point x="489" y="3" type="curve" smooth="yes"/>
      <point x="489" y="-10"/>
      <point x="474" y="-39"/>
      <point x="462" y="-58" type="curve" smooth="yes"/>
      <point x="446" y="-84"/>
      <point x="436" y="-113"/>
      <point x="367" y="-111" type="curve" smooth="yes"/>
      <point x="304" y="-109"/>
      <point x="322" y="-17"/>
      <point x="323" y="18" type="curve" smooth="yes"/>
      <point x="325" y="129"/>
      <point x="327" y="220"/>
      <point x="320" y="332" type="curve" smooth="yes"/>
      <point x="320" y="342"/>
      <point x="317" y="339"/>
      <point x="323" y="359" type="curve" smooth="yes"/>
      <point x="337" y="401"/>
      <point x="343" y="418"/>
    </contour>
  </outline>
</glyph>
<glyph name="r" format="2">
  <advance width="500"/>
  <unicode hex="0072"/>
  <anchor x="278" y="400" name="top"/>
  <anchor x="102" y="-7" name="cedilla"/>
  <anchor x="102" y="-7" name="ogonek"/>
  <anchor x="260" y="0" name="bottom"/>
  <outline>
    <contour>
      <point x="91" y="410" type="curve" smooth="yes"/>
      <point x="140" y="420"/>
      <point x="163" y="388"/>
      <point x="162" y="364" type="curve" smooth="yes"/>
      <point x="162" y="238"/>
      <point x="163" y="194"/>
      <point x="161" y="77" type="curve" smooth="yes"/>
      <point x="160" y="30"/>
      <point x="156" y="-12"/>
      <point x="102" y="-7" type="curve" smooth="yes"/>
      <point x="64" y="-3"/>
      <point x="62" y="29"/>
      <point x="65" y="99" type="curve" smooth="yes"/>
      <point x="69" y="203"/>
      <point x="71" y="235"/>
      <point x="66" y="368" type="curve" smooth="yes"/>
      <point x="65" y="401"/>
      <point x="84" y="409"/>
    </contour>
    <contour>
      <point x="447" y="295" type="curve" smooth="yes"/>
      <point x="446" y="249"/>
      <point x="437" y="219"/>
      <point x="412" y="220" type="curve" smooth="yes"/>
      <point x="381" y="223"/>
      <point x="350" y="225"/>
      <point x="353" y="254" type="curve" smooth="yes"/>
      <point x="355" y="278"/>
      <point x="353" y="295"/>
      <point x="345" y="303" type="curve" smooth="yes"/>
      <point x="334" y="313"/>
      <point x="313" y="312"/>
      <point x="290" y="306" type="curve" smooth="yes"/>
      <point x="257" y="298"/>
      <point x="228" y="276"/>
      <point x="159" y="200" type="curve"/>
      <point x="158" y="320" type="line"/>
      <point x="212" y="389"/>
      <point x="276" y="410"/>
      <point x="304" y="413" type="curve" smooth="yes"/>
      <point x="344" y="417"/>
      <point x="395" y="408"/>
      <point x="413" y="395" type="curve" smooth="yes"/>
      <point x="439" y="375"/>
      <point x="449" y="359"/>
    </contour>
  </outline>
</glyph>
<glyph name="s" format="2">
  <advance width="500"/>
  <unicode hex="0073"/>
  <anchor x="250" y="400" name="top"/>
  <anchor x="246" y="-12" name="cedilla"/>
  <anchor x="246" y="-12" name="ogonek"/>
  <anchor x="250" y="0" name="bottom"/>
  <outline>
    <contour>
      <point x="255" y="415" type="curve" smooth="yes"/>
      <point x="318" y="415"/>
      <point x="360" y="402"/>
      <point x="392" y="375" type="curve" smooth="yes"/>
      <point x="413" y="357"/>
      <point x="432" y="331"/>
      <point x="409" y="311" type="curve" smooth="yes"/>
      <point x="387" y="293"/>
      <point x="367" y="292"/>
      <point x="348" y="308" type="curve" smooth="yes"/>
      <point x="328" y="325"/>
      <point x="326" y="334"/>
      <point x="264" y="334" type="curve" smooth="yes"/>
      <point x="177" y="334"/>
      <point x="165" y="310"/>
      <point x="165" y="293" type="curve" smooth="yes"/>
      <point x="165" y="260"/>
      <point x="186" y="249"/>
      <point x="275" y="249" type="curve" smooth="yes"/>
      <point x="317" y="249"/>
      <point x="366" y="241"/>
      <point x="403" y="220" type="curve" smooth="yes"/>
      <point x="433" y="202"/>
      <point x="450" y="160"/>
      <point x="450" y="125" type="curve" smooth="yes"/>
      <point x="450" y="84"/>
      <point x="422" y="48"/>
      <point x="393" y="26" type="curve" smooth="yes"/>
      <point x="359" y="0"/>
      <point x="308" y="-12"/>
      <point x="246" y="-12" type="curve" smooth="yes"/>
      <point x="179" y="-12"/>
      <point x="115" y="-1"/>
      <point x="85" y="29" type="curve" smooth="yes"/>
      <point x="68" y="47"/>
      <point x="51" y="72"/>
      <point x="82" y="99" type="curve" smooth="yes"/>
      <point x="114" y="127"/>
      <point x="146" y="98"/>
      <point x="158" y="91" type="curve" smooth="yes"/>
      <point x="181" y="78"/>
      <point x="221" y="71"/>
      <point x="246" y="72" type="curve" smooth="yes"/>
      <point x="295" y="73"/>
      <point x="327" y="85"/>
      <point x="337" y="91" type="curve" smooth="yes"/>
      <point x="351" y="100"/>
      <point x="355" y="113"/>
      <point x="355" y="121" type="curve" smooth="yes"/>
      <point x="355" y="129"/>
      <point x="351" y="140"/>
      <point x="343" y="145" type="curve" smooth="yes"/>
      <point x="333" y="152"/>
      <point x="314" y="161"/>
      <point x="272" y="161" type="curve" smooth="yes"/>
      <point x="138" y="160"/>
      <point x="81" y="194"/>
      <point x="81" y="293" type="curve" smooth="yes"/>
      <point x="81" y="387"/>
      <point x="167" y="415"/>
    </contour>
  </outline>
</glyph>
<glyph name="t" format="2">
  <advance width="500"/>
  <unicode hex="0074"/>
  <anchor x="250" y="600" name="top"/>
  <anchor x="280" y="-11" name="cedilla"/>
  <anchor x="280" y="-11" name="ogonek"/>
  <anchor x="262" y="0" name="bottom"/>
  <outline>
    <contour>
      <point x="452" y="82" type="curve" smooth="yes"/>
      <point x="466" y="35"/>
      <point x="435" y="15"/>
      <point x="416" y="9" type="curve" smooth="yes"/>
      <point x="371" y="-6"/>
      <point x="334" y="-14"/>
      <point x="280" y="-11" type="curve" smooth="yes"/>
      <point x="245" y="-9"/>
      <point x="205" y="5"/>
      <point x="184" y="37" type="curve" smooth="yes"/>
      <point x="152" y="87"/>
      <point x="157" y="172"/>
      <point x="156" y="195" type="curve" smooth="yes"/>
      <point x="155" y="237"/>
      <point x="157" y="397"/>
      <point x="161" y="541" type="curve" smooth="yes"/>
      <point x="162" y="581"/>
      <point x="170" y="607"/>
      <point x="207" y="607" type="curve" smooth="yes"/>
      <point x="263" y="608"/>
      <point x="257" y="587"/>
      <point x="257" y="540" type="curve" smooth="yes"/>
      <point x="257" y="497"/>
      <point x="256" y="397"/>
      <point x="254" y="257" type="curve" smooth="yes"/>
      <point x="252" y="174"/>
      <point x="249" y="146"/>
      <point x="268" y="114" type="curve" smooth="yes"/>
      <point x="284" y="87"/>
      <point x="290" y="86"/>
      <point x="312" y="85" type="curve" smooth="yes"/>
      <point x="334" y="84"/>
      <point x="362" y="92"/>
      <point x="396" y="102" type="curve" smooth="yes"/>
      <point x="424" y="110"/>
      <point x="444" y="109"/>
    </contour>
    <contour>
      <point x="55" y="374" type="curve" smooth="yes"/>
      <point x="56" y="387"/>
      <point x="66" y="419"/>
      <point x="96" y="419" type="curve" smooth="yes"/>
      <point x="148" y="417"/>
      <point x="258" y="416"/>
      <point x="270" y="416" type="curve" smooth="yes"/>
      <point x="304" y="416"/>
      <point x="331" y="413"/>
      <point x="375" y="416" type="curve" smooth="yes"/>
      <point x="401" y="417"/>
      <point x="413" y="384"/>
      <point x="412" y="365" type="curve" smooth="yes"/>
      <point x="411" y="349"/>
      <point x="392" y="320"/>
      <point x="360" y="320" type="curve" smooth="yes"/>
      <point x="312" y="320"/>
      <point x="292" y="317"/>
      <point x="255" y="319" type="curve" smooth="yes"/>
      <point x="223" y="321"/>
      <point x="108" y="321"/>
      <point x="93" y="324" type="curve" smooth="yes"/>
      <point x="60" y="328"/>
      <point x="54" y="356"/>
    </contour>
  </outline>
</glyph>
<glyph name="u" format="2">
  <advance width="500"/>
  <unicode hex="0075"/>
  <anchor x="250" y="400" name="top"/>
  <anchor x="227" y="-9" name="cedilla"/>
  <anchor x="384" y="-4" name="ogonek"/>
  <anchor x="249" y="0" name="bottom"/>
  <anchor x="377" y="361" name="horn"/>
  <outline>
    <contour>
      <point x="456" y="33" type="curve" smooth="yes"/>
      <point x="455" y="-6"/>
      <point x="435" y="-5"/>
      <point x="384" y="-4" type="curve" smooth="yes"/>
      <point x="338" y="-3"/>
      <point x="333" y="57"/>
      <point x="333" y="68" type="curve" smooth="yes"/>
      <point x="335" y="165"/>
      <point x="328" y="214"/>
      <point x="334" y="322" type="curve" smooth="yes"/>
      <point x="336" y="369"/>
      <point x="330" y="407"/>
      <point x="377" y="407" type="curve" smooth="yes"/>
      <point x="429" y="407"/>
      <point x="429" y="381"/>
      <point x="426" y="327" type="curve" smooth="yes"/>
      <point x="419" y="205"/>
      <point x="421" y="213"/>
      <point x="421" y="107" type="curve" smooth="yes"/>
      <point x="421" y="96"/>
      <point x="419" y="77"/>
      <point x="433" y="75" type="curve" smooth="yes"/>
      <point x="461" y="73"/>
      <point x="456" y="47"/>
    </contour>
    <contour>
      <point x="65" y="348" type="curve" smooth="yes"/>
      <point x="65" y="377"/>
      <point x="67" y="408"/>
      <point x="112" y="409" type="curve" smooth="yes"/>
      <point x="170" y="410"/>
      <point x="157" y="376"/>
      <point x="156" y="333" type="curve" smooth="yes"/>
      <point x="153" y="279"/>
      <point x="150" y="249"/>
      <point x="151" y="194" type="curve" smooth="yes"/>
      <point x="152" y="71"/>
      <point x="192" y="82"/>
      <point x="226" y="83" type="curve" smooth="yes"/>
      <point x="258" y="84"/>
      <point x="314" y="131"/>
      <point x="333" y="234" type="curve"/>
      <point x="346" y="71" type="line"/>
      <point x="312" y="-5"/>
      <point x="255" y="-8"/>
      <point x="227" y="-9" type="curve" smooth="yes"/>
      <point x="179" y="-13"/>
      <point x="66" y="-3"/>
      <point x="61" y="156" type="curve" smooth="yes"/>
      <point x="59" y="218"/>
      <point x="65" y="286"/>
    </contour>
  </outline>
</glyph>
<glyph name="v" format="2">
  <advance width="500"/>
  <unicode hex="0076"/>
  <anchor x="250" y="400" name="top"/>
  <anchor x="250" y="-9" name="cedilla"/>
  <anchor x="250" y="-9" name="ogonek"/>
  <anchor x="250" y="0" name="bottom"/>
  <outline>
    <contour>
      <point x="58" y="408" type="curve" smooth="yes"/>
      <point x="118" y="417"/>
      <point x="118" y="407"/>
      <point x="136" y="379" type="curve" smooth="yes"/>
      <point x="173" y="323"/>
      <point x="231" y="168"/>
      <point x="249" y="115" type="curve"/>
      <point x="278" y="193"/>
      <point x="312" y="274"/>
      <point x="367" y="379" type="curve" smooth="yes"/>
      <point x="382" y="408"/>
      <point x="397" y="414"/>
      <point x="440" y="407" type="curve" smooth="yes"/>
      <point x="467" y="403"/>
      <point x="465" y="375"/>
      <point x="453" y="350" type="curve" smooth="yes"/>
      <point x="383" y="208"/>
      <point x="365" y="177"/>
      <point x="307" y="43" type="curve" smooth="yes"/>
      <point x="295" y="15"/>
      <point x="270" y="-9"/>
      <point x="250" y="-9" type="curve" smooth="yes"/>
      <point x="231" y="-9"/>
      <point x="208" y="12"/>
      <point x="194" y="43" type="curve" smooth="yes"/>
      <point x="125" y="192"/>
      <point x="109" y="240"/>
      <point x="45" y="356" type="curve" smooth="yes"/>
      <point x="35" y="375"/>
      <point x="33" y="404"/>
    </contour>
  </outline>
</glyph>
<glyph name="w" format="2">
  <advance width="500"/>
  <unicode hex="0077"/>
  <anchor x="250" y="400" name="top"/>
  <anchor x="156" y="-9" name="cedilla"/>
  <anchor x="345" y="-9" name="ogonek"/>
  <anchor x="250" y="0" name="bottom"/>
  <outline>
    <contour>
      <point x="78" y="410" type="curve" smooth="yes"/>
      <point x="109" y="410"/>
      <point x="113" y="395"/>
      <point x="115" y="362" type="curve" smooth="yes"/>
      <point x="126" y="195"/>
      <point x="141" y="124"/>
      <point x="149" y="86" type="curve"/>
      <point x="155" y="124"/>
      <point x="171" y="168"/>
      <point x="187" y="211" type="curve" smooth="yes"/>
      <point x="199" y="243"/>
      <point x="220" y="248"/>
      <point x="250" y="248" type="curve" smooth="yes"/>
      <point x="280" y="248"/>
      <point x="303" y="243"/>
      <point x="313" y="211" type="curve" smooth="yes"/>
      <point x="326" y="168"/>
      <point x="344" y="123"/>
      <point x="351" y="85" type="curve"/>
      <point x="360" y="123"/>
      <point x="377" y="196"/>
      <point x="385" y="372" type="curve" smooth="yes"/>
      <point x="387" y="405"/>
      <point x="399" y="413"/>
      <point x="424" y="412" type="curve" smooth="yes"/>
      <point x="463" y="410"/>
      <point x="471" y="385"/>
      <point x="470" y="363" type="curve" smooth="yes"/>
      <point x="467" y="267"/>
      <point x="457" y="126"/>
      <point x="424" y="50" type="curve" smooth="yes"/>
      <point x="411" y="20"/>
      <point x="404" y="-9"/>
      <point x="345" y="-9" type="curve" smooth="yes"/>
      <point x="310" y="-9"/>
      <point x="275" y="18"/>
      <point x="271" y="53" type="curve" smooth="yes"/>
      <point x="266" y="95"/>
      <point x="256" y="103"/>
      <point x="250" y="145" type="curve"/>
      <point x="244" y="102"/>
      <point x="234" y="95"/>
      <point x="229" y="53" type="curve" smooth="yes"/>
      <point x="225" y="17"/>
      <point x="186" y="-9"/>
      <point x="156" y="-9" type="curve" smooth="yes"/>
      <point x="97" y="-9"/>
      <point x="88" y="20"/>
      <point x="76" y="51" type="curve" smooth="yes"/>
      <point x="44" y="130"/>
      <point x="34" y="263"/>
      <point x="30" y="356" type="curve" smooth="yes"/>
      <point x="30" y="377"/>
      <point x="38" y="410"/>
    </contour>
  </outline>
</glyph>
<glyph name="x" format="2">
  <advance width="500"/>
  <unicode hex="0078"/>
  <anchor x="250" y="400" name="top"/>
  <anchor x="109" y="-2" name="cedilla"/>
  <anchor x="387" y="2" name="ogonek"/>
  <anchor x="250" y="0" name="bottom"/>
  <outline>
    <contour>
      <point x="46" y="399" type="curve" smooth="yes"/>
      <point x="76" y="429"/>
      <point x="99" y="418"/>
      <point x="122" y="395" type="curve" smooth="yes"/>
      <point x="187" y="329"/>
      <point x="382" y="130"/>
      <point x="431" y="76" type="curve" smooth="yes"/>
      <point x="464" y="44"/>
      <point x="473" y="20"/>
      <point x="453" y="0" type="curve" smooth="yes"/>
      <point x="421" y="-32"/>
      <point x="390" y="-6"/>
      <point x="354" y="32" type="curve" smooth="yes"/>
      <point x="278" y="112"/>
      <point x="133" y="270"/>
      <point x="56" y="342" type="curve" smooth="yes"/>
      <point x="41" y="356"/>
      <point x="29" y="382"/>
    </contour>
    <contour>
      <point x="454" y="399" type="curve" smooth="yes"/>
      <point x="471" y="382"/>
      <point x="458" y="357"/>
      <point x="444" y="342" type="curve" smooth="yes"/>
      <point x="369" y="263"/>
      <point x="225" y="111"/>
      <point x="148" y="32" type="curve" smooth="yes"/>
      <point x="118" y="1"/>
      <point x="81" y="-34"/>
      <point x="47" y="0" type="curve" smooth="yes"/>
      <point x="27" y="20"/>
      <point x="36" y="44"/>
      <point x="69" y="76" type="curve" smooth="yes"/>
      <point x="120" y="126"/>
      <point x="306" y="323"/>
      <point x="378" y="395" type="curve" smooth="yes"/>
      <point x="401" y="418"/>
      <point x="422" y="431"/>
    </contour>
  </outline>
</glyph>
<glyph name="y" format="2">
  <advance width="500"/>
  <unicode hex="0079"/>
  <anchor x="250" y="400" name="top"/>
  <anchor x="214" y="-113" name="cedilla"/>
  <anchor x="214" y="-113" name="ogonek"/>
  <anchor x="239" y="-100" name="bottom"/>
  <outline>
    <contour>
      <point x="56" y="-4" type="curve" smooth="yes"/>
      <point x="78" y="27"/>
      <point x="102" y="18"/>
      <point x="115" y="6" type="curve" smooth="yes"/>
      <point x="138" y="-14"/>
      <point x="160" y="-25"/>
      <point x="207" y="-25" type="curve" smooth="yes"/>
      <point x="241" y="-25"/>
      <point x="255" y="-11"/>
      <point x="271" y="58" type="curve" smooth="yes"/>
      <point x="282" y="104"/>
      <point x="300" y="136"/>
      <point x="318" y="200" type="curve" smooth="yes"/>
      <point x="342" y="284"/>
      <point x="357" y="323"/>
      <point x="368" y="359" type="curve" smooth="yes"/>
      <point x="380" y="400"/>
      <point x="381" y="412"/>
      <point x="429" y="411" type="curve" smooth="yes"/>
      <point x="473" y="410"/>
      <point x="464" y="378"/>
      <point x="447" y="321" type="curve" smooth="yes"/>
      <point x="432" y="270"/>
      <point x="415" y="221"/>
      <point x="404" y="181" type="curve" smooth="yes"/>
      <point x="392" y="135"/>
      <point x="364" y="48"/>
      <point x="357" y="26" type="curve" smooth="yes"/>
      <point x="332" y="-43"/>
      <point x="313" y="-111"/>
      <point x="214" y="-113" type="curve" smooth="yes"/>
      <point x="147" y="-113"/>
      <point x="108" y="-94"/>
      <point x="73" y="-71" type="curve" smooth="yes"/>
      <point x="53" y="-56"/>
      <point x="35" y="-33"/>
    </contour>
    <contour>
      <point x="100" y="409" type="curve" smooth="yes"/>
      <point x="134" y="409"/>
      <point x="157" y="405"/>
      <point x="162" y="377" type="curve" smooth="yes"/>
      <point x="183" y="259"/>
      <point x="208" y="217"/>
      <point x="253" y="179" type="curve" smooth="yes"/>
      <point x="277" y="159"/>
      <point x="286" y="159"/>
      <point x="324" y="156" type="curve"/>
      <point x="308" y="69" type="line"/>
      <point x="274" y="70"/>
      <point x="245" y="67"/>
      <point x="196" y="102" type="curve" smooth="yes"/>
      <point x="148" y="136"/>
      <point x="99" y="210"/>
      <point x="68" y="360" type="curve" smooth="yes"/>
      <point x="61" y="392"/>
      <point x="72" y="409"/>
    </contour>
  </outline>
</glyph>
<glyph name="z" format="2">
  <advance width="500"/>
  <unicode hex="007A"/>
  <anchor x="250" y="400" name="top"/>
  <anchor x="234" y="3" name="cedilla"/>
  <anchor x="325" y="3" name="ogonek"/>
  <anchor x="250" y="0" name="bottom"/>
  <outline>
    <contour>
      <point x="420" y="402" type="curve" smooth="yes"/>
      <point x="459" y="404"/>
      <point x="458" y="366"/>
      <point x="439" y="341" type="curve" smooth="yes"/>
      <point x="429" y="327"/>
      <point x="377" y="260"/>
      <point x="319" y="202" type="curve" smooth="yes"/>
      <point x="216" y="100"/>
      <point x="201" y="96"/>
      <point x="171" y="76" type="curve"/>
      <point x="177" y="78"/>
      <point x="191" y="83"/>
      <point x="194" y="83" type="curve" smooth="yes"/>
      <point x="256" y="90"/>
      <point x="377" y="86"/>
      <point x="406" y="83" type="curve" smooth="yes"/>
      <point x="436" y="80"/>
      <point x="459" y="73"/>
      <point x="454" y="38" type="curve" smooth="yes"/>
      <point x="450" y="8"/>
      <point x="445" y="-1"/>
      <point x="417" y="1" type="curve" smooth="yes"/>
      <point x="382" y="3"/>
      <point x="346" y="2"/>
      <point x="325" y="3" type="curve" smooth="yes"/>
      <point x="262" y="5"/>
      <point x="254" y="2"/>
      <point x="160" y="0" type="curve" smooth="yes"/>
      <point x="112" y="-1"/>
      <point x="87" y="-2"/>
      <point x="71" y="-2" type="curve" smooth="yes"/>
      <point x="54" y="-2"/>
      <point x="44" y="7"/>
      <point x="45" y="25" type="curve" smooth="yes"/>
      <point x="46" y="42"/>
      <point x="47" y="44"/>
      <point x="79" y="81" type="curve" smooth="yes"/>
      <point x="237" y="261"/>
      <point x="274" y="284"/>
      <point x="334" y="324" type="curve"/>
      <point x="308" y="315"/>
      <point x="297" y="317"/>
      <point x="274" y="316" type="curve" smooth="yes"/>
      <point x="209" y="316"/>
      <point x="177" y="319"/>
      <point x="88" y="318" type="curve" smooth="yes"/>
      <point x="58" y="318"/>
      <point x="49" y="343"/>
      <point x="48" y="361" type="curve" smooth="yes"/>
      <point x="48" y="374"/>
      <point x="61" y="400"/>
      <point x="88" y="400" type="curve" smooth="yes"/>
      <point x="159" y="400"/>
      <point x="246" y="398"/>
      <point x="323" y="400" type="curve" smooth="yes"/>
      <point x="358" y="401"/>
      <point x="404" y="401"/>
    </contour>
  </outline>
</glyph>
<glyph name="braceleft" format="2">
  <advance width="500"/>
  <unicode hex="007B"/>
  <outline>
    <contour>
      <point x="65" y="300" type="curve" smooth="yes"/>
      <point x="65" y="367"/>
      <point x="211" y="349"/>
      <point x="211" y="397" type="curve" smooth="yes"/>
      <point x="211" y="456"/>
      <point x="103" y="443"/>
      <point x="103" y="544" type="curve" smooth="yes"/>
      <point x="103" y="586"/>
      <point x="139" y="656"/>
      <point x="206" y="675" type="curve" smooth="yes"/>
      <point x="282" y="698"/>
      <point x="359" y="674"/>
      <point x="384" y="659" type="curve" smooth="yes"/>
      <point x="416" y="640"/>
      <point x="450" y="623"/>
      <point x="426" y="584" type="curve" smooth="yes"/>
      <point x="408" y="555"/>
      <point x="379" y="565"/>
      <point x="351" y="580" type="curve" smooth="yes"/>
      <point x="334" y="589"/>
      <point x="315" y="598"/>
      <point x="254" y="591" type="curve" smooth="yes"/>
      <point x="216" y="586"/>
      <point x="198" y="574"/>
      <point x="197" y="547" type="curve" smooth="yes"/>
      <point x="194" y="483"/>
      <point x="301" y="493"/>
      <point x="302" y="387" type="curve" smooth="yes"/>
      <point x="302" y="334"/>
      <point x="219" y="317"/>
      <point x="165" y="300" type="curve"/>
      <point x="219" y="279"/>
      <point x="302" y="257"/>
      <point x="303" y="196" type="curve" smooth="yes"/>
      <point x="304" y="135"/>
      <point x="212" y="90"/>
      <point x="212" y="37" type="curve" smooth="yes"/>
      <point x="212" y="4"/>
      <point x="225" y="-7"/>
      <point x="254" y="-12" type="curve" smooth="yes"/>
      <point x="308" y="-23"/>
      <point x="336" y="4"/>
      <point x="364" y="22" type="curve" smooth="yes"/>
      <point x="382" y="33"/>
      <point x="396" y="37"/>
      <point x="418" y="2" type="curve" smooth="yes"/>
      <point x="439" y="-31"/>
      <point x="410" y="-64"/>
      <point x="364" y="-82" type="curve" smooth="yes"/>
      <point x="347" y="-89"/>
      <point x="270" y="-118"/>
      <point x="197" y="-103" type="curve" smooth="yes"/>
      <point x="142" y="-91"/>
      <point x="113" y="-11"/>
      <point x="113" y="35" type="curve" smooth="yes"/>
      <point x="113" y="118"/>
      <point x="210" y="155"/>
      <point x="210" y="188" type="curve" smooth="yes"/>
      <point x="210" y="235"/>
      <point x="65" y="228"/>
    </contour>
  </outline>
</glyph>
<glyph name="bar" format="2">
  <advance width="500"/>
  <unicode hex="007C"/>
  <outline>
    <contour>
      <point x="256" y="682" type="curve" smooth="yes"/>
      <point x="284" y="682"/>
      <point x="296" y="674"/>
      <point x="296" y="641" type="curve" smooth="yes"/>
      <point x="297" y="523"/>
      <point x="299" y="511"/>
      <point x="296" y="301" type="curve" smooth="yes"/>
      <point x="294" y="96"/>
      <point x="296" y="115"/>
      <point x="297" y="-45" type="curve" smooth="yes"/>
      <point x="297" y="-83"/>
      <point x="302" y="-108"/>
      <point x="251" y="-108" type="curve" smooth="yes"/>
      <point x="199" y="-108"/>
      <point x="200" y="-76"/>
      <point x="201" y="-44" type="curve" smooth="yes"/>
      <point x="201" y="-38"/>
      <point x="199" y="70"/>
      <point x="202" y="281" type="curve" smooth="yes"/>
      <point x="205" y="534"/>
      <point x="201" y="561"/>
      <point x="202" y="636" type="curve" smooth="yes"/>
      <point x="202" y="657"/>
      <point x="205" y="682"/>
    </contour>
  </outline>
</glyph>
<glyph name="asciitilde" format="2">
  <advance width="500"/>
  <unicode hex="007E"/>
  <outline>
    <contour>
      <point x="394" y="407" type="curve" smooth="yes"/>
      <point x="420" y="408"/>
      <point x="441" y="399"/>
      <point x="443" y="370" type="curve" smooth="yes"/>
      <point x="451" y="286"/>
      <point x="438" y="190"/>
      <point x="331" y="188" type="curve" smooth="yes"/>
      <point x="189" y="186"/>
      <point x="221" y="309"/>
      <point x="172" y="311" type="curve" smooth="yes"/>
      <point x="148" y="312"/>
      <point x="135" y="300"/>
      <point x="140" y="236" type="curve" smooth="yes"/>
      <point x="142" y="205"/>
      <point x="138" y="188"/>
      <point x="99" y="188" type="curve" smooth="yes"/>
      <point x="79" y="188"/>
      <point x="55" y="205"/>
      <point x="53" y="239" type="curve" smooth="yes"/>
      <point x="49" y="321"/>
      <point x="53" y="412"/>
      <point x="160" y="411" type="curve" smooth="yes"/>
      <point x="297" y="410"/>
      <point x="272" y="273"/>
      <point x="328" y="273" type="curve" smooth="yes"/>
      <point x="350" y="273"/>
      <point x="361" y="284"/>
      <point x="356" y="363" type="curve" smooth="yes"/>
      <point x="354" y="391"/>
      <point x="365" y="406"/>
    </contour>
  </outline>
</glyph>
<glyph name="cent" format="2">
  <advance width="500"/>
  <unicode hex="00A2"/>
  <outline>
    <contour>
      <point x="370" y="126" type="curve" smooth="yes"/>
      <point x="382" y="136"/>
      <point x="408" y="143"/>
      <point x="424" y="121" type="curve" smooth="yes"/>
      <point x="447" y="90"/>
      <point x="438" y="79"/>
      <point x="417" y="53" type="curve" smooth="yes"/>
      <point x="369" y="-4"/>
      <point x="322" y="-7"/>
      <point x="261" y="-10" type="curve" smooth="yes"/>
      <point x="151" y="-16"/>
      <point x="61" y="53"/>
      <point x="61" y="200" type="curve" smooth="yes"/>
      <point x="61" y="363"/>
      <point x="147" y="413"/>
      <point x="255" y="413" type="curve" smooth="yes"/>
      <point x="327" y="413"/>
      <point x="360" y="406"/>
      <point x="422" y="353" type="curve" smooth="yes"/>
      <point x="436" y="340"/>
      <point x="445" y="319"/>
      <point x="429" y="301" type="curve" smooth="yes"/>
      <point x="400" y="269"/>
      <point x="376" y="284"/>
      <point x="354" y="298" type="curve" smooth="yes"/>
      <point x="321" y="320"/>
      <point x="292" y="320"/>
      <point x="256" y="320" type="curve" smooth="yes"/>
      <point x="185" y="320"/>
      <point x="146" y="302"/>
      <point x="146" y="200" type="curve" smooth="yes"/>
      <point x="146" y="105"/>
      <point x="186" y="84"/>
      <point x="262" y="84" type="curve" smooth="yes"/>
      <point x="293" y="84"/>
      <point x="327" y="89"/>
    </contour>
    <contour>
      <point x="267" y="499" type="curve" smooth="yes"/>
      <point x="273" y="499"/>
      <point x="300" y="491"/>
      <point x="300" y="458" type="curve" smooth="yes"/>
      <point x="301" y="340"/>
      <point x="303" y="508"/>
      <point x="300" y="298" type="curve" smooth="yes"/>
      <point x="298" y="93"/>
      <point x="300" y="142"/>
      <point x="301" y="-18" type="curve" smooth="yes"/>
      <point x="301" y="-56"/>
      <point x="291" y="-81"/>
      <point x="262" y="-81" type="curve" smooth="yes"/>
      <point x="232" y="-81"/>
      <point x="218" y="-49"/>
      <point x="219" y="-17" type="curve" smooth="yes"/>
      <point x="219" y="-11"/>
      <point x="217" y="67"/>
      <point x="220" y="278" type="curve" smooth="yes"/>
      <point x="223" y="531"/>
      <point x="219" y="378"/>
      <point x="220" y="453" type="curve" smooth="yes"/>
      <point x="220" y="474"/>
      <point x="238" y="500"/>
    </contour>
  </outline>
</glyph>
<glyph name="sterling" format="2">
  <advance width="500"/>
  <unicode hex="00A3"/>
  <outline>
    <contour>
      <point x="180" y="465" type="curve" smooth="yes"/>
      <point x="181" y="504"/>
      <point x="188" y="533"/>
      <point x="271" y="533" type="curve" smooth="yes"/>
      <point x="319" y="533"/>
      <point x="338" y="496"/>
      <point x="338" y="460" type="curve" smooth="yes"/>
      <point x="336" y="438"/>
      <point x="349" y="414"/>
      <point x="375" y="414" type="curve" smooth="yes"/>
      <point x="400" y="414"/>
      <point x="417" y="432"/>
      <point x="417" y="447" type="curve" smooth="yes"/>
      <point x="417" y="551"/>
      <point x="367" y="611"/>
      <point x="275" y="611" type="curve" smooth="yes"/>
      <point x="192" y="611"/>
      <point x="96" y="594"/>
      <point x="88" y="471" type="curve" smooth="yes"/>
      <point x="83" y="395"/>
      <point x="112" y="368"/>
      <point x="126" y="299" type="curve" smooth="yes"/>
      <point x="153" y="166"/>
      <point x="55" y="97"/>
      <point x="55" y="19" type="curve"/>
      <point x="162" y="35" type="line"/>
      <point x="179" y="128"/>
      <point x="220" y="153"/>
      <point x="222" y="243" type="curve" smooth="yes"/>
      <point x="224" y="355"/>
      <point x="179" y="396"/>
    </contour>
    <contour>
      <point x="55" y="19" type="curve" smooth="yes"/>
      <point x="55" y="0"/>
      <point x="63" y="-11"/>
      <point x="95" y="-9" type="curve" smooth="yes"/>
      <point x="147" y="-6"/>
      <point x="191" y="31"/>
      <point x="232" y="31" type="curve" smooth="yes"/>
      <point x="300" y="31"/>
      <point x="338" y="-30"/>
      <point x="437" y="20" type="curve" smooth="yes"/>
      <point x="461" y="32"/>
      <point x="476" y="61"/>
      <point x="461" y="93" type="curve" smooth="yes"/>
      <point x="449" y="118"/>
      <point x="432" y="119"/>
      <point x="401" y="105" type="curve" smooth="yes"/>
      <point x="330" y="74"/>
      <point x="330" y="122"/>
      <point x="228" y="121" type="curve" smooth="yes"/>
      <point x="162" y="120"/>
      <point x="123" y="76"/>
      <point x="101" y="74" type="curve" smooth="yes"/>
      <point x="73" y="71"/>
      <point x="55" y="39"/>
    </contour>
    <contour>
      <point x="55" y="260" type="curve" smooth="yes"/>
      <point x="55" y="244"/>
      <point x="65" y="226"/>
      <point x="93" y="222" type="curve" smooth="yes"/>
      <point x="111" y="219"/>
      <point x="210" y="220"/>
      <point x="241" y="220" type="curve" smooth="yes"/>
      <point x="278" y="221"/>
      <point x="312" y="220"/>
      <point x="359" y="221" type="curve" smooth="yes"/>
      <point x="394" y="222"/>
      <point x="411" y="238"/>
      <point x="411" y="259" type="curve" smooth="yes"/>
      <point x="411" y="278"/>
      <point x="397" y="299"/>
      <point x="374" y="300" type="curve" smooth="yes"/>
      <point x="342" y="302"/>
      <point x="282" y="299"/>
      <point x="249" y="299" type="curve" smooth="yes"/>
      <point x="237" y="299"/>
      <point x="149" y="301"/>
      <point x="97" y="301" type="curve" smooth="yes"/>
      <point x="68" y="301"/>
      <point x="55" y="276"/>
    </contour>
  </outline>
</glyph>
<glyph name="yen" format="2">
  <advance width="500"/>
  <unicode hex="00A5"/>
  <outline>
    <contour>
      <point x="50" y="320" type="curve" smooth="yes"/>
      <point x="50" y="336"/>
      <point x="63" y="361"/>
      <point x="92" y="361" type="curve" smooth="yes"/>
      <point x="144" y="361"/>
      <point x="252" y="359"/>
      <point x="264" y="359" type="curve" smooth="yes"/>
      <point x="297" y="359"/>
      <point x="377" y="362"/>
      <point x="409" y="360" type="curve" smooth="yes"/>
      <point x="432" y="359"/>
      <point x="446" y="338"/>
      <point x="446" y="319" type="curve" smooth="yes"/>
      <point x="446" y="298"/>
      <point x="429" y="282"/>
      <point x="394" y="281" type="curve" smooth="yes"/>
      <point x="347" y="280"/>
      <point x="293" y="281"/>
      <point x="256" y="280" type="curve" smooth="yes"/>
      <point x="225" y="280"/>
      <point x="106" y="279"/>
      <point x="88" y="282" type="curve" smooth="yes"/>
      <point x="60" y="286"/>
      <point x="50" y="304"/>
    </contour>
    <contour>
      <point x="50" y="190" type="curve" smooth="yes"/>
      <point x="50" y="206"/>
      <point x="63" y="231"/>
      <point x="92" y="231" type="curve" smooth="yes"/>
      <point x="144" y="231"/>
      <point x="252" y="229"/>
      <point x="264" y="229" type="curve" smooth="yes"/>
      <point x="297" y="229"/>
      <point x="377" y="232"/>
      <point x="409" y="230" type="curve" smooth="yes"/>
      <point x="432" y="229"/>
      <point x="446" y="208"/>
      <point x="446" y="189" type="curve" smooth="yes"/>
      <point x="446" y="168"/>
      <point x="429" y="152"/>
      <point x="394" y="151" type="curve" smooth="yes"/>
      <point x="347" y="150"/>
      <point x="293" y="151"/>
      <point x="256" y="150" type="curve" smooth="yes"/>
      <point x="225" y="150"/>
      <point x="106" y="149"/>
      <point x="88" y="152" type="curve" smooth="yes"/>
      <point x="60" y="156"/>
      <point x="50" y="174"/>
    </contour>
    <component base="Y"/>
  </outline>
</glyph>
